<svg width="500" height="500" version="1.1" viewBox="0 0 500 500" xml:space="preserve" xmlns="http://www.w3.org/2000/svg"><defs><clipPath id="clipPath57-2"><path d="m0 500h1e3v-500h-1e3z"/></clipPath><clipPath id="clipPath65-4"><path d="m77.261 391.92h250.55v-286.44h-250.55z"/></clipPath><clipPath id="clipPath89-7"><path d="m0 500h1e3v-500h-1e3z"/></clipPath><clipPath id="clipPath125-2"><path d="m61.84 284.73h106.95v-120.07h-106.95z"/></clipPath><clipPath id="clipPath197-9"><path d="m196.09 283.3h4.062v-11.474h-4.062z"/></clipPath><clipPath id="clipPath213-7"><path d="m204.55 294.16h7.166v-17.301h-7.166z"/></clipPath><clipPath id="clipPath229-6"><path d="m211.92 252.98h79.199v-88.323h-79.199z"/></clipPath><clipPath id="clipPath265-9"><path d="m57.83 379.06h238.67v-167.26h-238.67z"/></clipPath><clipPath id="clipPath349-9"><path d="m171.48 301.89h8.82v-8.822h-8.82z"/></clipPath><clipPath id="clipPath365-0"><path d="m191.7 303.9h3.31v-8.237h-3.31z"/></clipPath><clipPath id="clipPath417-8"><path d="m184.28 267.39h27.149v-33.348h-27.149z"/></clipPath><clipPath id="clipPath437-4"><path d="m143.17 258.34h38.732v-69.721h-38.732z"/></clipPath><clipPath id="clipPath465-0"><path d="m129.89 190.36h92.028v-59.637h-92.028z"/></clipPath><clipPath id="clipPath481-5"><path d="m128.38 267.69h79.236v-75.969h-79.236z"/></clipPath><clipPath id="clipPath529-1"><path d="m105.72 161.71h93.482v-40.77h-93.482z"/></clipPath><clipPath id="clipPath561-5"><path d="m379.51 418.06h272.95v-290.82h-272.95z"/></clipPath><clipPath id="clipPath613-7"><path d="m387.75 240.59h109.77v-123.23h-109.77z"/></clipPath><clipPath id="clipPath685-8"><path d="m525.54 239.12h4.169v-11.777h-4.169z"/></clipPath><clipPath id="clipPath701-3"><path d="m534.22 250.27h7.356v-17.758h-7.356z"/></clipPath><clipPath id="clipPath717-9"><path d="m541.79 208h81.287v-90.653h-81.287z"/></clipPath><clipPath id="clipPath753-3"><path d="m383.63 337.41h244.96v-171.67h-244.96z"/></clipPath><clipPath id="clipPath869-5"><path d="m494.54 316.1h9.054v-9.054h-9.054z"/></clipPath><clipPath id="clipPath885-0"><path d="m479.44 318.16h3.397v-8.453h-3.397z"/></clipPath><clipPath id="clipPath937-2"><path d="m492.9 271.4h39.754v-71.559h-39.754z"/></clipPath><clipPath id="clipPath957-3"><path d="m451.83 201.63h94.455v-61.209h-94.455z"/></clipPath><clipPath id="clipPath981-9"><path d="m475.14 172.22h95.948v-41.846h-95.948z"/></clipPath><clipPath id="clipPath1029-5"><path d="m685.53 408.74h251.28v-285.21h-251.28z"/></clipPath><clipPath id="clipPath1081-4"><path d="m683.54 273.64h114.56v-128.61h-114.56z"/></clipPath><clipPath id="clipPath1153-3"><path d="m827.35 272.12h4.351v-12.291h-4.351z"/></clipPath><clipPath id="clipPath1169-2"><path d="m836.41 283.75h7.677v-18.533h-7.677z"/></clipPath><clipPath id="clipPath1185-6"><path d="m844.3 239.64h84.835v-94.61h-84.835z"/></clipPath><clipPath id="clipPath1221-0"><path d="m679.24 401.84h255.66v-206.3h-255.66z"/></clipPath><clipPath id="clipPath1285-0"><path d="m759.92 294.02h29.181v-83.918h-29.181z"/></clipPath><clipPath id="clipPath1305-1"><path d="m780.56 298.54h76.461v-138.7h-76.461z"/></clipPath><clipPath id="clipPath7724"><rect transform="scale(1,-1)" x="23.551" y="-418.11" width="334.98" height="348.47" fill="#00f" fill-rule="evenodd" stroke-width=".75"/></clipPath><clipPath id="clipPath7728"><rect transform="scale(1,-1)" x="-273.3" y="-322.53" width="334.98" height="348.47" fill="#00f" fill-rule="evenodd" stroke-width=".75"/></clipPath><clipPath id="clipPath7732"><rect transform="scale(1,-1)" x="23.551" y="-418.11" width="334.98" height="348.47" fill="#00f" fill-rule="evenodd" stroke-width=".75"/></clipPath></defs><g transform="matrix(1.3333 0 0 -1.3333 0 666.67)"><g transform="translate(-4.0866 55.7)" clip-path="url(#clipPath7732)"><g clip-path="url(#clipPath57-2)"><g clip-path="url(#clipPath65-4)" opacity=".31"><g transform="translate(129.07 162.9)"><path d="m0 0c14.447-14.248 29.027-28.604 46.07-39.615 17.044-11.011 36.951-18.575 57.225-17.744 16.331 0.669 31.963 6.688 46.731 13.693 11.153 5.291 22.193 11.317 30.899 20.069 21.949 22.064 23.891 60.981 4.249 85.12-14.083 17.308-36.278 26.188-51.356 42.636-25.811 28.153-26.261 72.948-51.918 101.24-17.071 18.826-44.566 27.527-69.359 21.952-10.164-2.286-20.228-7.14-26.222-15.66-9.717-13.817-6.254-32.611-2.129-48.991 4.126-16.38 8.24-34.843-0.573-49.253-8.527-13.942-27.186-20.166-33.359-35.298-5.281-12.946 0.526-27.509 6.37-40.212 4.666-10.14 10.415-21.204 20.945-24.906 11.542-4.058 24.432 2.378 36.415-0.094" fill="#d8d3cf"/></g><g transform="translate(288.69 267.02)"><path d="m0 0c-5.591 4.801-10.789 10.51-12.926 17.563-2.138 7.053-0.474 15.667 5.52 19.955 7.839 5.608 19.26 1.608 25.983-5.299 5.697-5.854 9.478-14.267 7.604-22.218-1.875-7.95-10.841-14.197-18.467-11.27" fill="#d8d3cf"/></g></g></g></g><g transform="translate(292.76 151.28)" clip-path="url(#clipPath7728)"><path d="m0 0h-237.6l32.146 48.918h173.31z" fill="#863c3e"/></g><g transform="translate(-4.0866 55.7)" clip-path="url(#clipPath7724)"><g clip-path="url(#clipPath89-7)"><g transform="translate(86.89 164.71)"><path d="m0 0c-12.717 6.778-19.616 15.167-24.132 28.851-1.071 3.244-1.654 7.313 0.845 9.642 2.677 2.497 7.026 1.289 10.251-0.442 5.922-3.179 11.135-7.671 15.152-13.06 5.169-6.932 9.501-16.122 18.014-17.638 0.777-0.139 1.622-0.193 2.312 0.189 2.084 1.155 0.731 4.293-0.587 6.277-2.416 3.636-3.987 7.829-4.556 12.158-0.103 0.782-0.168 1.607 0.145 2.332 0.454 1.052 1.603 1.637 2.723 1.878 4.076 0.88 8.05-1.665 11.292-4.285 8.261-6.677 19.737-17.756 25.427-26.726" fill="#b2cdc1"/></g><g transform="translate(171.17 240.26)"><path d="m0 0c-11.726 3.577-22.277 10.9-29.729 20.634-3.555 4.643-6.482 10.034-6.849 15.87-0.206 3.273 1.059 7.291 4.284 7.89 2.332 0.433 4.513-1.169 6.289-2.741 12.579-11.137 22.008-25.794 26.929-41.857" fill="#b2cdc1"/></g><g transform="translate(102.54 224.81)"><path d="m0 0c-6.029 1.234-12.137 2.514-17.618 5.312-5.48 2.799-10.349 7.346-12.165 13.226-0.719 2.33-0.882 5.049 0.526 7.041 1.772 2.507 5.334 2.951 8.375 2.525 6.441-0.904 12.287-4.702 16.336-9.792 4.048-5.088 6.395-11.387 7.435-17.808" fill="#b2cdc1"/></g><g transform="translate(112 221.17)"><path d="m0 0c-1.766 3.288-2.848 6.902-3.615 10.555-1.039 4.949-1.391 10.541 1.577 14.634 0.892 1.229 2.187 2.318 3.704 2.365 0.908 0.028 1.787-0.322 2.582-0.762 3.242-1.796 5.49-5.273 5.796-8.967 0.283-3.398-0.982-6.752-2.684-9.707-1.702-2.954-3.848-5.633-5.576-8.573" fill="#b2cdc1"/></g><g transform="translate(121.05 211.98)"><path d="m0 0c-3.835 0.893-7.708 1.789-11.645 1.83-3.938 0.042-8.001-0.842-11.151-3.203-0.58-0.435-1.159-0.974-1.285-1.687-0.122-0.692 0.217-1.384 0.639-1.946 1.472-1.958 4-2.912 6.447-2.969 2.449-0.055 4.845 0.68 7.128 1.566 3.092 1.198 6.24 2.837 7.919 5.696" fill="#b2cdc1"/></g><g transform="translate(134.91 201.79)"><path d="m0 0c-1.22 3.544-2.449 7.129-2.793 10.861s0.281 7.684 2.481 10.717c0.284 0.391 0.619 0.783 1.08 0.929 0.553 0.174 1.152-0.051 1.656-0.341 2.074-1.194 3.326-3.455 3.991-5.754 1.675-5.792 2e-3 -12.428-4.218-16.734" fill="#b2cdc1"/></g><g transform="translate(81.36 245.74)"><path d="m0 0c1.839-7.534 9.301-12.178 15.127-16.521 6.473-4.827 13.076-9.472 19.65-14.158 13.044-9.299 26.072-18.79 37.451-30.122 6.375-6.349 12.167-13.269 17.017-20.856 0.483-0.754 1.69-0.056 1.205 0.704-8.479 13.261-19.759 24.368-31.929 34.239-12.373 10.034-25.619 18.909-38.479 28.292-3.611 2.635-7.247 5.266-10.714 8.087-3.501 2.85-6.879 6.181-7.983 10.706-0.213 0.871-1.558 0.502-1.345-0.371" fill="#b2cdc1"/></g><g clip-path="url(#clipPath125-2)"><g transform="translate(107.61 180.42)"><path d="m0 0c1.275 4.849 5.306 9.037 10.062 10.737-3.111 2.417-6.818 4.569-10.614 3.75-1.121-0.242-2.27-0.827-2.724-1.881-0.312-0.723-0.248-1.548-0.145-2.33 0.474-3.601 1.65-7.104 3.421-10.276" fill="#b2cdc1"/></g><g transform="translate(86.321 169.52)"><path d="m0 0c-4.67 5.317-9.259 10.971-12.736 17.157-2.292 4.078-4.822 9.339-3.259 14.104 0.378 1.152 0.935 2.11 1.617 2.885-2.884 1.158-6.164 1.576-8.34-0.454-2.498-2.329-1.916-6.398-0.845-9.642 4.517-13.684 11.416-22.072 24.132-28.851l3.752-0.053c-1.503 1.609-2.934 3.274-4.321 4.854" fill="#b2cdc1"/></g><g transform="translate(164.03 255.49)"><path d="M 0,0 C 1.502,-2.204 3.117,-4.315 4.76,-6.406 1.865,0.378 -1.85,6.812 -6.269,12.72 -6.892,9.402 -1.209,1.775 0,0" fill="#b2cdc1"/></g><g transform="translate(141.82 267.55)"><path d="m0 0c-1.02 5.585 1.392 10.003 5.218 12.645-0.618 0.579-1.239 1.156-1.873 1.717-1.776 1.573-3.957 3.174-6.289 2.742-3.225-0.599-4.49-4.617-4.284-7.89 0.367-5.837 3.294-11.227 6.849-15.871 1.815-2.37 3.816-4.594 5.97-6.659-2.718 4.074-4.718 8.537-5.591 13.316" fill="#b2cdc1"/></g><g transform="translate(98.603 225.95)"><path d="m0 0c-8.801 2.505-17.761 12.699-19.757 21.548-0.415 1.841-0.522 3.694-0.37 5.484-2.069-0.199-4.024-0.942-5.196-2.599-1.408-1.993-1.245-4.71-0.526-7.041 1.816-5.88 6.685-10.427 12.165-13.226 5.481-2.799 11.589-4.078 17.618-5.312l2.889 0.503c-0.048 0.297-0.114 0.591-0.167 0.886-1.961-0.867-4.341-0.902-6.656-0.243" fill="#b2cdc1"/></g><g transform="translate(122.04 238.99)"><path d="m0 0c-0.307 3.693-2.555 7.171-5.797 8.967-0.311 0.172-0.638 0.321-0.971 0.449 2.369-6.713 3.633-14.163-0.255-20.395-1.238-1.985-3.264-2.552-5.07-2.052 0.563-1.649 1.224-3.259 2.049-4.794l1.784-0.454c1.728 2.939 3.874 5.618 5.575 8.572 1.702 2.955 2.967 6.309 2.685 9.707" fill="#b2cdc1"/></g><g transform="translate(103.29 208.17)"><path d="m0 0c-1.27 0.976-2.416 2.203-3.093 3.64-0.677-0.352-1.334-0.741-1.949-1.202-0.579-0.434-1.158-0.973-1.284-1.686-0.122-0.692 0.217-1.385 0.639-1.946 1.471-1.958 3.999-2.912 6.447-2.969 2.077-0.047 4.115 0.476 6.08 1.177-2.414 0.464-4.725 1.36-6.84 2.986" fill="#b2cdc1"/></g><g transform="translate(135.44 219.19)"><path d="m0 0c1.87 0.46 3.788 0.386 5.596-0.102-0.715 1.98-1.898 3.831-3.705 4.873-0.503 0.29-1.102 0.514-1.656 0.34-0.461-0.145-0.796-0.538-1.08-0.928-1.196-1.65-1.924-3.572-2.285-5.58 0.903 0.621 1.945 1.106 3.13 1.397" fill="#b2cdc1"/></g></g><g transform="translate(266.07 164.71)"><path d="m0 0c12.717 6.778 19.616 15.167 24.133 28.851 1.071 3.244 1.653 7.313-0.845 9.642-2.678 2.497-7.027 1.289-10.252-0.442-5.922-3.179-11.134-7.671-15.152-13.06-5.168-6.932-9.5-16.122-18.013-17.638-0.777-0.139-1.622-0.193-2.312 0.189-2.084 1.155-0.732 4.293 0.586 6.277 2.416 3.636 3.988 7.829 4.557 12.158 0.103 0.782 0.167 1.607-0.145 2.332-0.454 1.052-1.603 1.637-2.724 1.878-4.076 0.88-8.049-1.665-11.292-4.285-8.261-6.677-19.736-17.756-25.426-26.726" fill="#b2cdc1"/></g><g transform="translate(195.74 266.82)"><path d="m0 0c5.946 3.163 10.865 8.223 13.858 14.256 1.429 2.878 2.44 6.093 2.023 9.279-0.234 1.786-1.339 3.819-3.14 3.803-1.303-0.012-2.311-1.106-3.103-2.14-5.611-7.33-9.152-16.226-10.115-25.406" fill="#b2cdc1"/></g><g transform="translate(250.42 224.81)"><path d="m0 0c6.028 1.234 12.137 2.514 17.617 5.312 5.481 2.799 10.35 7.346 12.166 13.226 0.719 2.33 0.882 5.049-0.526 7.041-1.773 2.507-5.335 2.951-8.375 2.525-6.441-0.904-12.287-4.702-16.336-9.792-4.048-5.088-6.395-11.387-7.435-17.808" fill="#b2cdc1"/></g><g transform="translate(240.96 221.17)"><path d="m0 0c1.766 3.288 2.848 6.902 3.615 10.555 1.039 4.949 1.391 10.541-1.577 14.634-0.892 1.229-2.187 2.318-3.704 2.365-0.908 0.028-1.787-0.322-2.582-0.762-3.242-1.796-5.49-5.273-5.796-8.967-0.283-3.398 0.982-6.752 2.684-9.707 1.702-2.954 3.848-5.633 5.575-8.573" fill="#b2cdc1"/></g><g transform="translate(231.91 211.98)"><path d="m0 0c3.835 0.893 7.708 1.789 11.645 1.83 3.938 0.042 8.001-0.842 11.151-3.203 0.58-0.435 1.159-0.974 1.285-1.687 0.122-0.692-0.217-1.384-0.639-1.946-1.472-1.958-4-2.912-6.447-2.969-2.449-0.055-4.846 0.68-7.129 1.566-3.091 1.198-6.239 2.837-7.918 5.696" fill="#b2cdc1"/></g><g transform="translate(218.05 201.79)"><path d="m0 0c1.22 3.544 2.45 7.129 2.793 10.861 0.344 3.732-0.28 7.684-2.481 10.717-0.284 0.391-0.618 0.783-1.079 0.929-0.554 0.174-1.153-0.051-1.656-0.341-2.074-1.194-3.327-3.455-3.992-5.754-1.674-5.792-2e-3 -12.428 4.218-16.734" fill="#b2cdc1"/></g><g transform="translate(270.26 246.12)"><path d="m0 0c-0.975-3.993-3.73-7.066-6.769-9.689-3.019-2.607-6.286-4.95-9.494-7.317-6.444-4.758-13.003-9.357-19.519-14.015-12.847-9.182-25.643-18.621-36.786-29.866-6.182-6.238-11.803-13.032-16.537-20.437-0.485-0.759 0.722-1.459 1.204-0.704 8.632 13.501 20.214 24.722 32.646 34.711 12.588 10.115 26.049 19.065 39.048 28.63 3.521 2.589 7.114 5.153 10.424 8.011 3.216 2.777 6.098 6.087 7.128 10.305 0.213 0.872-1.132 1.244-1.345 0.371" fill="#b2cdc1"/></g><g clip-path="url(#clipPath197-9)"><g transform="translate(197.99 275.79)"><path d="M 0,0 C -0.578,-1.346 -1.227,-2.655 -1.893,-3.955 -1.046,0.008 0.28,3.868 2.041,7.519 2.726,5.795 0.465,1.084 0,0" fill="#b2cdc1"/></g></g><g clip-path="url(#clipPath213-7)"><g transform="translate(208.69 284.63)"><path d="m0 0c-0.038 3.119-1.804 5.248-4.145 6.269 0.272 0.377 0.546 0.754 0.829 1.124 0.793 1.034 1.8 2.128 3.103 2.14 1.802 0.016 2.907-2.017 3.14-3.804 0.417-3.186-0.594-6.4-2.022-9.278-0.729-1.47-1.574-2.88-2.518-4.22 1.036 2.483 1.645 5.1 1.613 7.769" fill="#b2cdc1"/></g></g><g clip-path="url(#clipPath229-6)"><g transform="translate(245.35 180.42)"><path d="m0 0c-1.275 4.849-5.306 9.037-10.062 10.737 3.111 2.417 6.818 4.569 10.614 3.75 1.121-0.242 2.27-0.827 2.724-1.881 0.312-0.723 0.247-1.548 0.145-2.33-0.474-3.601-1.65-7.104-3.421-10.276" fill="#b2cdc1"/></g><g transform="translate(266.64 169.52)"><path d="m0 0c4.67 5.317 9.259 10.971 12.736 17.157 2.292 4.078 4.822 9.339 3.259 14.104-0.378 1.152-0.935 2.11-1.617 2.885 2.884 1.158 6.164 1.576 8.34-0.454 2.498-2.329 1.916-6.398 0.845-9.642-4.517-13.684-11.416-22.072-24.133-28.851l-3.751-0.053c1.503 1.609 2.934 3.274 4.321 4.854" fill="#b2cdc1"/></g><g transform="translate(254.36 225.95)"><path d="m0 0c8.801 2.505 17.761 12.699 19.756 21.548 0.416 1.841 0.523 3.694 0.371 5.484 2.069-0.199 4.024-0.942 5.196-2.599 1.408-1.993 1.245-4.71 0.526-7.041-1.816-5.88-6.685-10.427-12.166-13.226-5.48-2.799-11.589-4.078-17.617-5.312l-2.889 0.503c0.048 0.297 0.114 0.591 0.167 0.886 1.961-0.867 4.341-0.902 6.656-0.243" fill="#b2cdc1"/></g><g transform="translate(230.92 238.99)"><path d="m0 0c0.307 3.693 2.554 7.171 5.796 8.967 0.311 0.172 0.639 0.321 0.972 0.449-2.369-6.713-3.633-14.163 0.255-20.395 1.238-1.985 3.264-2.552 5.07-2.052-0.563-1.649-1.224-3.259-2.049-4.794l-1.784-0.454c-1.728 2.939-3.874 5.618-5.575 8.572-1.702 2.955-2.967 6.309-2.685 9.707" fill="#b2cdc1"/></g><g transform="translate(249.67 208.17)"><path d="m0 0c1.27 0.976 2.416 2.203 3.093 3.64 0.677-0.352 1.334-0.741 1.949-1.202 0.58-0.434 1.159-0.973 1.285-1.686 0.121-0.692-0.217-1.385-0.64-1.946-1.471-1.958-3.999-2.912-6.447-2.969-2.076-0.047-4.115 0.476-6.08 1.177 2.414 0.464 4.726 1.36 6.84 2.986" fill="#b2cdc1"/></g><g transform="translate(217.52 219.19)"><path d="m0 0c-1.87 0.46-3.788 0.386-5.595-0.102 0.714 1.98 1.897 3.831 3.704 4.873 0.503 0.29 1.103 0.514 1.657 0.34 0.46-0.145 0.795-0.538 1.079-0.928 1.197-1.65 1.924-3.572 2.285-5.58-0.903 0.621-1.945 1.106-3.13 1.397" fill="#b2cdc1"/></g></g><g clip-path="url(#clipPath265-9)" opacity=".51"><g transform="translate(110.39 263.44)"><path d="m0 0c0 1.195-0.969 2.164-2.164 2.164s-2.164-0.969-2.164-2.164 0.969-2.164 2.164-2.164 2.164 0.969 2.164 2.164" fill="#b2cdc1"/></g><g transform="translate(64.013 214.9)"><path d="m0 0c0 1.707-1.384 3.092-3.092 3.092-1.707 0-3.091-1.385-3.091-3.092 0-1.708 1.384-3.092 3.091-3.092 1.708 0 3.092 1.384 3.092 3.092" fill="#b2cdc1"/></g><g transform="translate(100.49 334.55)"><path d="m0 0c0 3.073-2.491 5.565-5.564 5.565-3.074 0-5.565-2.492-5.565-5.565 0-3.074 2.491-5.565 5.565-5.565 3.073 0 5.564 2.491 5.564 5.565" fill="#b2cdc1"/></g><g transform="translate(211.79 320.63)"><path d="m0 0c0 1.366-1.107 2.474-2.473 2.474s-2.473-1.108-2.473-2.474 1.107-2.473 2.473-2.473 2.473 1.107 2.473 2.473" fill="#b2cdc1"/></g><g transform="translate(296.5 219.54)"><path d="m0 0c0 2.22-1.8 4.02-4.02 4.02-2.219 0-4.018-1.8-4.018-4.02s1.799-4.019 4.018-4.019c2.22 0 4.02 1.799 4.02 4.019" fill="#b2cdc1"/></g><g transform="translate(249.82 269.31)"><path d="m0 0c0 0.854-0.692 1.546-1.546 1.546-0.853 0-1.546-0.692-1.546-1.546s0.693-1.545 1.546-1.545c0.854 0 1.546 0.691 1.546 1.545" fill="#b2cdc1"/></g><g transform="translate(181.49 374.74)"><path d="m0 0c0 2.391-1.938 4.328-4.328 4.328-2.391 0-4.329-1.937-4.329-4.328 0-2.39 1.938-4.328 4.329-4.328 2.39 0 4.328 1.938 4.328 4.328" fill="#b2cdc1"/></g></g><g transform="translate(246.57 333.33)"><path d="m0 0c6.523-0.134 11.92 5.044 12.055 11.568 0.135 6.523-5.044 11.92-11.567 12.055-6.524 0.135-11.921-5.044-12.055-11.567-0.135-6.524 5.044-11.921 11.567-12.056z" fill="none" stroke="#b2cdc1" stroke-miterlimit="10" stroke-width=".789"/></g><g transform="translate(237.82 354.78)"><path d="m0 0c-4.682 2.198-4.423-0.373-4.226-1.694 0.087-0.582 0.43-1.09 0.778-1.565 4.881-6.639 12.417-10.787 20.001-14.012 1.841-0.782 3.947-1.525 5.781-0.729 0.38 0.165 0.746 0.405 0.952 0.764 0.597 1.04-0.402 2.249-1.313 3.03" fill="none" stroke="#b2cdc1" stroke-miterlimit="10" stroke-width=".789"/></g><g transform="translate(93.992 291.39)"><path d="m0 0c0.106 5.146-3.979 9.405-9.126 9.511-5.147 0.107-9.405-3.98-9.512-9.126-0.106-5.147 3.98-9.405 9.127-9.511 5.147-0.107 9.405 3.98 9.511 9.126z" fill="none" stroke="#b2cdc1" stroke-miterlimit="10" stroke-width=".623"/></g><g transform="translate(77.068 284.48)"><path d="m0 0c-1.734-3.693 0.294-3.489 1.336-3.334 0.46 0.069 0.861 0.339 1.235 0.614 5.239 3.851 8.512 9.797 11.055 15.78 0.617 1.452 1.203 3.114 0.575 4.562-0.129 0.299-0.319 0.587-0.602 0.75-0.821 0.472-1.775-0.317-2.391-1.036" fill="none" stroke="#b2cdc1" stroke-miterlimit="10" stroke-width=".623"/></g><g transform="translate(199.61 185.31)"><path d="m0 0-0.943-5.865-43.406-5.406-3.609 8.368z" fill="#ffa288"/></g><g transform="translate(267.39 207.82)"><path d="m0 0c-0.259-1.021 0.866-1.469 3.006-2.08 1.747-2.446-3.844-3.494-3.844-3.494l-4.717-0.175s-1.747 0-0.699 2.445c1.048 2.447 1.15 1.913 2.621 2.097 1.398 0.175 4.995 0.504 3.669 2.271-0.524 0.7-3.812 1.922-5.765 1.922-0.758 0-3.146-2.621-4.543-4.018-1.26-1.26-2.737-5.416-2.737-5.416-21.431-4.658-33.66 1.456-33.66 1.456-3.062 9.349-7.069 56.862-23.425 54.569-3.065-0.43-9.461-10.444-8.487-19.771 0.312-14.807 8.702-29.374 12.228-49.357 2.446-13.86 38.377-2.038 57.478 1.223 0 0 29.875 4.542 29.352 7.163-0.524 2.62-13.453 0.35-13.453 0.35s14.326-0.175 13.976 2.27c-0.349 2.446-16.597 0.175-16.597 0.175l2.126 1.641c0.713 0.55 0.995 1.496 0.7 2.346l-1.153 3.328c-0.241 0.697-0.827 1.213-1.549 1.36-0.819 0.166-1.819 0.486-2.607 0.705-0.804 0.224-1.714-0.2-1.92-1.01" fill="#ffa288"/></g><g transform="translate(191.59 320.79)"><path d="m0 0c4.304 12.162-2.001 23.479-13.5 26.336-18.569 4.615-17.22 3.814-24.914 23.235-4.176 10.542-12.332 19.452-22.464 24.542-5.108 2.566-11.16 4.175-16.516 2.182-18.099-6.734 0.791-16.535 6.502-21.344 0.903-0.76 1.827-1.655 2.006-2.821 0.147-0.956-0.245-1.92-0.783-2.723-2.873-4.286-8.948-4.554-14.108-4.53s-11.33-0.702-13.67-5.3c-2.2-4.325 0.442-9.614 3.914-13.004 3.471-3.39 7.866-5.948 10.439-10.063 2.554-4.084 2.941-9.102 3.51-13.885 2.879-24.203 12.547-43.532 38.883-48.08 18.479-3.191 41.842 5.024 41.194 27.177" fill="#3e1c1a"/></g><g transform="translate(191.39 324.94)"><path d="m0 0c3.455-2.171 5.123 4.632 5.587 6.614 1.048 4.477 1.305 9.326-0.238 13.724-1.224 3.489-3.523 6.702-6.715 8.638-3.367 2.042-7.294 2.182-11.1 1.677-4.311-0.572-8.593-1.918-12.978-1.705-4.458 0.217-8.103 2.578-10.381 6.378-4.984 8.318-2.419 18.471-5.39 27.366-2.776 8.311-9.974 14.838-18.479 16.877-0.493 0.118-0.703-0.642-0.209-0.76 7.508-1.8 13.95-7.163 17.107-14.214 3.66-8.172 1.539-17.493 4.511-25.837 1.113-3.126 2.877-6.116 5.571-8.128 2.91-2.174 6.511-2.702 10.056-2.407 7.633 0.634 16.239 4.522 22.82-1.358 3.588-3.206 5.331-7.922 5.476-12.657 0.082-2.717-0.307-5.426-0.976-8.055-0.368-1.446-1.723-7.07-4.264-5.472-0.431 0.27-0.827-0.411-0.398-0.681" fill="#3e1c1a"/></g><g transform="translate(168.85 279.61)"><path d="m0 0c-8.717-9.049-22.623-11.773-33.998-6.327-5.334 2.554-9.914 6.651-12.905 11.765-3.25 5.559-4.552 11.97-4.767 18.349-0.247 7.323 0.807 14.617 1.948 21.83 0.078 0.496-0.681 0.71-0.76 0.209-2.036-12.875-4.131-27.25 2.107-39.344 5.673-11.001 18.061-17.723 30.379-16.241 7.022 0.845 13.645 4.107 18.554 9.201 0.351 0.366-0.205 0.924-0.558 0.558" fill="#3e1c1a"/></g><g transform="translate(161.07 305.81)"><path d="m0 0c-0.098-0.438-0.534-0.711-0.969-0.598-1.817 0.47-5.918 1.924-7.72-2.686-1.822-4.66 2.076-8.532 4.797-9.383 0.786-0.246 2.582-0.875 2.973-1.6 1.201-2.226 0.979-6.368 1.008-11.609 0.063-11.576-3.971-21.748-3.971-21.748s22.518-14.889 25.812-0.802c0 0-0.1 27.171 0.065 27.269 2.784 1.657 12.672 0.671 11.918 20.431-0.7 18.305-13.502 20.265-16.821 20.509-2.8 0.205-12.253 1.984-17.092-19.783" fill="#ffa288"/></g><g transform="translate(154.1 300.62)"><path d="m0 0s4.391 5.307 5.968-3.699" fill="#d66956"/></g><g clip-path="url(#clipPath349-9)" opacity=".63"><g transform="translate(176.88 301.78)"><path d="m0 0c2.374-0.546 3.854-2.913 3.309-5.286-0.546-2.373-2.913-3.855-5.286-3.309-2.374 0.546-3.855 2.913-3.309 5.286s2.913 3.855 5.286 3.309" fill="#e7786b"/></g></g><g clip-path="url(#clipPath365-0)" opacity=".63"><g transform="translate(194.28 295.66)"><path d="m0 0c-1.866 0.852-2.94 2.923-2.463 5 0.368 1.601 1.565 2.795 3.033 3.236 0 0 0.625-5.192-0.57-8.236" fill="#e7786b"/></g></g><g transform="translate(183.91 297.59)"><path d="m0 0s1.379-2.222 4.465-1.698c2.011 0.341 3.008 2.441 3.008 2.441" fill="none" stroke="#000" stroke-linecap="round" stroke-miterlimit="10" stroke-width=".525"/></g><g transform="translate(187.61 302.08)"><path d="m0 0-0.621-3.364 1.777 0.028c0.328 5e-3 0.531 0.359 0.369 0.645z" fill="#d66956"/></g><g transform="translate(180.1 307.6)"><path d="m0 0c-0.766-0.646 0.261 2.027 1.351 2.425 1.089 0.398 2.252-0.043 2.595-0.984 0 0-2.107 0.112-3.946-1.441"/></g><g transform="translate(192.86 309.01)"><path d="m0 0c0.868-0.5-0.618 1.948-1.76 2.146-1.144 0.198-2.209-0.442-2.38-1.429 0 0 2.054 0.484 4.14-0.717"/></g><g transform="translate(183.99 284.91)"><path d="m0 0s-5.245-0.394-9.277 0.912c2.238-6.055 7.11-5.668 9.277-0.912" fill="#d66956"/></g><g transform="translate(190.58 328.82)"><path d="m0 0c10.371-5.332 5.479-18.26 5.479-18.26-5.007-0.611-10.132 6.362-11.584 11.192l-0.471 1.567c0.375-5.842-3.236-11.202-8.79-13.049l-9.924-3.3 3.043 11.449-4.77-13.45-6.988 2.097s9.82 34.188 34.005 21.754" fill="#3e1c1a"/></g><g transform="translate(182.43 301.6)"><path d="m0 0c1.01-0.347 2.209-0.709 3.082 0.34" fill="none" stroke="#000" stroke-linecap="round" stroke-miterlimit="10" stroke-width=".525"/></g><g transform="translate(189.19 302.19)"><path d="m0 0c1.01-0.347 2.209-0.709 3.082 0.34" fill="none" stroke="#000" stroke-linecap="round" stroke-miterlimit="10" stroke-width=".525"/></g><g transform="translate(184.18 269.16)"><path d="m0 0s21.664 4.018 27.254-30.924l-25.158-4.192z" fill="#6e7dd6"/></g><g clip-path="url(#clipPath417-8)" opacity=".58"><g transform="translate(199.74 254.46)"><path d="m0 0c-4.67 5.012-10.132 8.802-15.453 12.925l1.991-33.347 25.158 4.192c-0.067 0.417-0.147 0.802-0.218 1.208-3.467 5.274-7.163 10.393-11.478 15.022" fill="#6e7dd6"/></g></g><g transform="translate(183.65 269.33)"><path d="m0 0c11.356-5.59 20.685-33.4 21.131-45.979 0.449-12.674-0.69-32.988-0.69-32.988s-42.395-0.921-54.858-1.747c-6.85 20.865-7.732 56.1-3.495 72.212 0 0 6.845 5.052 12.812 7.687 0 0 18.134-23.784 25.1 0.815" fill="#6e7dd6"/></g><g clip-path="url(#clipPath437-4)" opacity=".58"><g transform="translate(145.16 258.34)"><path d="m0 0c-3.557-17.021-2.444-49.868 4.072-69.72 6.328 0.419 20.373 0.864 32.668 1.199-17.711 19.538-32.689 42.411-36.74 68.521" fill="#6e7dd6"/></g></g><g transform="translate(75.546 207.82)"><path d="m0 0c0.259-1.021-0.866-1.469-3.006-2.08-1.747-2.446 3.844-3.494 3.844-3.494l4.717-0.175s1.747 0 0.699 2.445c-1.048 2.447-1.15 1.913-2.621 2.097-1.398 0.175-4.994 0.504-3.669 2.271 0.524 0.7 3.812 1.922 5.766 1.922 0.757 0 3.145-2.621 4.542-4.018 1.26-1.26 2.737-5.416 2.737-5.416 21.431-4.658 33.66 1.456 33.66 1.456 3.062 9.349 7.069 56.862 23.425 54.569 3.065-0.43 9.461-10.444 8.487-19.771-0.312-14.807-8.701-29.374-12.227-49.357-2.447-13.86-38.378-2.038-57.479 1.223 0 0-29.875 4.542-29.352 7.163 0.525 2.62 13.453 0.35 13.453 0.35s-14.326-0.175-13.976 2.27c0.349 2.446 16.597 0.175 16.597 0.175l-2.126 1.641c-0.713 0.55-0.995 1.496-0.7 2.346l1.153 3.328c0.242 0.697 0.827 1.213 1.55 1.36 0.818 0.166 1.818 0.486 2.606 0.705 0.804 0.224 1.714-0.2 1.92-1.01" fill="#ffa288"/></g><g transform="translate(150.63 264.79)"><path d="m0 0c8.826-1.848 18.519-11.531 4.892-40.882l-30.399 10.482s10.482 33.545 25.507 30.4" fill="#6e7dd6"/></g><g transform="translate(152.5 189.32)"><path d="m0 0c-13.394-16.073-22.61-58.588-22.61-58.588l92.027 2.216s-5.299 41.755-22.188 57.246c-0.058-0.117-26.031 0.873-47.229-0.874" fill="#ffe8d8"/></g><g clip-path="url(#clipPath465-0)" opacity=".38"><g transform="translate(152.5 189.32)"><path d="m0 0c-13.394-16.073-22.61-58.588-22.61-58.588l92.027 2.216s-5.299 41.755-22.188 57.246c-0.058-0.117-26.031 0.873-47.229-0.874" fill="#d8c7bc"/></g></g><g clip-path="url(#clipPath481-5)" opacity=".31"><g transform="translate(134.31 254.19)"><path d="m0 0c1.129-2.34 2.719-4.377 4.402-6.323 1.687-1.947 3.446-3.857 5.009-5.964 1.507-2.153 2.694-4.575 3.174-7.183 0.228-1.3 0.281-2.643 0.058-3.947-0.244-1.295-0.753-2.55-1.568-3.565 1.367 2.236 1.494 4.945 0.916 7.391-0.577 2.466-1.714 4.799-3.219 6.844-1.471 2.094-3.233 3.993-4.835 6.04-1.601 2.038-3.108 4.234-3.937 6.707" fill="#fff"/></g><g transform="translate(128.38 246.26)"><path d="m0 0c1.083-0.888 2.048-1.911 2.933-3.002 0.893-1.085 1.667-2.266 2.36-3.488 0.678-1.233 1.276-2.511 1.731-3.841 0.462-1.325 0.827-2.685 1.013-4.073-0.503 1.304-1.005 2.592-1.576 3.847-0.577 1.252-1.178 2.488-1.856 3.683-0.66 1.204-1.396 2.364-2.157 3.514-0.768 1.144-1.601 2.248-2.448 3.36" fill="#fff"/></g><g transform="translate(146.05 263.05)"><path d="m0 0c0.501-2.312 0.92-4.636 1.49-6.914 0.57-2.273 1.241-4.523 2.264-6.613 0.963-2.109 2.299-4.045 3.93-5.692 1.629-1.644 3.621-2.961 5.877-3.683-2.346 0.404-4.522 1.631-6.295 3.245-1.785 1.62-3.171 3.637-4.224 5.795-0.995 2.184-1.69 4.486-2.142 6.818-0.453 2.334-0.72 4.686-0.9 7.044" fill="#fff"/></g><g transform="translate(158.72 191.72)"><path d="m0 0c0.499 2.665 1.183 5.299 2.058 7.875 0.896 2.567 1.99 5.069 3.28 7.472 2.582 4.799 6.04 9.159 10.24 12.675 4.238 3.466 9.239 6.014 14.561 7.285 2.659 0.627 5.392 0.949 8.12 0.907 2.726-0.065 5.439-0.489 8.029-1.297-2.625 0.684-5.337 0.976-8.03 0.912-2.693-0.039-5.376-0.423-7.972-1.11-5.195-1.368-10.092-3.862-14.206-7.303-4.162-3.4-7.552-7.687-10.215-12.361-1.338-2.339-2.481-4.79-3.448-7.312-0.988-2.514-1.793-5.105-2.417-7.743" fill="#fff"/></g><g transform="translate(205.81 210.58)"><path d="m0 0c-1.287 0.637-2.572 1.323-3.956 1.604-1.352 0.32-2.84 0.165-3.955-0.583-0.556-0.373-0.964-0.888-1.221-1.503-0.264-0.619-0.402-1.318-0.621-2.027-0.437-1.419-1.143-2.753-2.067-3.917-0.939-1.149-2.104-2.122-3.389-2.846-1.282-0.724-2.614-1.285-3.901-1.888-1.286-0.605-2.495-1.347-3.436-2.402-0.955-1.017-1.626-2.372-1.538-3.828-0.273 1.445 0.341 2.935 1.244 4.078 0.921 1.159 2.176 2.01 3.454 2.691 1.275 0.704 2.61 1.244 3.816 1.968 1.209 0.709 2.27 1.632 3.137 2.721 0.882 1.075 1.565 2.315 1.997 3.638 0.219 0.659 0.369 1.38 0.681 2.084 0.296 0.711 0.852 1.352 1.519 1.739 1.339 0.798 2.965 0.859 4.373 0.448 1.418-0.426 2.663-1.188 3.863-1.977" fill="#fff"/></g><g transform="translate(191.72 267.69)"><path d="m0 0c0.792-1.88 1.703-3.691 2.776-5.398 1.08-1.7 2.282-3.319 3.634-4.806 1.338-1.499 2.823-2.862 4.402-4.114 1.584-1.245 3.291-2.34 5.078-3.325-1.925 0.687-3.745 1.669-5.438 2.837-1.699 1.162-3.242 2.55-4.628 4.075-1.372 1.538-2.591 3.217-3.569 5.028-0.985 1.805-1.772 3.718-2.255 5.703" fill="#fff"/></g><g transform="translate(185.6 267.69)"><path d="m0 0c0.561-2.768 0.999-5.563 1.313-8.375 0.291-2.813 0.451-5.643 0.485-8.475 0.052-2.81-0.044-5.756-1.215-8.46-0.583-1.336-1.547-2.57-2.844-3.338-1.299-0.781-2.808-1.022-4.235-1.098-1.436-0.06-2.845 0.011-4.219-0.094-0.685-0.06-1.36-0.162-2.007-0.347-0.64-0.199-1.252-0.479-1.815-0.847-2.277-1.519-3.585-4.12-5.1-6.484-1.514-2.412-3.362-4.618-5.482-6.509-2.134-1.875-4.526-3.446-7.084-4.643 2.501 1.312 4.802 2.981 6.823 4.927 2.041 1.927 3.801 4.134 5.227 6.542 0.716 1.207 1.4 2.451 2.219 3.628 0.812 1.176 1.769 2.308 3 3.137 0.615 0.41 1.294 0.728 2 0.953 0.71 0.21 1.435 0.324 2.156 0.394 1.441 0.12 2.86 0.062 4.244 0.13 1.377 0.06 2.744 0.281 3.89 0.958 1.149 0.668 2.021 1.75 2.576 2.987 1.125 2.506 1.225 5.369 1.262 8.164 0.04 2.815-0.053 5.632-0.263 8.441-0.186 2.812-0.496 5.619-0.931 8.409" fill="#fff"/></g></g><g transform="translate(239.47 122.5)"><path d="m0 0c1.678 0.291-0.041 3.406-3.939 4.576-6.239 1.872-16.275 5.399-19.217 8.979-3.398 4.132-6.55 5.748-8.81 6.341-1.698 0.447-3.499 0.012-4.84-1.121-0.909-0.767-2.152-1.597-3.348-1.679-1.409-0.097-3.104 0.264-3.104 0.264l0.718-19.006s34.969 0.331 42.54 1.646" fill="#ffa288"/></g><g transform="translate(199.59 121.03)"><path d="m0 0s-116.92 1.712-117.73 31.954c-0.751 27.943 45.721 21.305 50.612 20.606 18.326-2.619 67.669-25.474 67.669-25.474z" fill="#ffe8d8"/></g><g clip-path="url(#clipPath529-1)" opacity=".28"><g transform="translate(168.45 161.71)"><path d="m0 0 30.749-12.929-0.659-27.842s-75.177 4.059-92.824 12.883z" fill="#d8c7bc"/></g></g><g transform="translate(188.84 121.29)"><path d="m0 0 3.353 31.06" fill="none" stroke="#fff" stroke-miterlimit="10" stroke-width="1.051"/></g><g transform="translate(163.21 122.58)"><path d="m0 0s111.96 3.819 108.67 33.894c-2.445 22.362-39.134 18-56.605 11.879-17.47-6.12-53.46-22.362-53.46-22.362z" fill="#ffe8d8"/></g><g transform="translate(121.06 122.52)"><path d="m0 0c-1.698 0.127-0.29 3.395 3.477 4.937 6.027 2.468 15.674 6.952 18.255 10.8 2.98 4.444 5.96 6.357 8.153 7.167 1.646 0.609 3.482 0.352 4.926-0.646 0.979-0.676 2.296-1.382 3.496-1.347 1.41 0.04 3.063 0.564 3.063 0.564l1.129-18.986s-34.836-3.064-42.499-2.489" fill="#ffa288"/></g><g transform="translate(167.87 148.32)"><path d="m0 0 2.329-24.343" fill="none" stroke="#fff" stroke-miterlimit="10" stroke-width="1.051"/></g><g clip-path="url(#clipPath561-5)" opacity=".31"><g transform="translate(613.51 230.99)"><path d="m0 0c-12.291 13.504-25.037 27.853-29.09 45.657-7.131 31.317 14.386 65.524 2.035 95.174-5.48 13.157-17.605 23.341-31.511 26.468-13.907 3.127-29.224-0.886-39.81-10.431-11.395-10.275-16.683-25.467-22.631-39.611-6.152-14.626-13.44-28.774-21.779-42.273-4.943-8.002-10.374-15.909-17.756-21.737-8.913-7.038-20.019-10.556-30.137-15.712-22.01-11.217-40.195-32.137-42.96-56.684-2.781-24.685 10.648-49.462 30.609-64.247 19.962-14.785 45.505-20.526 70.345-20.36 20.215 0.136 40.627 4.038 58.607 13.279 6.823 3.507 13.323 7.785 20.63 10.122 8.068 2.582 16.739 2.67 24.913 4.896 14.456 3.934 26.832 14.869 32.515 28.731 5.685 13.862 4.549 30.337-2.983 43.289" fill="#d8d3cf"/></g><g transform="translate(457.38 369.78)"><path d="m0 0c-8.393 11.673-8.142 28.836 0.588 40.259 3.758 4.916 9.704 8.975 15.785 7.826 3.91-0.738 7.162-3.521 9.521-6.726 5.843-7.935 6.975-19.089 2.845-28.037-4.13-8.947-13.351-15.322-23.181-16.025" fill="#d8d3cf"/></g><g transform="translate(638.22 226.67)"><path d="m0 0c-6.834 5.89-11.179 14.579-11.79 23.579-0.125 1.844-0.071 3.806 0.903 5.377 1.79 2.886 5.889 3.27 9.198 2.502 9.644-2.237 16.821-12.252 15.84-22.103-0.51-5.137-4.978-10.902-9.812-9.09" fill="#d8d3cf"/></g></g><g transform="translate(413.46 117.41)"><path d="m0 0c-13.053 6.956-20.133 15.566-24.769 29.611-1.099 3.33-1.697 7.506 0.867 9.897 2.749 2.562 7.212 1.323 10.522-0.453 6.078-3.263 11.428-7.874 15.551-13.405 5.306-7.115 9.752-16.547 18.49-18.104 0.797-0.142 1.664-0.197 2.373 0.195 2.138 1.186 0.75 4.405-0.603 6.443-2.479 3.731-4.092 8.036-4.677 12.478-0.105 0.802-0.171 1.65 0.149 2.393 0.467 1.08 1.646 1.68 2.796 1.928 4.183 0.903 8.261-1.709 11.59-4.398 8.479-6.854 20.256-18.225 26.096-27.431" fill="#b2cdc1"/></g><g transform="translate(499.96 194.95)"><path d="m0 0c-12.035 3.671-22.865 11.188-30.513 21.178-3.649 4.765-6.654 10.299-7.03 16.289-0.211 3.359 1.087 7.483 4.397 8.097 2.393 0.444 4.632-1.2 6.455-2.813 12.91-11.431 22.588-26.474 27.639-42.961" fill="#b2cdc1"/></g><g transform="translate(429.52 179.08)"><path d="m0 0c-6.187 1.267-12.457 2.581-18.082 5.453s-10.623 7.539-12.486 13.574c-0.739 2.392-0.906 5.183 0.54 7.227 1.819 2.573 5.475 3.028 8.596 2.591 6.61-0.927 12.61-4.825 16.766-10.049 4.155-5.224 6.564-11.689 7.631-18.278" fill="#b2cdc1"/></g><g transform="translate(439.23 175.35)"><path d="m0 0c-1.812 3.374-2.923 7.085-3.71 10.833-1.067 5.079-1.428 10.818 1.619 15.021 0.914 1.26 2.244 2.378 3.801 2.426 0.932 0.03 1.834-0.33 2.65-0.782 3.327-1.843 5.635-5.412 5.95-9.203 0.289-3.487-1.01-6.93-2.756-9.963-1.746-3.032-3.949-5.781-5.722-8.799" fill="#b2cdc1"/></g><g transform="translate(448.52 165.92)"><path d="m0 0c-3.937 0.916-7.911 1.836-11.952 1.878-4.041 0.043-8.212-0.863-11.445-3.287-0.596-0.446-1.19-0.999-1.319-1.732-0.125-0.71 0.222-1.421 0.656-1.998 1.51-2.008 4.105-2.988 6.617-3.046 2.513-0.057 4.973 0.698 7.317 1.607 3.172 1.229 6.403 2.912 8.126 5.846" fill="#b2cdc1"/></g><g transform="translate(462.74 155.47)"><path d="m0 0c-1.252 3.638-2.514 7.317-2.867 11.147-0.353 3.831 0.288 7.886 2.547 11 0.291 0.402 0.635 0.804 1.108 0.954 0.568 0.178 1.183-0.053 1.699-0.35 2.129-1.227 3.414-3.547 4.096-5.906 1.72-5.945 3e-3 -12.756-4.328-17.175" fill="#b2cdc1"/></g><g transform="translate(407.78 200.57)"><path d="m0 0c1.887-7.745 9.572-12.519 15.559-16.982 6.633-4.946 13.401-9.706 20.138-14.509 13.421-9.567 26.825-19.333 38.524-31.002 6.508-6.492 12.422-13.567 17.378-21.318 0.494-0.773 1.734-0.056 1.235 0.723-8.691 13.596-20.254 24.986-32.73 35.109-12.684 10.291-26.263 19.393-39.45 29.01-3.772 2.751-7.574 5.496-11.19 8.451-3.552 2.904-6.964 6.302-8.084 10.898-0.218 0.894-1.599 0.516-1.38-0.38" fill="#b2cdc1"/></g><g clip-path="url(#clipPath613-7)"><g transform="translate(434.72 133.52)"><path d="m0 0c1.309 4.976 5.446 9.274 10.327 11.021-3.193 2.48-6.997 4.688-10.893 3.847-1.151-0.248-2.33-0.848-2.796-1.929-0.321-0.743-0.255-1.59-0.149-2.392 0.486-3.697 1.694-7.292 3.511-10.547" fill="#b2cdc1"/></g><g transform="translate(412.87 122.33)"><path d="m0 0c-4.793 5.458-9.503 11.26-13.072 17.61-2.352 4.186-4.948 9.585-3.345 14.476 0.388 1.183 0.96 2.166 1.66 2.962-2.959 1.187-6.326 1.616-8.559-0.467-2.565-2.391-1.967-6.566-0.868-9.896 4.636-14.045 11.716-22.656 24.769-29.612l3.851-0.055c-1.543 1.651-3.012 3.361-4.436 4.982" fill="#b2cdc1"/></g><g transform="translate(492.63 210.58)"><path d="M 0,0 C 1.542,-2.262 3.199,-4.43 4.885,-6.575 1.914,0.389 -1.898,6.992 -6.434,13.055 -7.073,9.65 -1.241,1.821 0,0" fill="#b2cdc1"/></g><g transform="translate(469.84 222.96)"><path d="m0 0c-1.047 5.732 1.429 10.268 5.355 12.978-0.634 0.594-1.271 1.186-1.922 1.763-1.823 1.613-4.062 3.257-6.455 2.814-3.31-0.615-4.608-4.739-4.397-8.098 0.377-5.99 3.381-11.523 7.03-16.289 1.862-2.433 3.916-4.716 6.127-6.835-2.789 4.182-4.842 8.762-5.738 13.667" fill="#b2cdc1"/></g><g transform="translate(425.48 180.26)"><path d="m0 0c-9.033 2.571-18.229 13.034-20.278 22.116-0.426 1.89-0.536 3.791-0.38 5.629-2.123-0.204-4.13-0.967-5.333-2.668-1.445-2.044-1.278-4.835-0.539-7.226 1.863-6.036 6.861-10.703 12.486-13.575s11.894-4.186 18.082-5.453l2.964 0.518c-0.048 0.305-0.116 0.605-0.17 0.909-2.014-0.89-4.456-0.927-6.832-0.25" fill="#b2cdc1"/></g><g transform="translate(449.54 193.64)"><path d="m0 0c-0.315 3.791-2.622 7.36-5.95 9.203-0.319 0.177-0.654 0.33-0.997 0.461 2.432-6.89 3.729-14.535-0.261-20.933-1.271-2.036-3.35-2.619-5.204-2.106 0.578-1.691 1.257-3.345 2.102-4.92l1.832-0.467c1.773 3.018 3.976 5.767 5.723 8.799 1.746 3.033 3.045 6.476 2.755 9.963" fill="#b2cdc1"/></g><g transform="translate(430.29 162.01)"><path d="m0 0c-1.304 1.001-2.48 2.261-3.175 3.736-0.694-0.362-1.369-0.76-2-1.233-0.595-0.446-1.189-0.999-1.318-1.732-0.126-0.709 0.222-1.42 0.656-1.998 1.51-2.008 4.105-2.988 6.617-3.045 2.131-0.049 4.224 0.489 6.24 1.207-2.478 0.476-4.85 1.397-7.02 3.065" fill="#b2cdc1"/></g><g transform="translate(463.29 173.32)"><path d="m0 0c1.919 0.472 3.888 0.396 5.743-0.105-0.733 2.033-1.948 3.932-3.803 5.001-0.516 0.297-1.131 0.529-1.699 0.35-0.473-0.149-0.817-0.552-1.108-0.953-1.228-1.693-1.975-3.666-2.346-5.729 0.927 0.639 1.997 1.137 3.213 1.436" fill="#b2cdc1"/></g></g><g transform="translate(597.36 117.41)"><path d="m0 0c13.053 6.956 20.133 15.566 24.77 29.611 1.098 3.33 1.696 7.506-0.869 9.897-2.748 2.562-7.211 1.323-10.521-0.453-6.078-3.263-11.428-7.874-15.552-13.405-5.305-7.115-9.751-16.547-18.488-18.104-0.798-0.142-1.665-0.197-2.373 0.195-2.139 1.186-0.751 4.405 0.601 6.443 2.48 3.731 4.093 8.036 4.677 12.478 0.106 0.802 0.172 1.65-0.148 2.393-0.467 1.08-1.646 1.68-2.796 1.928-4.183 0.903-8.262-1.709-11.589-4.398-8.48-6.854-20.258-18.225-26.098-27.431" fill="#b2cdc1"/></g><g transform="translate(525.18 222.21)"><path d="m0 0c6.104 3.246 11.151 8.439 14.225 14.632 1.465 2.954 2.503 6.254 2.075 9.523-0.239 1.834-1.374 3.921-3.223 3.904-1.338-0.013-2.372-1.135-3.184-2.197-5.759-7.522-9.394-16.653-10.382-26.075" fill="#b2cdc1"/></g><g transform="translate(581.3 179.08)"><path d="m0 0c6.187 1.267 12.457 2.581 18.082 5.453s10.622 7.539 12.486 13.574c0.739 2.392 0.906 5.183-0.54 7.227-1.819 2.573-5.474 3.028-8.595 2.591-6.611-0.927-12.612-4.825-16.767-10.049s-6.564-11.689-7.631-18.278" fill="#b2cdc1"/></g><g transform="translate(571.59 175.35)"><path d="m0 0c1.812 3.374 2.923 7.085 3.71 10.833 1.067 5.079 1.428 10.818-1.619 15.021-0.914 1.26-2.244 2.378-3.801 2.426-0.932 0.03-1.834-0.33-2.65-0.782-3.327-1.843-5.635-5.412-5.95-9.203-0.289-3.487 1.009-6.93 2.756-9.963 1.746-3.032 3.95-5.781 5.722-8.799" fill="#b2cdc1"/></g><g transform="translate(562.3 165.92)"><path d="m0 0c3.937 0.916 7.911 1.836 11.952 1.878 4.041 0.043 8.211-0.863 11.445-3.287 0.595-0.446 1.19-0.999 1.319-1.732 0.125-0.71-0.223-1.421-0.656-1.998-1.51-2.008-4.105-2.988-6.618-3.046-2.512-0.057-4.972 0.698-7.315 1.607-3.173 1.229-6.404 2.912-8.127 5.846" fill="#b2cdc1"/></g><g transform="translate(548.07 155.47)"><path d="m0 0c1.253 3.638 2.515 7.317 2.867 11.147 0.353 3.831-0.288 7.886-2.547 11-0.291 0.402-0.634 0.804-1.107 0.954-0.568 0.178-1.184-0.053-1.7-0.35-2.128-1.227-3.413-3.547-4.096-5.906-1.72-5.945-3e-3 -12.756 4.328-17.175" fill="#b2cdc1"/></g><g transform="translate(601.66 200.95)"><path d="m0 0c-0.99-4.062-3.781-7.2-6.868-9.876-3.115-2.701-6.494-5.12-9.809-7.567-6.606-4.877-13.329-9.592-20.009-14.367-13.172-9.414-26.292-19.09-37.725-30.611-6.373-6.422-12.167-13.419-17.043-21.047-0.497-0.778 0.741-1.497 1.236-0.722 8.843 13.833 20.706 25.336 33.441 35.574 12.949 10.41 26.8 19.618 40.174 29.459 3.579 2.634 7.227 5.239 10.597 8.138 3.327 2.864 6.323 6.277 7.387 10.639 0.218 0.895-1.162 1.276-1.381 0.38" fill="#b2cdc1"/></g><g clip-path="url(#clipPath685-8)"><g transform="translate(527.48 231.41)"><path d="m0 0c-0.593-1.382-1.259-2.726-1.942-4.06 0.869 4.068 2.23 8.03 4.037 11.777 0.703-1.769-1.617-6.605-2.095-7.717" fill="#b2cdc1"/></g></g><g clip-path="url(#clipPath701-3)"><g transform="translate(538.47 240.48)"><path d="m0 0c-0.038 3.201-1.852 5.386-4.254 6.434 0.28 0.387 0.561 0.774 0.852 1.153 0.812 1.062 1.846 2.184 3.184 2.197 1.849 0.017 2.984-2.07 3.223-3.904 0.428-3.27-0.609-6.569-2.075-9.524-0.748-1.507-1.617-2.955-2.585-4.331 1.064 2.549 1.688 5.236 1.655 7.975" fill="#b2cdc1"/></g></g><g clip-path="url(#clipPath717-9)"><g transform="translate(576.1 133.52)"><path d="m0 0c-1.31 4.976-5.446 9.274-10.327 11.021 3.192 2.48 6.997 4.688 10.893 3.847 1.151-0.248 2.33-0.848 2.796-1.929 0.321-0.743 0.254-1.59 0.149-2.392-0.486-3.697-1.694-7.292-3.511-10.547" fill="#b2cdc1"/></g><g transform="translate(597.95 122.33)"><path d="m0 0c4.793 5.458 9.503 11.26 13.071 17.61 2.353 4.186 4.95 9.585 3.345 14.476-0.388 1.183-0.96 2.166-1.659 2.962 2.96 1.187 6.326 1.616 8.559-0.467 2.565-2.391 1.967-6.566 0.869-9.896-4.637-14.045-11.717-22.656-24.77-29.612l-3.851-0.055c1.543 1.651 3.012 3.361 4.436 4.982" fill="#b2cdc1"/></g><g transform="translate(585.34 180.26)"><path d="m0 0c9.033 2.571 18.229 13.034 20.277 22.116 0.426 1.89 0.536 3.791 0.381 5.629 2.122-0.204 4.13-0.967 5.332-2.668 1.446-2.044 1.279-4.835 0.54-7.226-1.864-6.036-6.861-10.703-12.486-13.575s-11.895-4.186-18.082-5.453l-2.965 0.518c0.049 0.305 0.116 0.605 0.171 0.909 2.013-0.89 4.455-0.927 6.832-0.25" fill="#b2cdc1"/></g><g transform="translate(561.28 193.64)"><path d="m0 0c0.314 3.791 2.622 7.36 5.949 9.203 0.32 0.177 0.655 0.33 0.997 0.461-2.43-6.89-3.728-14.535 0.262-20.933 1.271-2.036 3.35-2.619 5.204-2.106-0.578-1.691-1.257-3.345-2.102-4.92l-1.832-0.467c-1.773 3.018-3.976 5.767-5.722 8.799-1.747 3.033-3.045 6.476-2.756 9.963" fill="#b2cdc1"/></g><g transform="translate(580.53 162.01)"><path d="m0 0c1.304 1.001 2.479 2.261 3.175 3.736 0.694-0.362 1.369-0.76 2-1.233 0.595-0.446 1.189-0.999 1.318-1.732 0.125-0.709-0.222-1.42-0.656-1.998-1.51-2.008-4.105-2.988-6.617-3.045-2.131-0.049-4.224 0.489-6.241 1.207 2.478 0.476 4.851 1.397 7.021 3.065" fill="#b2cdc1"/></g><g transform="translate(547.53 173.32)"><path d="m0 0c-1.919 0.472-3.889 0.396-5.743-0.105 0.733 2.033 1.947 3.932 3.802 5.001 0.516 0.297 1.131 0.529 1.7 0.35 0.472-0.149 0.816-0.552 1.107-0.953 1.229-1.693 1.976-3.666 2.346-5.729-0.927 0.639-1.996 1.137-3.212 1.436" fill="#b2cdc1"/></g></g><g clip-path="url(#clipPath753-3)" opacity=".51"><g transform="translate(437.57 218.74)"><path d="m0 0c0 1.227-0.995 2.222-2.221 2.222-1.227 0-2.221-0.995-2.221-2.222s0.994-2.221 2.221-2.221c1.226 0 2.221 0.994 2.221 2.221" fill="#b2cdc1"/></g><g transform="translate(389.98 168.92)"><path d="m0 0c0 1.752-1.421 3.173-3.173 3.173-1.753 0-3.173-1.421-3.173-3.173 0-1.753 1.42-3.174 3.173-3.174 1.752 0 3.173 1.421 3.173 3.174" fill="#b2cdc1"/></g><g transform="translate(427.42 291.72)"><path d="m0 0c0 3.155-2.557 5.712-5.711 5.712-3.155 0-5.712-2.557-5.712-5.712 0-3.154 2.557-5.711 5.712-5.711 3.154 0 5.711 2.557 5.711 5.711" fill="#b2cdc1"/></g><g transform="translate(541.65 277.44)"><path d="m0 0c0 1.402-1.137 2.539-2.539 2.539-1.401 0-2.538-1.137-2.538-2.539s1.137-2.539 2.538-2.539c1.402 0 2.539 1.137 2.539 2.539" fill="#b2cdc1"/></g><g transform="translate(628.59 173.68)"><path d="m0 0c0 2.278-1.847 4.126-4.125 4.126s-4.125-1.848-4.125-4.126c0-2.277 1.847-4.125 4.125-4.125s4.125 1.848 4.125 4.125" fill="#b2cdc1"/></g><g transform="translate(580.68 224.77)"><path d="m0 0c0 0.876-0.711 1.586-1.587 1.586s-1.586-0.71-1.586-1.586c0-0.877 0.71-1.587 1.586-1.587s1.587 0.71 1.587 1.587" fill="#b2cdc1"/></g><g transform="translate(510.55 332.97)"><path d="m0 0c0 2.453-1.989 4.442-4.442 4.442-2.454 0-4.443-1.989-4.443-4.442 0-2.454 1.989-4.443 4.443-4.443 2.453 0 4.442 1.989 4.442 4.443" fill="#b2cdc1"/></g></g><g transform="translate(413.72 271.92)"><path d="m0 0c0 8.913-7.226 16.138-16.139 16.138-8.912 0-16.138-7.225-16.138-16.138s7.226-16.138 16.138-16.138c8.913 0 16.139 7.225 16.139 16.138z" fill="none" stroke="#d8d3cf" stroke-miterlimit="10" stroke-width="1.078"/></g><g transform="translate(384.67 259.37)"><path d="m0 0c-2.869-6.456 0.635-6.031 2.433-5.724 0.793 0.135 1.477 0.618 2.115 1.107 8.931 6.853 14.384 17.263 18.573 27.711 1.017 2.536 1.972 5.434 0.833 7.917-0.235 0.514-0.574 1.006-1.07 1.278-1.437 0.786-3.061-0.613-4.101-1.879" fill="none" stroke="#d8d3cf" stroke-miterlimit="10" stroke-width="1.078"/></g><g transform="translate(596.87 305.05)"><path d="m0 0c6.695-0.139 12.234 5.177 12.373 11.873 0.139 6.695-5.178 12.234-11.872 12.373-6.695 0.138-12.235-5.178-12.373-11.873-0.139-6.695 5.177-12.235 11.872-12.373z" fill="none" stroke="#d8d3cf" stroke-miterlimit="10" stroke-width=".81"/></g><g transform="translate(587.89 327.07)"><path d="m0 0c-4.805 2.255-4.539-0.383-4.337-1.739 0.089-0.597 0.441-1.119 0.799-1.606 5.009-6.815 12.744-11.072 20.527-14.381 1.89-0.803 4.052-1.566 5.935-0.749 0.389 0.169 0.764 0.416 0.976 0.784 0.614 1.068-0.413 2.309-1.347 3.11" fill="none" stroke="#d8d3cf" stroke-miterlimit="10" stroke-width=".81"/></g><g transform="translate(440.62 239.64)"><path d="m0 0c0 1.584-1.285 2.869-2.869 2.869-1.585 0-2.869-1.285-2.869-2.869 0-1.585 1.284-2.869 2.869-2.869 1.584 0 2.869 1.284 2.869 2.869" fill="#d8d3cf"/></g><g transform="translate(452.81 343.65)"><path d="m0 0c0 2.971-2.408 5.379-5.379 5.379s-5.38-2.408-5.38-5.379 2.409-5.38 5.38-5.38 5.379 2.409 5.379 5.38" fill="#d8d3cf"/></g><g transform="translate(578.33 255.07)"><path d="m0 0c0 1.386-1.124 2.51-2.51 2.51s-2.511-1.124-2.511-2.51c0-1.387 1.125-2.511 2.511-2.511s2.51 1.124 2.51 2.511" fill="#d8d3cf"/></g><g transform="translate(558.61 347.95)"><path d="m0 0c0 1.188-0.963 2.152-2.151 2.152-1.189 0-2.152-0.964-2.152-2.152s0.963-2.152 2.152-2.152c1.188 0 2.151 0.964 2.151 2.152" fill="#d8d3cf"/></g><g transform="translate(397.47 116.86)"><path d="m0 0h218.89" fill="none" stroke="#b2cdc1" stroke-linecap="round" stroke-miterlimit="10" stroke-width="2.053"/></g><g transform="translate(566.5 94.041)"><path d="m0 0c0-4.754-30.508-8.607-68.14-8.607s-68.14 3.853-68.14 8.607c0 4.753 30.508 8.606 68.14 8.606s68.14-3.853 68.14-8.606" fill="#d8d3cf"/></g><g transform="translate(483.9 339.95)"><path d="m0 0c6.271 9.287 17.119 15.316 28.316 15.739 2.265 0.086 4.606-0.062 6.647-1.046 2.524-1.217 4.288-3.556 5.98-5.791 4.457-5.884 9.102-11.628 13.925-17.216 0.964-1.118 2.043-2.293 3.49-2.581 1.381-0.274 2.768 0.327 4.059 0.887 7.097 3.08 15.826 5.193 22.163 0.755 1.331-4.624-3-9.901-7.795-9.497-3.581 0.301-7.599 3.015-10.339 0.689 4.217-0.943 8.144-3.146 11.149-6.251-8.332-2.214-5.403-17.639-13.473-20.673-3.425-1.288-7.389 0.451-10.876-0.659-3.219-1.024-5.187-4.15-7.339-6.754-7.383-8.936-19.954-13.239-31.264-10.7-0.874 18.549-3.637 37.009-8.233 55" fill="#863c3e"/></g><g transform="translate(497.63 352.32)"><path d="m0 0c-2.217 0.023-3.835 2.04-5.026 3.91-2.649 4.162-4.972 8.903-4.471 13.811 0.5 4.908 4.888 9.679 9.761 8.908 1.472-0.233 2.835-0.929 4.071-1.76 4.497-3.024 7.642-8.227 7.542-13.644-0.099-5.418-3.792-10.763-9.024-12.172" fill="#863c3e"/></g><g transform="translate(500.78 351.07)"><path d="m0 0c4.99 3.731 7.001 10.572 4.418 16.318-1.232 2.742-3.383 5.083-6.039 6.498-2.161 1.152-6.366 2.13-7.025-1.295-0.098-0.508 0.682-0.726 0.78-0.215 0.724 3.763 6.029 0.925 7.735-0.427 1.984-1.571 3.509-3.732 4.299-6.137 1.671-5.09-0.32-10.861-4.576-14.044-0.412-0.308-9e-3 -1.01 0.408-0.698" fill="#3e1c1a"/></g><g transform="translate(497.69 344.21)"><path d="m0 0c8.973 2.939 18.959-1.279 23.344-9.556 2.333-4.405 3.439-9.362 5.967-13.675 2.29-3.91 5.829-6.965 10.053-8.618 4.84-1.894 10.944-1.254 14.904-5.062 0.375-0.361 0.948 0.21 0.572 0.572-3.423 3.291-8.332 3.381-12.693 4.464-5.186 1.29-9.574 4.596-12.241 9.228-2.594 4.504-3.679 9.697-6.256 14.212-2.209 3.873-5.612 6.837-9.723 8.556-4.47 1.868-9.526 2.171-14.142 0.659-0.493-0.161-0.282-0.943 0.215-0.78" fill="#3e1c1a"/></g><g transform="translate(498.74 345.5)"><path d="m0 0c9.059 4.067 20.435 1.931 27.496-5.033 3.477-3.43 5.343-8.135 8.873-11.509 3.964-3.788 9.16-3.787 14.21-2.568 5.935 1.431 13.016 4.653 18.674 0.692 0.427-0.299 0.832 0.401 0.409 0.698-10.18 7.128-23.162-7.36-32.721 1.751-3.703 3.529-5.606 8.498-9.379 11.991-3.487 3.228-7.91 5.396-12.562 6.323-5.183 1.032-10.578 0.522-15.408-1.646-0.474-0.213-0.063-0.91 0.408-0.699" fill="#3e1c1a"/></g><g transform="translate(493.84 340.02)"><path d="m0 0c0.299-3.046 1.321-6.163 3.202-8.61 1.527-1.988 3.983-3.447 6.475-2.318 1.158 0.525 1.997 1.53 2.118 2.812 0.05 0.518-0.76 0.515-0.809 0-0.121-1.28-1.303-2.114-2.484-2.349-1.444-0.287-2.821 0.43-3.836 1.414-2.353 2.28-3.544 5.863-3.857 9.051-0.05 0.514-0.86 0.519-0.809 0" fill="#3e1c1a"/></g><g transform="translate(497.71 352.78)"><path d="m0 0c-1.569-1.147-3.469-0.867-5.027 0.17-2.403 1.6-3.671 4.517-4.303 7.23-0.692 2.977-0.248 5.799 0.744 8.662 1.001 2.887 2.527 5.834 4.965 7.762 0.816 0.645-0.336 1.782-1.144 1.143-2.158-1.706-3.62-4.192-4.688-6.688-1.032-2.415-1.809-5.055-1.887-7.696-0.137-4.579 2.251-10.604 6.753-12.472 1.777-0.737 3.82-0.665 5.403 0.493 0.832 0.608 0.026 2.012-0.816 1.396" fill="#863c3e"/></g><g transform="translate(514.28 320.12)"><path d="m0 0c0.1-0.45 0.547-0.729 0.994-0.614 1.865 0.483 6.074 1.975 7.924-2.757 1.869-4.782-2.131-8.756-4.924-9.63-0.806-0.252-2.65-0.898-3.051-1.642-1.233-2.285-1.005-6.536-1.035-11.915-0.03-5.561 0.861-10.806 1.818-14.813 7.098-3.962 11.76-5.038 11.76-5.038s-25.821-67.423-51.642-0.359c0 0 13.986 3.945 15.062 5.009 0.261 8.038 0.631 19.977 0.518 20.044-2.857 1.7-13.006 0.689-12.231 20.97 0.718 18.787 13.857 20.8 17.264 21.049 2.874 0.211 12.576 2.037 17.543-20.304" fill="#ffa288"/></g><g transform="translate(521.44 314.8)"><path d="m0 0s-4.508 5.447-6.126-3.796" fill="#d66956"/></g><g clip-path="url(#clipPath869-5)" opacity=".63"><g transform="translate(498.06 315.98)"><path d="m0 0c-2.436-0.561-3.956-2.989-3.396-5.425 0.561-2.436 2.99-3.957 5.425-3.396 2.437 0.56 3.956 2.989 3.397 5.425-0.561 2.436-2.99 3.956-5.426 3.396" fill="#e7786b"/></g></g><g clip-path="url(#clipPath885-0)" opacity=".63"><g transform="translate(480.2 309.7)"><path d="m0 0c1.915 0.874 3.018 3 2.528 5.131-0.378 1.643-1.606 2.87-3.113 3.323 0 0-0.642-5.329 0.585-8.454" fill="#e7786b"/></g></g><g transform="translate(490.84 311.68)"><path d="m0 0s-1.415-2.281-4.583-1.743c-2.063 0.35-3.087 2.505-3.087 2.505" fill="none" stroke="#000" stroke-linecap="round" stroke-miterlimit="10" stroke-width=".539"/></g><g transform="translate(487.04 316.29)"><path d="m0 0 0.638-3.453-1.825 0.028c-0.336 6e-3 -0.544 0.369-0.378 0.662z" fill="#d66956"/></g><g transform="translate(494.75 321.96)"><path d="m0 0c0.786-0.664-0.268 2.08-1.387 2.488-1.118 0.409-2.311-0.043-2.664-1.009 0 0 2.163 0.114 4.051-1.479"/></g><g transform="translate(481.65 323.4)"><path d="m0 0c-0.891-0.513 0.634 2 1.807 2.203s2.267-0.453 2.442-1.467c0 0-2.108 0.497-4.249-0.736"/></g><g transform="translate(490.76 298.67)"><path d="m0 0s5.383-0.404 9.522 0.936c-2.297-6.214-7.297-5.818-9.522-0.936" fill="#d66956"/></g><g transform="translate(487.78 345.44)"><path d="m0 0c-13.628 5.738-9.41-20.442-9.41-20.442 4.157-0.507 5.95 2.9 7.272 6.844 0.617 1.841 2.04 3.302 3.843 4.023 0.89 0.356 1.413 1.283 1.257 2.228-0.384-5.995 3.322-11.497 9.022-13.393 4.373-1.454 8.613 2.532 7.429 6.987l-0.366 1.378 4.264-12.729c1.362-2.477 5.209-0.043 7.804 1.076 0 0-6.293 36.79-31.115 24.028" fill="#863c3e"/></g><g transform="translate(492.35 315.8)"><path d="m0 0c-1.036-0.356-2.268-0.728-3.163 0.349" fill="none" stroke="#000" stroke-linecap="round" stroke-miterlimit="10" stroke-width=".539"/></g><g transform="translate(485.42 316.4)"><path d="m0 0c-1.036-0.356-2.267-0.729-3.163 0.349" fill="none" stroke="#000" stroke-linecap="round" stroke-miterlimit="10" stroke-width=".539"/></g><g transform="translate(483.66 276.94)"><path d="m0 0c-3.229-1.59-11.297-2.271-15.601-3.945 2.511-12.014 0.538-27.973 1.358-37.509 1.116-12.967 0.709-33.858 0.709-33.858s43.513-0.945 56.305-1.794c7.029 21.416 14.656 55.189 10.306 71.727l-14.346 5.02c-3.668-7.162-38.145-4.068-38.731 0.359" fill="#ffe8d8"/></g><g clip-path="url(#clipPath937-2)" opacity=".38"><g transform="translate(530.61 271.4)"><path d="m0 0c3.651-17.471 2.51-51.184-4.179-71.56-6.495 0.432-20.91 0.887-33.529 1.232 18.178 20.053 33.551 43.528 37.708 70.328" fill="#d8c7bc"/></g></g><g transform="translate(523.08 200.55)"><path d="m0 0c13.748-16.497 23.207-60.133 23.207-60.133l-94.454 2.274s5.439 42.856 22.773 58.755c0.059-0.119 26.718 0.897 48.474-0.896" fill="#6e7dd6"/></g><g clip-path="url(#clipPath957-3)" opacity=".44"><g transform="translate(523.08 200.55)"><path d="m0 0c13.748-16.497 23.207-60.133 23.207-60.133l-94.454 2.274s5.439 42.856 22.773 58.755c0.059-0.119 26.718 0.897 48.474-0.896" fill="#6e7dd6"/></g></g><g transform="translate(433.81 131.98)"><path d="m0 0c-1.722 0.3 0.042 3.497 4.043 4.697 6.403 1.922 16.704 5.541 19.724 9.215 3.487 4.242 6.722 5.9 9.042 6.51 1.742 0.458 3.592 0.013 4.968-1.151 0.932-0.788 2.208-1.639 3.436-1.724 1.446-0.099 3.186 0.271 3.186 0.271l-0.737-19.505s-35.891 0.337-43.662 1.687" fill="#ffa288"/></g><g transform="translate(474.75 130.47)"><path d="m0 0s120 1.757 120.84 32.797c0.772 28.68-46.925 21.866-51.947 21.148-18.808-2.686-69.453-26.145-69.453-26.145z" fill="#6e7dd6"/></g><g clip-path="url(#clipPath981-9)" opacity=".28"><g transform="translate(506.7 172.22)"><path d="m0 0-31.56-13.269 0.676-28.576s77.159 4.165 95.272 13.222z" fill="#d8c7bc"/></g></g><g transform="translate(485.78 130.74)"><path d="m0 0-3.441 31.878" fill="none" stroke="#fff" stroke-miterlimit="10" stroke-width="1.078"/></g><g transform="translate(512.08 132.06)"><path d="m0 0s-114.91 3.92-111.53 34.787c2.51 22.952 40.166 18.475 58.098 12.193 17.931-6.281 54.87-22.952 54.87-22.952z" fill="#6e7dd6"/></g><g transform="translate(555.34 132)"><path d="m0 0c1.742 0.131 0.297 3.484-3.569 5.067-6.187 2.535-16.087 7.136-18.737 11.085-3.058 4.561-6.118 6.525-8.367 7.357-1.69 0.625-3.574 0.36-5.056-0.664-1.005-0.694-2.357-1.418-3.588-1.383-1.449 0.042-3.144 0.58-3.144 0.58l-1.159-19.486s35.754-3.146 43.62-2.556" fill="#ffa288"/></g><g transform="translate(507.3 158.47)"><path d="m0 0-2.391-24.984" fill="none" stroke="#fff" stroke-miterlimit="10" stroke-width="1.078"/></g><g transform="translate(495.31 229.6)"><path d="m0 0s0.717 4.124 1.435 3.049c0.717-1.076 2.51-12.732 2.51-12.732z" fill="#d66956"/></g><g transform="translate(499.26 197.86)"><path d="m0 0c19.726-2.539 53.312-2.908 54.691 0.179 9.864 3.772-0.717 43.215-7.172 60.25-3.504 9.246-8.125 14.077-13.091 15.062-9.144 1.435-0.218-51.086 2.869-55.946 0 0-6.096 1.434-34.607-5.917 0 0-5.29 16.872-6.635 18.11 0 0-1.972 1.435-1.255-1.255s1.698-27.54 2.331-28.332c2.152-2.689 2.869-2.151 2.869-2.151" fill="#ffa288"/></g><g transform="translate(494.16 229.6)"><path d="m0 0s-0.717 4.124-1.435 3.049c-0.717-1.076-2.51-12.732-2.51-12.732z" fill="#d66956"/></g><g transform="translate(490.21 197.86)"><path d="m0 0c-19.726-2.539-43.729 6.416-45.108 9.503-9.865 3.772 4.345 35.471 12.731 51.643 5.021 9.683 9.738 14.794 14.704 15.78 13.628 1.075-6.097-47.697-6.455-53.436 0 0 2.868-3.587 21.438-9.862 0 0 5.29 16.872 6.635 18.11 0 0 1.972 1.435 1.255-1.255s-1.698-27.54-2.331-28.332c-2.152-2.689-2.869-2.151-2.869-2.151" fill="#ffa288"/></g><g clip-path="url(#clipPath1029-5)" opacity=".31"><g transform="translate(790.99 128.44)"><path d="m0 0c-19.25-7.109-41.24-6.473-60.048 1.738-18.806 8.212-34.223 23.907-42.095 42.859-2.841 6.842-4.709 14.68-2.004 21.579 2.921 7.456 10.371 11.962 17.332 15.922l28.459 16.192c14.754 8.394 31.039 18.868 33.957 35.591 2.881 16.515-8.605 31.801-19.795 44.284s-23.562 26.519-22.927 43.271c0.615 16.225 13.312 29.159 25.691 39.667 7.714 6.547 15.853 12.964 25.427 16.237 8.391 2.867 17.433 3.157 26.294 2.878 33.42-1.054 68.366-11.009 90.783-35.816 6.31-6.982 11.149-18.723 4.079-24.934-4.341-3.814-10.839-3.155-16.571-3.883-11.433-1.452-21.704-9.821-25.437-20.724-5.967-17.428 4.555-36.412 17.938-49.071 13.382-12.66 29.964-21.965 41.532-36.301 17.391-21.552 19.92-55.388 2.186-76.657-7.336-8.798-17.404-14.98-28.001-19.329-23.059-9.463-48.534-10.707-73.435-11.829" fill="#d8d3cf"/></g><g transform="translate(908.69 286)"><path d="m0 0c-7.941 5.372-16.07 11.123-20.845 19.437s-5.184 19.936 1.628 26.683c5.438 5.384 14.224 6.334 21.442 3.791 7.217-2.542 13.042-8.041 17.686-14.122 3.571-4.675 6.629-9.902 7.764-15.674 1.135-5.771 0.123-12.17-3.683-16.655-3.805-4.486-10.658-6.496-15.903-3.834" fill="#d8d3cf"/></g><g transform="translate(705.39 289.14)"><path d="m0 0c1.416-1.975 4.527-0.668 6.405 0.874 9.012 7.406 16.263 19.52 12.075 30.408-2.62 6.812-9.645 11.593-16.939 11.845-7.294 0.253-14.497-3.871-18.255-10.128-3.672-6.114-4.041-14.083-0.951-20.51 3.091-6.427 9.547-11.114 16.614-12.063" fill="#d8d3cf"/></g></g><g transform="translate(710.37 145.09)"><path d="m0 0c-13.622 7.26-21.012 16.246-25.85 30.904-1.147 3.475-1.771 7.833 0.906 10.328 2.868 2.675 7.526 1.381 10.981-0.473 6.343-3.405 11.926-8.218 16.23-13.989 5.536-7.426 10.176-17.27 19.295-18.895 0.833-0.147 1.738-0.206 2.477 0.204 2.232 1.237 0.784 4.598-0.628 6.724-2.588 3.894-4.271 8.386-4.881 13.022-0.11 0.838-0.179 1.722 0.156 2.497 0.486 1.128 1.716 1.755 2.918 2.014 4.365 0.942 8.622-1.783 12.094-4.591 8.85-7.152 21.142-19.019 27.237-28.628" fill="#b2cdc1"/></g><g transform="translate(800.65 226.01)"><path d="m0 0c-12.56 3.831-23.862 11.676-31.845 22.103-3.807 4.973-6.944 10.748-7.337 17-0.219 3.505 1.135 7.81 4.589 8.45 2.498 0.464 4.834-1.252 6.737-2.936 13.474-11.929 23.575-27.629 28.845-44.836" fill="#b2cdc1"/></g><g transform="translate(727.13 209.45)"><path d="m0 0c-6.457 1.322-13 2.693-18.871 5.69-5.87 2.998-11.086 7.87-13.031 14.167-0.771 2.497-0.946 5.41 0.563 7.542 1.899 2.687 5.714 3.162 8.972 2.705 6.898-0.967 13.16-5.036 17.497-10.488 4.338-5.452 6.851-12.199 7.965-19.076" fill="#b2cdc1"/></g><g transform="translate(737.27 205.56)"><path d="m0 0c-1.891 3.521-3.05 7.395-3.872 11.306-1.113 5.301-1.489 11.291 1.69 15.676 0.954 1.316 2.342 2.483 3.967 2.533 0.973 0.03 1.914-0.345 2.766-0.817 3.472-1.923 5.881-5.647 6.209-9.604 0.303-3.64-1.053-7.233-2.876-10.398-1.822-3.165-4.121-6.034-5.972-9.183" fill="#b2cdc1"/></g><g transform="translate(746.96 195.72)"><path d="m0 0c-4.108 0.955-8.257 1.915-12.475 1.96-4.217 0.044-8.569-0.901-11.944-3.432-0.621-0.465-1.241-1.042-1.376-1.806-0.131-0.742 0.232-1.484 0.685-2.085 1.576-2.097 4.283-3.119 6.906-3.179 2.622-0.061 5.189 0.728 7.635 1.676 3.311 1.283 6.683 3.039 8.482 6.101" fill="#b2cdc1"/></g><g transform="translate(761.81 184.81)"><path d="m0 0c-1.307 3.795-2.624 7.636-2.992 11.634-0.368 3.997 0.301 8.229 2.658 11.479 0.304 0.419 0.662 0.839 1.156 0.994 0.593 0.188 1.236-0.053 1.774-0.364 2.221-1.279 3.563-3.701 4.275-6.164 1.794-6.204 3e-3 -13.312-4.517-17.925" fill="#b2cdc1"/></g><g transform="translate(704.45 231.88)"><path d="m0 0c1.958-8.059 9.95-13.033 16.179-17.679 6.952-5.184 14.046-10.174 21.107-15.208 13.953-9.946 27.888-20.101 40.063-32.221 6.836-6.807 13.048-14.226 18.249-22.361 0.515-0.807 1.809-0.059 1.289 0.754-9.08 14.206-21.166 26.105-34.203 36.678-13.254 10.75-27.445 20.257-41.22 30.308-3.927 2.865-7.886 5.722-11.647 8.802-3.683 3.016-7.217 6.555-8.377 11.324-0.226 0.934-1.668 0.539-1.44-0.397" fill="#b2cdc1"/></g><g clip-path="url(#clipPath1081-4)"><g transform="translate(732.57 161.91)"><path d="m0 0c1.366 5.193 5.685 9.68 10.778 11.502-3.333 2.588-7.303 4.894-11.369 4.016-1.201-0.259-2.431-0.886-2.918-2.014-0.335-0.775-0.265-1.659-0.155-2.497 0.507-3.858 1.768-7.61 3.664-11.007" fill="#b2cdc1"/></g><g transform="translate(709.76 150.23)"><path d="m0 0c-5.002 5.697-9.918 11.752-13.642 18.379-2.455 4.368-5.165 10.004-3.491 15.107 0.404 1.235 1.002 2.261 1.733 3.092-3.089 1.239-6.603 1.687-8.934-0.487-2.677-2.495-2.053-6.854-0.905-10.328 4.838-14.659 12.227-23.645 25.849-30.905l4.019-0.057c-1.609 1.723-3.143 3.507-4.629 5.199" fill="#b2cdc1"/></g><g transform="translate(793.01 242.33)"><path d="M 0,0 C 1.608,-2.361 3.339,-4.623 5.099,-6.862 1.998,0.405 -1.981,7.297 -6.714,13.625 -7.382,10.071 -1.295,1.9 0,0" fill="#b2cdc1"/></g><g transform="translate(769.21 255.25)"><path d="m0 0c-1.092 5.982 1.492 10.715 5.59 13.544-0.662 0.621-1.327 1.239-2.007 1.84-1.902 1.684-4.238 3.4-6.736 2.936-3.454-0.64-4.809-4.945-4.589-8.45 0.392-6.252 3.529-12.027 7.337-17 1.943-2.539 4.087-4.922 6.394-7.134-2.911 4.364-5.053 9.144-5.989 14.264" fill="#b2cdc1"/></g><g transform="translate(722.92 210.68)"><path d="m0 0c-9.428 2.684-19.025 13.604-21.162 23.082-0.445 1.972-0.561 3.957-0.398 5.875-2.215-0.213-4.31-1.01-5.565-2.785-1.509-2.133-1.334-5.045-0.563-7.542 1.945-6.298 7.161-11.169 13.031-14.167 5.871-2.997 12.414-4.368 18.871-5.691l3.095 0.541c-0.052 0.317-0.122 0.632-0.179 0.949-2.101-0.93-4.65-0.968-7.13-0.262" fill="#b2cdc1"/></g><g transform="translate(748.03 224.65)"><path d="m0 0c-0.328 3.957-2.736 7.682-6.209 9.604-0.333 0.186-0.684 0.345-1.041 0.482 2.538-7.19 3.892-15.17-0.272-21.847-1.327-2.125-3.497-2.733-5.431-2.198 0.602-1.766 1.31-3.491 2.193-5.135l1.912-0.487c1.851 3.149 4.15 6.018 5.972 9.184 1.823 3.165 3.179 6.757 2.876 10.397" fill="#b2cdc1"/></g><g transform="translate(727.94 191.63)"><path d="m0 0c-1.36 1.046-2.588 2.36-3.313 3.899-0.725-0.377-1.429-0.793-2.087-1.287-0.621-0.465-1.242-1.042-1.376-1.806-0.131-0.742 0.231-1.484 0.684-2.085 1.576-2.097 4.283-3.119 6.906-3.179 2.224-0.052 4.409 0.51 6.512 1.26-2.585 0.496-5.061 1.458-7.326 3.198" fill="#b2cdc1"/></g><g transform="translate(762.38 203.44)"><path d="m0 0c2.002 0.493 4.057 0.413 5.993-0.109-0.765 2.121-2.032 4.104-3.969 5.219-0.538 0.311-1.18 0.552-1.773 0.365-0.494-0.156-0.853-0.576-1.156-0.995-1.283-1.767-2.062-3.825-2.449-5.977 0.968 0.666 2.084 1.185 3.354 1.497" fill="#b2cdc1"/></g></g><g transform="translate(902.31 145.09)"><path d="m0 0c13.622 7.26 21.012 16.246 25.85 30.904 1.147 3.475 1.771 7.833-0.906 10.328-2.868 2.675-7.526 1.381-10.98-0.473-6.344-3.405-11.927-8.218-16.231-13.989-5.536-7.426-10.176-17.27-19.295-18.895-0.833-0.147-1.738-0.206-2.477 0.204-2.232 1.237-0.784 4.598 0.628 6.724 2.588 3.894 4.271 8.386 4.881 13.022 0.11 0.838 0.179 1.722-0.156 2.497-0.486 1.128-1.716 1.755-2.917 2.014-4.366 0.942-8.622-1.783-12.095-4.591-8.85-7.152-21.142-19.019-27.237-28.628" fill="#b2cdc1"/></g><g transform="translate(826.97 254.46)"><path d="m0 0c6.369 3.388 11.639 8.808 14.845 15.271 1.53 3.083 2.613 6.526 2.167 9.939-0.25 1.914-1.435 4.092-3.365 4.074-1.395-0.013-2.474-1.184-3.323-2.293-6.01-7.851-9.803-17.38-10.835-27.213" fill="#b2cdc1"/></g><g transform="translate(885.55 209.45)"><path d="m0 0c6.457 1.322 13.001 2.693 18.871 5.69 5.87 2.998 11.086 7.87 13.031 14.167 0.772 2.497 0.946 5.41-0.563 7.542-1.899 2.687-5.714 3.162-8.971 2.705-6.899-0.967-13.161-5.036-17.498-10.488-4.338-5.452-6.851-12.199-7.965-19.076" fill="#b2cdc1"/></g><g transform="translate(875.41 205.56)"><path d="m0 0c1.891 3.521 3.05 7.395 3.872 11.306 1.113 5.301 1.489 11.291-1.689 15.676-0.955 1.316-2.343 2.483-3.968 2.533-0.973 0.03-1.914-0.345-2.766-0.817-3.472-1.923-5.881-5.647-6.209-9.604-0.302-3.64 1.053-7.233 2.876-10.398 1.822-3.165 4.121-6.034 5.972-9.183" fill="#b2cdc1"/></g><g transform="translate(865.72 195.72)"><path d="m0 0c4.107 0.955 8.256 1.915 12.474 1.96 4.217 0.044 8.569-0.901 11.944-3.432 0.621-0.465 1.242-1.042 1.376-1.806 0.131-0.742-0.232-1.484-0.684-2.085-1.577-2.097-4.284-3.119-6.907-3.179-2.622-0.061-5.189 0.728-7.635 1.676-3.311 1.283-6.683 3.039-8.481 6.101" fill="#b2cdc1"/></g><g transform="translate(850.87 184.81)"><path d="m0 0c1.307 3.795 2.624 7.636 2.992 11.634 0.368 3.997-0.301 8.229-2.658 11.479-0.304 0.419-0.662 0.839-1.156 0.994-0.593 0.188-1.236-0.053-1.774-0.364-2.221-1.279-3.563-3.701-4.275-6.164-1.794-6.204-3e-3 -13.312 4.517-17.925" fill="#b2cdc1"/></g><g transform="translate(906.79 232.28)"><path d="m0 0c-1.029-4.238-3.945-7.513-7.165-10.305-3.259-2.826-6.795-5.357-10.263-7.918-6.873-5.073-13.866-9.978-20.816-14.945-13.764-9.835-27.475-19.942-39.419-31.981-6.65-6.703-12.695-14.003-17.783-21.963-0.52-0.813 0.772-1.563 1.29-0.754 9.228 14.438 21.612 26.444 34.903 37.13 13.463 10.823 27.861 20.4 41.77 30.628 3.791 2.788 7.655 5.547 11.224 8.618 3.468 2.982 6.595 6.547 7.699 11.093 0.227 0.934-1.212 1.333-1.44 0.397" fill="#b2cdc1"/></g><g clip-path="url(#clipPath1153-3)"><g transform="translate(829.38 264.06)"><path d="m0 0c-0.619-1.442-1.313-2.844-2.026-4.237 0.907 4.245 2.327 8.381 4.213 12.291 0.734-1.846-1.688-6.892-2.187-8.054" fill="#b2cdc1"/></g></g><g clip-path="url(#clipPath1169-2)"><g transform="translate(840.85 273.54)"><path d="m0 0c-0.041 3.341-1.933 5.621-4.44 6.715 0.292 0.404 0.586 0.807 0.888 1.203 0.849 1.108 1.928 2.28 3.323 2.292 1.93 0.019 3.115-2.16 3.365-4.073 0.446-3.413-0.637-6.857-2.167-9.94-0.781-1.573-1.686-3.084-2.698-4.519 1.111 2.66 1.763 5.463 1.729 8.322" fill="#b2cdc1"/></g></g><g clip-path="url(#clipPath1185-6)"><g transform="translate(880.11 161.91)"><path d="m0 0c-1.366 5.193-5.684 9.68-10.778 11.502 3.333 2.588 7.303 4.894 11.37 4.016 1.2-0.259 2.43-0.886 2.917-2.014 0.335-0.775 0.265-1.659 0.155-2.497-0.507-3.858-1.768-7.61-3.664-11.007" fill="#b2cdc1"/></g><g transform="translate(902.92 150.23)"><path d="m0 0c5.002 5.697 9.918 11.752 13.643 18.379 2.454 4.368 5.164 10.004 3.49 15.107-0.404 1.235-1.002 2.261-1.733 3.092 3.09 1.239 6.603 1.687 8.934-0.487 2.677-2.495 2.053-6.854 0.905-10.328-4.838-14.659-12.227-23.645-25.849-30.905l-4.019-0.057c1.609 1.723 3.143 3.507 4.629 5.199" fill="#b2cdc1"/></g><g transform="translate(889.76 210.68)"><path d="m0 0c9.428 2.684 19.025 13.604 21.163 23.082 0.444 1.972 0.56 3.957 0.397 5.875 2.215-0.213 4.31-1.01 5.565-2.785 1.509-2.133 1.334-5.045 0.563-7.542-1.945-6.298-7.161-11.169-13.031-14.167-5.87-2.997-12.414-4.368-18.871-5.691l-3.095 0.541c0.052 0.317 0.122 0.632 0.179 0.949 2.101-0.93 4.651-0.968 7.13-0.262" fill="#b2cdc1"/></g><g transform="translate(864.65 224.65)"><path d="m0 0c0.328 3.957 2.736 7.682 6.209 9.604 0.334 0.186 0.684 0.345 1.041 0.482-2.538-7.19-3.892-15.17 0.272-21.847 1.327-2.125 3.497-2.733 5.431-2.198-0.602-1.766-1.31-3.491-2.193-5.135l-1.912-0.487c-1.851 3.149-4.15 6.018-5.972 9.184-1.822 3.165-3.178 6.757-2.876 10.397" fill="#b2cdc1"/></g><g transform="translate(884.74 191.63)"><path d="m0 0c1.36 1.046 2.588 2.36 3.313 3.899 0.725-0.377 1.429-0.793 2.087-1.287 0.621-0.465 1.243-1.042 1.376-1.806 0.131-0.742-0.231-1.484-0.683-2.085-1.577-2.097-4.284-3.119-6.907-3.179-2.224-0.052-4.408 0.51-6.512 1.26 2.585 0.496 5.061 1.458 7.326 3.198" fill="#b2cdc1"/></g><g transform="translate(850.3 203.44)"><path d="m0 0c-2.003 0.493-4.058 0.413-5.994-0.109 0.765 2.121 2.032 4.104 3.969 5.219 0.538 0.311 1.18 0.552 1.773 0.365 0.494-0.156 0.853-0.576 1.156-0.995 1.283-1.767 2.062-3.825 2.449-5.977-0.968 0.666-2.084 1.185-3.353 1.497" fill="#b2cdc1"/></g></g><g clip-path="url(#clipPath1221-0)" opacity=".51"><g transform="translate(735.54 250.84)"><path d="m0 0c0 1.28-1.038 2.318-2.318 2.318-1.281 0-2.319-1.038-2.319-2.318s1.038-2.318 2.319-2.318c1.28 0 2.318 1.038 2.318 2.318" fill="#b2cdc1"/></g><g transform="translate(685.87 198.85)"><path d="m0 0c0 1.829-1.482 3.312-3.312 3.312-1.829 0-3.311-1.483-3.311-3.312s1.482-3.312 3.311-3.312c1.83 0 3.312 1.483 3.312 3.312" fill="#b2cdc1"/></g><g transform="translate(732.59 344.17)"><path d="m0 0c0 3.292-2.668 5.961-5.961 5.961-3.292 0-5.96-2.669-5.96-5.961s2.668-5.961 5.96-5.961c3.293 0 5.961 2.669 5.961 5.961" fill="#b2cdc1"/></g><g transform="translate(883.21 346.27)"><path d="m0 0c0 3.292-2.668 5.96-5.961 5.96-3.292 0-5.961-2.668-5.961-5.96s2.669-5.961 5.961-5.961c3.293 0 5.961 2.669 5.961 5.961" fill="#b2cdc1"/></g><g transform="translate(791.15 399.19)"><path d="m0 0c0 1.463-1.187 2.649-2.649 2.649-1.464 0-2.65-1.186-2.65-2.649s1.186-2.649 2.65-2.649c1.462 0 2.649 1.186 2.649 2.649" fill="#b2cdc1"/></g><g transform="translate(934.9 203.81)"><path d="m0 0c0 2.378-1.928 4.305-4.306 4.305s-4.304-1.927-4.304-4.305 1.926-4.306 4.304-4.306 4.306 1.928 4.306 4.306" fill="#b2cdc1"/></g><g transform="translate(884.9 257.13)"><path d="m0 0c0 0.915-0.741 1.656-1.656 1.656-0.914 0-1.656-0.741-1.656-1.656s0.742-1.656 1.656-1.656c0.915 0 1.656 0.741 1.656 1.656" fill="#b2cdc1"/></g></g><g transform="translate(926.36 89.99)"><path d="m0 0h-237.6l32.146 48.918h173.31z" fill="#6e7dd6"/></g><g transform="translate(732.8 285.37)"><path d="m0 0c8.862-18.613 25.961-57.717 34.854-64.266 10.932-8.048 32.038-10.428 32.038-10.428-32.319-44.517-47.525-33.401-47.525-33.401-21.776 16.834-31.801 88.854-33.604 101.69l-10.876 12.991s-3.856 4.003-4.747 9.092c-0.892 5.09-1.779 9.542-0.715 9.338 1.063-0.204 3.88-6.975 4.315-8.246 0.436-1.27 1.942-3.594 2.582-4.013 0.641-0.42-4.137 12.282-4.374 15.253s-1.336 7.422-0.274 7.43c1.061 9e-3 3.652-5.066 3.652-5.066s-0.901 6.151 0.159 6.372 2.58-3.801 3.021-5.708c0.44-1.908 5.199-12.274 6.476-12.688 0 0 1.507 10.312 2.344 11.806 0.837 1.493 8.398-1.098 8.616-1.946 0.22-0.848-3.378-2.364-4.866-2.164l-1.005-6.804s3.442-5.28 5.987-4.834c0 0 2.075 5.857 1.963 6.493s-3.527 2.731-2.179 6.671c1.347 3.94 7.846-11.402 7.846-11.402s-4.205-10.545-3.688-16.17" fill="#ffa382"/></g><g transform="translate(707.57 316.29)"><path d="m0 0c1.422-5.832 3.859-11.374 7.198-16.361 0.257-0.383 0.879-0.024 0.621 0.362-3.307 4.94-5.717 10.414-7.127 16.19-0.109 0.449-0.801 0.259-0.692-0.191" fill="#d66956"/></g><g transform="translate(727.57 299.67)"><path d="m0 0c-0.742 0.048-1.548 0.043-2.226-0.304-0.776-0.396-1-1.169-1.005-1.988-0.017-2.234 0.293-4.48 0.845-6.643 0.115-0.447 0.807-0.257 0.693 0.192-0.473 1.847-0.749 3.736-0.808 5.642-0.022 0.739-0.175 1.739 0.593 2.153 0.566 0.305 1.287 0.269 1.908 0.229 0.462-0.029 0.46 0.689 0 0.719" fill="#d66956"/></g><g transform="translate(712.59 294.72)"><path d="m0 0c1.61 2.066 3.222 4.132 4.832 6.199 0.281 0.36-0.224 0.872-0.508 0.508-1.61-2.067-3.221-4.133-4.832-6.199-0.281-0.361 0.224-0.872 0.508-0.508" fill="#d66956"/></g><g transform="translate(789.1 294.02)"><path d="m0 0s-22.804-4.41-34.245-56.455l17.218-27.463z" fill="#ffe8d8"/></g><g clip-path="url(#clipPath1285-0)" opacity=".28"><g transform="translate(785.99 292.84)"><path d="m0 0c0.61-1.528 0.469-3.344-0.983-4.894-4.826-5.147-7.762-11.501-10.565-17.898-2.868-6.543-5.619-13.113-8.022-19.844-2.436-6.821-4.577-13.737-6.498-20.714l12.153-19.385 17.027 83.918s-1.172-0.229-3.112-1.183" fill="#d8c7bc"/></g></g><g transform="translate(856.6 158.99)"><path d="m0 0s0.843 83.583-3.932 108.78c-4.774 25.2-31.196 31.923-31.196 31.923l-9.359 3.912-19.45-6.232-6.829-4.688c-5.687-4.064-8.732-15.35-9.86-21.919l-12.387-111.7z" fill="#ffe8d8"/></g><g clip-path="url(#clipPath1305-1)" opacity=".28"><g transform="translate(852.66 267.77)"><path d="m0 0c-3.704 19.548-20.427 27.974-27.745 30.772-2.919-12.12-7.926-23.622-11.877-35.454-4.895-14.654-9.302-29.472-13.672-44.289-5.334-18.088-13.088-40.778-18.808-58.746l76.452-0.213s0.424 82.73-4.35 107.93" fill="#d8c7bc"/></g></g><g transform="translate(790.44 306.97)"><path d="m0 0-0.113 2.363 0.77 0.053 14.852 14.609s2.507-1.511 2.844-2.095c0.336-0.584 1.585 0.408 1.585 0.408l3.88-19.148s-15.28-13.035-21.155-12.385c-2.195 0.242-2.433 0.707-2.433 0.707z" fill="#ffa382"/></g><g transform="translate(806.33 324.79)"><path d="m0 0-16.083-15.747 0.292-4.872s8.546 6.265 12.001 17.628" fill="#d66956"/></g><g transform="translate(810.94 328.95)"><path d="m0 0s-5.245-0.503-6.91-3.016l-7.273 13.08s-2.563 9.792-5.441 7.359c-2.879-2.434-5.364-3.955-7.366-3.318-2.002 0.636-3.84 3.712-3.84 3.712s-14.066 13.078-5.123 23.053c9.784 10.912 10.645 2.456 17.498 0.028 2.641-0.935 7.767 0.661 10.534-0.113 2.943-0.824 3.055-7.61 4.842-7.605 10.028 0.028 8.854-13.972 4.085-32.967" fill="#3e1c1a"/></g><g transform="translate(805.49 338.57)"><path d="m0 0c-2.039-0.99-3.835-2.352-5.045-4.44-0.167-0.288-0.351-0.541-0.545-0.774l4.13-7.428c1.665 2.513 6.91 3.016 6.91 3.016l1.006 0.213c0.74 2.947 1.408 5.622 1.986 8.078-2.705 1.048-5.502 1.631-8.442 1.335" fill="#d66956"/></g><g transform="translate(806.17 328.43)"><path d="m0 0c0.217-0.47 5.829 3.616 7.024-1.141 1.624-6.462-5.805-6.048-6.316-6.961-1.036-1.851-0.082-3.146-5.402-5.794-3.243-1.615-12.264-8.575-16.096-5.422-3.832 3.152-5.062 2.596-5.669 38.683 0 0 3.23 3.053 5.155 1.415 3.608-3.07 4.888-2.549 5.744-1.41 1.201 1.597 3.523 1.866 5.111 0.652 9.037-6.906 9.276-17.483 10.449-20.022" fill="#ffa382"/></g><g transform="translate(812.17 327.1)"><path d="m0 0s-2.808 1.983-3.858-1.481" fill="#d66956"/></g><g transform="translate(784.51 334.23)"><path d="m 0,0 1.191,-12.536 -2.649,0.189 C -1.291,-12.362 0,0 0,0" fill="#d66956"/></g><g transform="translate(791.32 334.85)"><path d="m0 0c-2.388 0.865-4.452 0.227-4.452 0.227 0.128 1.231 1.389 2.111 2.818 1.964 0.535-0.054 1.286-0.392 1.666-0.997 0.159-0.253 0.454-1.328-0.032-1.194"/></g><g transform="translate(781.56 334.34)"><path d="m0 0c-2.54-0.051-3.198-0.805-3.198-0.805 0.183 0.972 0.286 1.539 0.882 2.263 0.342 0.415 1.342 0.095 1.916-0.333 0.239-0.178 0.902-1.075 0.4-1.125"/></g><g transform="translate(786.89 328.98)"><path d="m0 0c1.339-1.367 2.964-1.136 3.678 0.198" fill="none" stroke="#000" stroke-linecap="round" stroke-miterlimit="10" stroke-width=".503"/></g><g transform="translate(780.21 328.42)"><path d="m0 0c0.682-1.416 2.351-0.984 2.592 0.189" fill="none" stroke="#000" stroke-linecap="round" stroke-miterlimit="10" stroke-width=".503"/></g><g transform="translate(788.05 321.12)"><path d="m0 0s-0.902-2.182-3.752-1.453" fill="none" stroke="#000" stroke-linecap="round" stroke-miterlimit="10" stroke-width=".503"/></g><g transform="translate(884.13 287.91)"><path d="m0 0c-8.551-18.759-21.235-44.135-26.87-56.074 0.42 0.64-0.486 7.428-0.286 8.916-13.941-9.035-30.446-16.18-30.446-16.18 3.604-24.604 17.436-40.344 25.246-43.983 10.041-4.679 14.793-1.082 14.793-1.082 21.492 17.195 30.316 89.372 31.905 102.24l10.658 13.171s3.788 4.067 4.595 9.17 1.619 9.57 0.559 9.348c-1.06-0.221-3.763-7.039-4.177-8.316-0.415-1.278-1.881-3.626-2.515-4.056s3.932 12.35 4.119 15.324c0.188 2.975 1.212 7.443 0.15 7.434-1.061-9e-3 -3.567-5.126-3.567-5.126s0.799 6.165-0.266 6.368c-1.063 0.204-2.515-3.843-2.924-5.758-0.409-1.914-4.994-12.358-6.264-12.793 0 0-1.679 10.285-2.54 11.764-0.862 1.479-8.378-1.237-8.583-2.089-0.206-0.851 3.417-2.307 4.901-2.083l1.118-6.786s-3.353-5.337-5.905-4.933c0 0-2.172 5.821-2.071 6.46 0.101 0.637 3.481 2.789 2.068 6.706s-7.655-11.531-7.655-11.531 4.38-10.474 3.957-16.106" fill="#ffa382"/></g><g transform="translate(908.15 319.42)"><path d="m0 0c-1.312-5.799-3.63-11.312-6.854-16.307-0.251-0.39 0.37-0.751 0.62-0.363 3.255 5.044 5.601 10.625 6.926 16.479 0.103 0.45-0.59 0.643-0.692 0.191" fill="#d66956"/></g><g transform="translate(889.12 301.57)"><path d="m0 0c0.607 0.049 1.3 0.094 1.867-0.171 0.821-0.384 0.691-1.404 0.68-2.163-0.027-1.907-0.271-3.801-0.712-5.656-0.107-0.449 0.585-0.641 0.692-0.191 0.517 2.172 0.79 4.421 0.737 6.655-0.02 0.821-0.252 1.588-1.034 1.975-0.682 0.338-1.489 0.329-2.23 0.269-0.457-0.037-0.461-0.756 0-0.718" fill="#d66956"/></g><g transform="translate(904.69 298.1)"><path d="m0 0c-1.646 2.039-3.291 4.078-4.936 6.117-0.29 0.36-0.795-0.151-0.507-0.508 1.644-2.039 3.29-4.078 4.934-6.117 0.291-0.36 0.796 0.151 0.509 0.508" fill="#d66956"/></g><g transform="translate(872.36 138.07)"><path d="m0 0 6.545-5.654c3.296-1.496 5.674-4.625 6.858-7.588l17.905-7.92c5.542-2.502 9.449-9.604 5.173-9.301l-53.103 1.681z" fill="#ffa382"/></g><g transform="translate(868.38 107.61)"><path d="m0 0 14.984 33.515s-163.95 66.149-176.22 11.524c-9.193-40.942 70.152-43.685 161.23-45.039" fill="#3e1c1a"/></g><g transform="translate(756.34 110.59)"><path d="m0 0-5.352 30.535s136.51 72.311 149.68 17.898c9.874-40.785-53.286-45.561-144.33-48.433" fill="#863c3e"/></g><g transform="translate(751.87 137.73)"><path d="m0 0-12.729-1.38c-1.904-1.08-3.493-2.642-4.582-4.54-1.809-3.152-4.586-7.412-7.109-9.094-7.885-5.254-23.51-9.776-23.51-9.776-3.558-1.256-5.346-7.655-1.282-7.3l54.535 4.952z" fill="#ffa382"/></g><g transform="translate(824.01 221.57)"><path d="m 0,0 38.683,21.559 c 0,0 -11.086,56.182 -34.645,54.499 C -19.52,74.375 0,0 0,0" fill="#ffe8d8"/></g><g transform="translate(853.72 309.09)"><path d="m0 0c6.522-0.135 11.92 5.044 12.055 11.567 0.134 6.524-5.044 11.921-11.568 12.056-6.523 0.134-11.921-5.044-12.055-11.568-0.135-6.523 5.045-11.92 11.568-12.055z" fill="none" stroke="#b2cdc1" stroke-miterlimit="10" stroke-width=".789"/></g><g transform="translate(844.97 330.54)"><path d="m0 0c-4.682 2.197-4.423-0.373-4.226-1.694 0.087-0.582 0.43-1.091 0.779-1.565 4.881-6.64 12.416-10.788 20-14.012 1.841-0.782 3.947-1.525 5.782-0.729 0.379 0.165 0.745 0.405 0.951 0.764 0.597 1.04-0.402 2.249-1.313 3.03" fill="none" stroke="#b2cdc1" stroke-miterlimit="10" stroke-width=".789"/></g><g transform="translate(701.14 267.14)"><path d="m0 0c0.106 5.146-3.979 9.405-9.126 9.511-5.146 0.107-9.405-3.98-9.512-9.126-0.105-5.147 3.981-9.405 9.127-9.511 5.147-0.107 9.406 3.979 9.511 9.126z" fill="none" stroke="#b2cdc1" stroke-miterlimit="10" stroke-width=".623"/></g><g transform="translate(684.22 260.24)"><path d="m0 0c-1.734-3.693 0.294-3.49 1.336-3.334 0.46 0.068 0.86 0.339 1.234 0.614 5.24 3.851 8.512 9.797 11.056 15.78 0.617 1.452 1.203 3.114 0.575 4.562-0.13 0.299-0.319 0.587-0.602 0.75-0.821 0.471-1.775-0.317-2.391-1.036" fill="none" stroke="#b2cdc1" stroke-miterlimit="10" stroke-width=".623"/></g></g></g></g></svg>
