<svg xmlns="http://www.w3.org/2000/svg" xmlns:xlink="http://www.w3.org/1999/xlink" viewBox="0 0 669 694">
<defs>
<!-- <style>.cls-6,.cls-7{stroke:#000;stroke-miterlimit:10;}.cls-7{fill:#1e1e1e;}.cls-8{clip-path:url(#clip-path);}.cls-9{clip-path:url(#clip-path-2);}.cls-10{opacity:0.22;}.cls-10,.cls-13,.cls-14{mix-blend-mode:multiply;}.cls-11{fill:#2e2430;}.cls-12{fill:#a34f31;}.cls-13,.cls-15{fill:#d25a5c;}.cls-13{opacity:0.23;}.cls-14{opacity:0.49;}
</style> -->
<clipPath id="clip-path">
<path id="_Clipping_Path_" data-name="&lt;Clipping Path&gt;" class="cls-1" d="M234.29,241.66c1.25.07,173.43,66.76,206,32.22,0,0,9.72,53.79,17.08,75.11,8.29,24,18,51.91,18,53,2.06,4.78-15.47,0-51.25,35.78-48.82,48.82-150.84,4.62-213.75-83.28C210.33,354.51,217.54,240.7,234.29,241.66Z" fill="#020202"/>

</clipPath>
<clipPath id="clip-path-2">
<path id="_Clipping_Path_2" data-name="&lt;Clipping Path&gt;" class="cls-2" d="M330.91,36.91s-34.44,22.29-50.65,72.94c0,0-9.12,22.29-3,34.44s29.38,28.36,24.31,43.56a58,58,0,0,1-22.29,44.57s22.29-9.12,41.53,26.34c0,0,40.52-21.27,69.9,16.21,0,0,21.27-24.31,42.55,7.09,0,0,19.25-13.17,29.38,12.16,0,0,15.2-12.16,10.13,21.27,0,0,17.22,14.18-4.05,27.35,0,0,3,7.09-9.12,14.18l-6.08-17.22s3-3,10.13-3c0,0-6.08-14.18,4.05-21.27,0,0-16.21-4.05-16.21-21.27,0,0-18.23,12.16-30.39-9.12,0,0-29.38,24.31-52.68-8.1,0,0-46.6,31.4-67.87-10.13,0,0-57.74,26.34-60.78-25.33,0,0-30.39-41.53,8.1-65.85,0,0-35.35-46.76-14.18-88.13C256,44,277.22-20.83,325.85,6.52c0,0,85.09-37.48,72.94,102.32C398.79,108.83,356.24,76.42,330.91,36.91Z" fill="#1d3542"/>
</clipPath>
</defs>
<title>Zen App Girl</title>
<g class="cls-3">
<g id="Layer_2" data-name="Layer 2">
<g id="Layer_1-2" data-name="Layer 1">
<circle class="cls-4" cx="334.5" cy="359.5" r="334.5" fill="#dde53e" />

<path class="cls-5" d="M181.12,471.35c-8-7.59-13.75-16.94-19.87-26a5.24,5.24,0,0,0-4.28-2.6c-2.42-.16-4.83-.52-7.25-.62-16.07-.62-30.82-5.14-43.7-15.37-3.41-2.71-7-5.15-10.41-7.91-1.48-1.21-4.17-2.37-3.23-4.64s3.57-1.06,5.46-.72c18.37,3.29,36,8.71,52.05,18.8.8.5,1.67.9,2.51,1.33.1.05.26,0,.49,0,.15-1.36-.92-2.16-1.54-3.08-10.29-15.16-21.25-29.86-31.3-45.2a11.67,11.67,0,0,0-6.54-4.75c-3.44,6.12-8.61,10.39-14,14.42a13.57,13.57,0,0,1-4.72,2.22,2.94,2.94,0,0,1-3.34-.76,3.23,3.23,0,0,1-.2-3.49,19,19,0,0,1,4.34-6.32c1.29-1.3,2.66-2.51,4-3.74a1.43,1.43,0,0,0-1.54-.61c-8.07.47-14.64-3.09-20.67-8.09a10.06,10.06,0,0,1-1.68-1.78c-1.49-2-1.2-3.2,1.14-4,3-1,6.11-1,9.2-.92,2.37,0,4.74.32,7.31.5-.49-1.51-1.67-2-2.46-2.86-3.07-3.28-5.31-7-5.7-11.55-.38-4.37,1.92-6.35,6.19-5.55a15.62,15.62,0,0,1,5.5,2.55l4,2.56c.55-1.54-.09-2.79-.36-4a19.25,19.25,0,0,1-.36-8.53c.55-2.35,1.64-4.34,4.26-4.92s4.15.9,5.53,2.67a33.56,33.56,0,0,1,5.36,10.55,9.18,9.18,0,0,0,1.8,4c1.4-2.37,2.71-4.64,4.07-6.88a16.65,16.65,0,0,1,1.9-2.63c1.8-2,3.75-1.54,4.52,1.09a24.19,24.19,0,0,1,0,14.14,29,29,0,0,1-7.2,11.66c-1.44,1.48-1.31,3-1.45,4.92-.33,4.38,2.09,7.08,4.23,10.12q14.06,19.95,28.15,39.87a5.24,5.24,0,0,0,2.32,1.94l-1.71-5.08c-2.46-7.35-3.22-15-3.84-22.62-.59-7.23-1-14.46-2.24-21.63-.2-1.18-.72-2.58.9-3.13,1.45-.49,2.17.6,2.88,1.68,3.42,5.15,5.89,10.81,8.42,16.41,2.37,5.23,4.64,10.5,6.62,15.91a53.87,53.87,0,0,1,2.16,31.85c-1.1,4.55-.14,7.92,2.52,11.66,5.49,7.73,11.12,15.24,18.53,21.21,1,.77,1.95,1.49,2.9,2.26.42.34.79.74,1.14,1.07,1.16-1.51.2-2.25-.15-3a136.75,136.75,0,0,1-9.22-30.19q-2-10.49-4.07-21c-.1-.54-.25-1.07-.36-1.6a1.44,1.44,0,0,1,1-1.9,1.54,1.54,0,0,1,2,.86l4.66,9.14c7.93,15.57,13.64,32,18.11,48.82a24.43,24.43,0,0,1,.77,5.68,3,3,0,0,0,1.25,2.84,167.61,167.61,0,0,0,15.68,9.26c.58-1.32-.13-2.13-.54-2.9-5.41-10.13-8.58-21-10.66-32.23q-.94-5-1.94-10.08c-.23-1.14-.42-2.21,1-2.69,1.13-.39,1.82.29,2.31,1.17,8.2,14.46,15.71,29.18,17.59,46.06a1.31,1.31,0,0,1,.06.4c-.93,3.83,1.26,5.52,4.31,7A184.67,184.67,0,0,1,253,513.88c.65.43,1.24,1.1,2.22,1,.84-.8,0-1.46-.33-2.06-8.94-16.34-16.86-33.18-24.3-50.26-1.91-4.38-5-8.13-8.26-11.65-8.6-9.34-17.34-18.56-25.86-28-12.66-14-24.87-28.33-34.7-44.58-6.31-10.43-11.85-21.27-17.26-32.19-1.28-2.58-2.58-5.14-3.77-7.76-2.66-5.84-7.28-9.86-12.23-13.53-5.25-3.89-10.65-7.58-15.95-11.4a12.07,12.07,0,0,0-6.14-1.87,91.56,91.56,0,0,1-17.89-3.37A62.6,62.6,0,0,1,81,305.13a6,6,0,0,1-2.67-2.46c-1.09-1.84-1.12-3.84.09-4.9a4,4,0,0,1,4.89-.49,10.71,10.71,0,0,1,4.68,6,4.88,4.88,0,0,0,3.65,3.36,48.64,48.64,0,0,0,14.26,2.4c-.65-1.59-1.82-2.31-2.73-3.19a61.88,61.88,0,0,1-11.92-15,14.54,14.54,0,0,0-2.67-3.59,20.34,20.34,0,0,1-3.56-5,8.66,8.66,0,0,1-.71-6.36,3.24,3.24,0,0,1,2.59-2.79,3.29,3.29,0,0,1,3.42,1.69,11.32,11.32,0,0,1,2.19,7.75c-.51,4.82,1.73,8.41,4.35,12a75.35,75.35,0,0,0,16.86,16.58c6.18,4.47,12.41,8.85,18.64,13.26.18.13.49.07,1.09.14-.69-3.32-2.54-6-3.93-8.85-9.76-19.81-18.64-40-25.21-61.09-.8-2.57-2.66-4-4.46-5.7-1-.92-2-.49-3-.2-8.73,2.4-16.47-.52-24-4.82a5.1,5.1,0,0,1-1-.73c-1.11-1.06-.93-2.07.52-2.31a16.17,16.17,0,0,1,3.61,0,87.3,87.3,0,0,0,12.13.23l-3.06-2.39a51.12,51.12,0,0,1-14.37-18.16,15.83,15.83,0,0,1-.85-2.31c-.37-1.2-.73-2.49.45-3.38s2.34-.41,3.43.21a91.55,91.55,0,0,1,12,8.5,33.42,33.42,0,0,0,5.86,4.14c-.8-3.19-1.59-6.39-2.4-9.57A62.19,62.19,0,0,1,87.48,208c-.35-4,2.87-5.21,5.9-3.37a14,14,0,0,1,3.76,3.72,51.55,51.55,0,0,1,5.81,9.88,26.59,26.59,0,0,0,2.55,4.72c1.26-.92,1.22-2.41,1.68-3.62a36.59,36.59,0,0,1,7.4-12.53c3-3.12,5.92-2.34,7.18,1.9a25.15,25.15,0,0,1,.22,12.17c-.38,2-.82,3.91-1.41,6.72a26.43,26.43,0,0,1,8.15-4.14,15.89,15.89,0,0,1,7.2-.48c2.45.45,3.12,1.66,2.46,4.14a4.39,4.39,0,0,1-.43,1.14c-5.59,9.25-11.82,17.67-23.78,18.56-.69.05-1.44.07-1.73.77-.92,2.21-2.71,3.69-4.25,5.38-1.36,1.49-.75,3.1-.19,4.62,2.42,6.55,4.86,13.1,7.4,19.61,6.24,16,13.8,31.32,21.4,46.65.52,1.05.7,2.4,2.4,2.86-.11-12.62.89-25.18-4.14-37.25a62.1,62.1,0,0,1-4-15.07,25.79,25.79,0,0,1-.27-3.67c0-1.43.38-2.8,1.86-3.32a3.8,3.8,0,0,1,4.1,1.07,7.75,7.75,0,0,1,2.43,6.69,7.42,7.42,0,0,1-.84,3.13c-2.3,3.47-1.58,6.83-.23,10.48a57.74,57.74,0,0,1,3.23,13.12,2.61,2.61,0,0,0,1.13,2.41,36.32,36.32,0,0,0,2.86-8.36c.58-2.66,1.11-5.34,1.78-8a7,7,0,0,1,3.5-4.78,3.82,3.82,0,0,1,4.55.31c1.36,1.23.9,2.76.25,4.16a16.4,16.4,0,0,1-4.92,6.37,9,9,0,0,0-3.23,5,30.57,30.57,0,0,1-2.16,5.72c-5.39,9.89-3.37,20.46-2.21,30.83.36,3.2,2.72,6.21,4.24,9.27,6.43,13,13,25.93,21,38.1,9.38,14.38,20.63,27.22,32.08,39.87,7.79,8.6,15.82,17,23.75,25.44a2.24,2.24,0,0,0,.71.34c.81-.48.42-1.16.22-1.75-4.23-13.16-7.69-26.6-13.7-39.13-4.27-8.89-8.57-17.76-12.81-26.66C184.53,351.86,172.56,322,164,290.88c-3.61-13.09-6.72-26.26-9.18-39.61-3.89-21.14-7.06-42.38-9.08-63.78-.33-3.5-2.54-6.53-3.68-9.86-.35-1-1.33-.63-2.11-.58a55.12,55.12,0,0,1-10.49-.11,20.68,20.68,0,0,1-13-6.91c-.62-.68-1.48-1.43-1-2.49.54-1.21,1.76-1.25,2.81-1,3.42.77,6.8,1.67,10.26,2.53.41-1.66-.9-2-1.57-2.67-4.91-4.75-8.66-10.21-10.32-16.94-.51-2.07-1.51-4.56.53-6.09s4.11.23,5.91,1.38a50.87,50.87,0,0,1,11.49,10.38c.83,1,1.34,2.4,3.19,2.9-.18-1.45-.32-2.72-.49-4a79.3,79.3,0,0,1-.54-16,16.87,16.87,0,0,1,.47-3.23c.65-2.37,2.32-3,4.25-1.47a13.78,13.78,0,0,1,3.49,4.52c3.29,6.15,6.55,12.33,7.3,19.4,1.57.15,1.67-1,2.05-1.74,3.29-6.26,8.11-11.12,13.51-15.46,2.78-2.24,4.63-1.42,5.21,2.28.65,4.17-.3,8.17-1.58,12.06-.84,2.55-2,5-3.36,8.2,2.06-.69,3.62-1.27,5.21-1.74a19.93,19.93,0,0,1,8-1c3.54.4,4.44,2.38,2.46,5.3a29.21,29.21,0,0,1-5.94,6.05,43.66,43.66,0,0,1-11.17,6.41,12.36,12.36,0,0,1-9.09.48c-1.79-.65-2.69-.33-3.52,1.3a6.1,6.1,0,0,1-3,2.66c-2.36,1.06-2.82,2.85-2.63,5.31.67,8.46,2,16.84,3.1,25.25,1,7.32,2.17,14.62,3.27,21.92.08.52.15,1,.71,1.3.19-.19.51-.35.55-.56,1.56-9.25,3.87-18.46,1.34-28a9.25,9.25,0,0,1-.32-2c-.11-3,1.41-4.62,4-4.42a4.21,4.21,0,0,1,4.15,5,8.94,8.94,0,0,1-2.41,5.07,4.36,4.36,0,0,0-1.28,3.29,90.29,90.29,0,0,1-3,22.26c-1.71,6.85-1.23,13.48.21,20.25,3.12,14.74,6.7,29.37,11.19,43.76a13.45,13.45,0,0,0,.63,1.43c.83,0,1-.59,1-1.09,2.35-14.4,5.48-28.67,6.7-43.27a45.33,45.33,0,0,0-.76-13.86A42.7,42.7,0,0,1,176,233.18c.1-3.54,1.36-5.1,3.93-5.1a5.48,5.48,0,0,1,5.25,5.66,11.48,11.48,0,0,1-1.72,6.24c-2.13,3.39-2.52,6.95-2.27,10.91.43,6.85-.79,13.61-1.78,20.36-.47,3.22-1,6.44-1.52,9.69,1.45.41,1.7-.78,2.22-1.43a27.19,27.19,0,0,0,6.21-14.82c.17-1.76.51-3.51.85-5.25a7.42,7.42,0,0,1,1.43-3.34A3.53,3.53,0,0,1,193,255a3.25,3.25,0,0,1,2,3.65A7.76,7.76,0,0,1,192.3,264a18.85,18.85,0,0,0-5.07,8.09c-1.83,4.9-5.07,9-8.62,12.7a9.48,9.48,0,0,0-2.49,5c-1.19,6-1.7,12.16-3.54,18A5.09,5.09,0,0,0,173,311,498.38,498.38,0,0,0,192,360c6.73,15.29,14.34,30.14,21.31,45.31,1.66,3.6,3.07,7.32,4.61,11,.57,1.34,1.21,2.66,1.82,4,1.36-.59,1.09-1.68,1.18-2.54,1.58-14.15,1.51-28.36,1.27-42.59,0-1.37-.21-2.74-.16-4.1.42-11.43-3-22-8.21-31.86-4.42-8.31-10.8-15.17-20.64-17.27a11.78,11.78,0,0,1-7.07-4.52,3,3,0,0,1-.44-3.44,3.29,3.29,0,0,1,3-1.75c2.71-.09,5,1.58,5.55,4.94.4,2.27,1.33,3.25,3.46,3.66,2.85.55,5.21,2.21,7.45,4,.8.66,1.35,1.72,2.82,1.85-.58-2.51-2-4.51-3-6.64A83,83,0,0,0,191.54,300a16.66,16.66,0,0,1-2.39-3.31,4.49,4.49,0,0,1,.27-5.36,3.84,3.84,0,0,1,4.43-1.1,4.69,4.69,0,0,1,3.34,4.24,12.26,12.26,0,0,1-.38,4.87,3.77,3.77,0,0,0,.94,3.71c8.14,10.3,13.26,22.29,18.59,34.14a46.56,46.56,0,0,0,3,5.82c.52-2.87,0-5.26-.31-7.62-2.91-26.38-5.79-52.75-8.92-79.11-1.33-11.14-3.18-22.22-4.93-33.3-.55-3.46-1.43-6.85-3.84-9.69-.94-1.1-1.56-1.65-3-1.08a24.7,24.7,0,0,1-7.87,1.67,23.48,23.48,0,0,1-13.24-3.08A8.87,8.87,0,0,1,175,209.1c-1-1.1-.68-2.1.71-2.41a15.2,15.2,0,0,1,4-.33c3.77.19,7.53.52,11.29.79.52,0,1.08.25,1.59-.49a35.15,35.15,0,0,1-10.84-11.29,26.65,26.65,0,0,1-3.12-8c-.35-1.76.44-2.65,2.17-2.43a13,13,0,0,1,3.06,1c4.55,1.82,8.55,4.65,12.48,7.43,1.19-.89.63-1.85.53-2.75a62.33,62.33,0,0,1-.22-13.5c.17-1.57,0-3.47,2-4.07,2.22-.67,3.58.8,4.73,2.38a43.83,43.83,0,0,1,6.11,12,11.17,11.17,0,0,0,1.53,3.81c1.45-.26,1.64-1.68,2.25-2.62a31.08,31.08,0,0,1,9-9.22c3.09-2,5.15-1.12,5.72,2.61a20.87,20.87,0,0,1-3.05,14.49c-.78,1.26-1.65,2.45-2.47,3.66,1,1.29,2.06.44,3,.42a22.25,22.25,0,0,1,7.6.9c.76.25,1.69.53,1.68,1.53s-.74,1.38-1.51,1.71c-3.21,1.37-6.41,2.78-9.64,4.12-3.87,1.6-7.77,3.11-12.12,2.36-.64-.11-1.44-.26-1.78.53-1.06,2.46-2.77,4.7-2.3,7.68q2.69,17,5.34,34.06a2.1,2.1,0,0,0,1.22,1.65c1.34-6.8,5.62-12.68,3.91-20.08a9.07,9.07,0,0,1,.92-6.76,4.55,4.55,0,0,1,5.48-2.28c1.83.74,2.67,2.67,2.18,5.19-.4,2-1,4.39-2.62,5.37-2.64,1.58-2.71,4.13-3.48,6.5a153.4,153.4,0,0,0-4.5,16.55c-1.16,5.58-.8,11.15-.21,16.73,2.73,26.1,5.71,52.18,8.22,78.3a306.85,306.85,0,0,1-.4,63.83c-.3,2.67,0,5.44-1.36,8-.64,1.21.3,2.67.64,4a271.24,271.24,0,0,0,14.66,41.38c5.5,12.25,11.53,24.22,17.74,36.11.63,1.2,1.4,2.33,2.09,3.47.74-.31.74-.89.74-1.4q0-17.61,1.67-35.13a16,16,0,0,0-4.23-13.1,86.4,86.4,0,0,1-16.11-25.56c-4.42-11-5.41-22.55-5.22-34.25,0-1.27.17-2.56,1.74-2.79s2.27.66,2.83,1.87c1.84,4,3.8,7.9,5.46,12,4.7,11.41,8.55,23.13,12.18,34.92,1.11,3.6,2.39,7.14,3.62,10.79,1.36-.76,1-1.84,1.1-2.7,1-11,2.18-22,3.77-33,.26-1.8-.12-2.65-1.79-3.83-2.38-1.69-3.78-4.63-5.15-7.3a136.61,136.61,0,0,1-14.1-42.72q-1.59-10.76-3.16-21.52c-.12-.81-.15-1.63-.22-2.45-.09-1,0-2,1.12-2.34a2.25,2.25,0,0,1,2.56.78c.75,1,1.49,2,2.17,3C257,362.86,264,380.49,266.56,399.86a3.15,3.15,0,0,0,.69,1.9c.9-.41.79-1.3.9-2.05a213.94,213.94,0,0,0,1.92-43.32,4.88,4.88,0,0,0-2.09-4.07c-7-5.41-13.73-11.17-19.27-18.23a92.21,92.21,0,0,1-15.92-32.18c-.41-1.43-1.49-3.35.51-4.38s2.91.74,4,2c8.94,10.69,18,21.27,25.58,33,1.9,3,3.57,6.08,5.61,9.57.53-2.7-.07-4.79-.34-6.89-1.6-12.62-3-25.28-5.12-37.83-.71-4.14-3.51-7.31-5.4-10.9-.72-1.37-2.16-.61-3.32-.33a53.94,53.94,0,0,1-13.58,1.71c-4.62-.09-8.77-1.53-12-5.16-.81-.92-1.78-1.92-1.23-3.26.64-1.54,2.08-1.44,3.46-1.33,3.9.31,7.79.64,11.69.91,1.16.08,2.33,0,3.56,0a1.87,1.87,0,0,0-1.2-1.41c-9.21-5-14.15-13.29-17.21-23a11.1,11.1,0,0,1-.36-1.6c-.19-1.21-.54-2.56.7-3.36s2.54-.26,3.7.62a181.41,181.41,0,0,1,18.25,16.38c.91.9,1.59,2.18,3.39,2.62a17,17,0,0,0-1.08-4.89c-1.86-6.62-3.3-13.31-2.53-20.23.2-1.8-.25-4.2,2.15-4.79s3.64,1.46,4.75,3.16a53.41,53.41,0,0,1,7.35,18c1.42-1,1.34-2.57,1.74-3.83a31.88,31.88,0,0,1,7.31-13c.91-.94,1.78-2.08,3.42-1.71,1.87.43,2.07,2,2.38,3.47,1,4.79.42,9.52-.6,14.21-.32,1.46-.73,2.9-1.11,4.41,1.53.15,2.14-1.1,3-1.78,3.11-2.4,6.3-4.62,10.13-5.72a17.73,17.73,0,0,1,2-.5c4.92-.82,6.15.59,4.36,5.19-2.72,7-7.27,12.32-14.16,15.4a104.55,104.55,0,0,1-11.59,4.71c-1.47.46-2.09,1.08-1.92,2.86.32,3.43.28,6.91-3,9.22a2.05,2.05,0,0,0-.59,2.23c2.51,13.73,4.14,27.59,6.14,41.39,0,.23.3.43.46.66,1.17-.35,1.05-1.48,1.26-2.33,4.29-17.64,11.67-33.93,20.5-49.6.66-1.18,1.16-2.61,3-2.09s1.52,2,1.66,3.36a57.53,57.53,0,0,1,0,10.24A113.8,113.8,0,0,1,288,337c-3.24,7-8.36,12.63-13,18.6a6.28,6.28,0,0,0-1.66,4.38,210.45,210.45,0,0,1-.8,28.65c-.06.66-.29,1.36.37,1.92,1.05-.3,1.2-1.34,1.56-2.13,6.21-13.39,14.41-25.48,23.27-37.14,2-2.69,4.12-5.37,6.14-8.08.81-1.09,1.73-1.73,3.09-1.16s1.15,1.76,1.12,2.83a28.31,28.31,0,0,1-1.37,7.63c-4.16,13.47-9.64,26.31-17.5,38A103.87,103.87,0,0,1,271.61,410a6.9,6.9,0,0,0-2.61,4.35c-2.76,18.63-4.89,37.34-6.06,56.17,0,.5-.25,1.05.17,1.52.69.12.91-.44,1.14-.88a117.07,117.07,0,0,1,26.82-33.83c2.34-2,4.64-4.12,7-6.17,1-.89,2.06-2,3.54-1.27,1.64.86.77,2.38.57,3.64-1.58,10-6.41,18.45-12.27,26.34a96.82,96.82,0,0,1-19.16,19.66l-2.25,1.72c-4.68,3.61-7.86,7.89-7.39,14.42.3,4.21-.19,8.46-.29,12.7-.16,7,1.71,13.45,4.67,19.69,1.64,3.46,3.22,7,4.82,10.44a12.25,12.25,0,0,1,.61,1.53c.3,1,1.08,2.25-.37,2.8-1.29.49-1.44-.94-1.81-1.71q-3.9-8.15-7.7-16.35a11.32,11.32,0,0,0-4.2-4.9c-8.23-5.31-16.4-10.7-25-15.38a9.79,9.79,0,0,0-8.06-.91,208.76,208.76,0,0,1-27.57,6.11c-12.45,1.93-25,1.58-37.48.18-.4,0-.8-.13-1.2-.21-.67-.14-1.44-.31-1.61-1.05-.23-1,.63-1.47,1.36-1.72,3.81-1.33,7.63-2.65,11.49-3.84,14.39-4.42,29.2-6.12,44.22-6.42.91,0,1.88.32,3.07-.7-4.27-2.58-8.33-5.2-12.56-7.48a16.36,16.36,0,0,1-3.72-2.38,14.56,14.56,0,0,0-8.78-3.75c-6.33-.77-12.66-.26-19-.49a94,94,0,0,1-25.43-4.68c-9.41-3-18.75-6.31-28-10-.63-.25-1.27-.47-1.88-.76s-1-.65-.8-1.23a2,2,0,0,1,1.11-1,4.77,4.77,0,0,1,2-.12c16.89,2,33.77,4,50.65,6,3.72.46,7.4,1.3,11.11,2ZM295.28,289.52c-8.81,12.17-22,48.11-20.12,56.27.47-1.57.64-2.39,1-3.14,3.54-8.39,7.18-16.73,10.25-25.31.46-1.29.81-3.59,2.67-2.82s.1,2.39-.28,3.49c-3.08,8.87-6.76,17.5-10.36,26.15-.48,1.16-1.24,2.29-1.09,3.92C287.16,339,297.36,305.78,295.28,289.52Zm-51,59.85c2.34,20.94,5.49,40.87,15.34,59.33.88-1.1.32-1.86.13-2.6-1.19-4.5-2.45-9-3.62-13.47-1.76-6.75-3.5-13.5-5.16-20.27-.29-1.2-1.15-3,.68-3.48s1.49,1.63,1.77,2.63c3,10.67,5.88,21.34,8.66,32.05a36.53,36.53,0,0,0,2.29,7.22C265,393.45,256,364.53,244.24,349.37Zm-92.48,88.15c-6.85-7.94-45.25-22.73-54.16-20.89,14,11.59,28.5,21.74,47.51,22.52a1.75,1.75,0,0,0-1.37-1.15c-5-1.58-10-3.21-15.09-4.7a52.8,52.8,0,0,1-12.42-4.94,26.74,26.74,0,0,1-2.36-1.6,1.09,1.09,0,0,1-.39-1.44,1.23,1.23,0,0,1,1.7-.61,14.1,14.1,0,0,1,1.76,1,35.89,35.89,0,0,0,7.74,3.57c8.67,2.62,17.4,5,25.91,8.15A4.17,4.17,0,0,0,151.76,437.52Zm146.57-2.71a110.2,110.2,0,0,0-35.63,45.61,8.26,8.26,0,0,0,3.47-3.25c5.87-7.58,11.69-15.2,17.55-22.8,1.15-1.5,2.32-3,3.59-4.38.67-.74,1.57-1,2.49.26-3.11,4.18-6.23,8.42-9.38,12.62S274.27,471,271.19,475l.79.56C283.92,464.16,294.77,452,298.33,434.81Zm5.91-87.38c-13.61,16.74-25.57,34.42-32.46,55.22,1.5-.76,2.26-2.16,3.14-3.43,6.83-9.77,13.35-19.73,18.52-30.56.54-1.13,1.06-3.22,2.65-2.33s-.13,2.37-.61,3.41a161.41,161.41,0,0,1-13.69,24c-.64.95-1.7,1.81-1.54,3.51C289.19,388.93,303.68,359.08,304.23,347.43Zm-154.54,36c1.06,17.7,1.82,34.79,10.51,51.15a23.9,23.9,0,0,0,0-2.71c-.81-5.41-1.62-10.82-2.5-16.21-.55-3.37-1.25-6.72-1.87-10.08-.19-1-.16-2.07,1-2.33,1.41-.32,1.32,1,1.54,1.85,1.34,5.45,2.32,11,3.15,16.5.8,5.37,1.4,10.78,2.73,16.2.36-.35.62-.5.71-.71a4.59,4.59,0,0,0,.28-1.18,51.93,51.93,0,0,0-1-18.31c-2-8.59-5.76-16.51-9.46-24.43C153.33,390.09,152.37,386.75,149.69,383.43Zm13.26,123.94c19.6,2.88,38.6,0,57.37-5.33-4.13-.76-8.22-.28-12.3.22a219.9,219.9,0,0,0-23,4.36c-.72.17-1.55.61-2.19-.94,9.11-3.49,18.8-4.34,28.16-6.55C194.55,499.22,178.41,501.23,162.95,507.37Zm-12-335c9.29-4.5,13.31-8.38,16.28-15.7A31.83,31.83,0,0,0,169.8,142C159.22,149.76,154.1,160,150.92,172.4ZM117.74,208c-6.86,5.36-12.74,24.85-9.87,32.66C117.65,231.62,122.27,216.35,117.74,208Zm-6.44,34.49c2.55,3,5.4,2.29,8,1.18,7.39-3.19,12-9.35,15.71-16.22.94-1.73.33-2.53-1.59-2.62A12.19,12.19,0,0,0,127.9,226a24.56,24.56,0,0,0-10.45,8.62A66.24,66.24,0,0,1,111.3,242.54Zm-2.78,129.21A29.84,29.84,0,0,0,92.85,351a14,14,0,0,0-3-1c-1.17-.3-1.71.36-1.91,1.48a8.28,8.28,0,0,0,.53,4,19.35,19.35,0,0,0,8,10.49A50.77,50.77,0,0,0,108.52,371.75Zm32.2-235c-3.27,8.44.53,29.14,6.15,34.88C152,158.87,147.3,147.92,140.72,136.79ZM102.39,242a18.24,18.24,0,0,0,1.33-11.41,52.68,52.68,0,0,0-10-21.71c-.68-.9-1.28-2.17-3.19-1.89A83.88,83.88,0,0,0,102.39,242ZM77.72,370.55c6.38,5.84,12.63,9.59,20.51,9.5a23.62,23.62,0,0,0,8.66-1.74c.81-.33,1.43-.77,1.39-1.74s-.7-1.08-1.34-1.32c-5.85-2.13-11.65-4.48-17.88-5.23A28.11,28.11,0,0,0,77.72,370.55ZM294.47,258.41a6.85,6.85,0,0,0-5.13.78,35.05,35.05,0,0,0-10.54,8c-3.08,3.38-6.12,6.81-9.15,10.24-.56.63-1.67,1-1.15,2.42,5.24-1.74,10.44-3.52,15.16-6.38C289.19,270.07,292.38,264.87,294.47,258.41ZM119.67,146.18c-.44,9.92,11.66,24,22,25.63C138.54,162.72,126.41,148.6,119.67,146.18Zm-7.06,223.6a35.82,35.82,0,0,0,1.33-11.31,34.33,34.33,0,0,0-6.57-18.22c-.69-1-1.43-2.34-2.8-1.92s-1.38,1.92-1.55,3.11a20.41,20.41,0,0,0,.85,8.47C105.81,356.91,109.22,363.29,112.61,369.77Zm17.71,98.81c16.17,5.88,31.48,11.62,48.23,10.33-4.37-2-9.11-1.92-13.7-2.7s-9.49-.77-14.35-2.25a2.3,2.3,0,0,1,2.72-1.46c9.34,1.35,18.8,1.67,28,3.81.77.18,1.73,1,2.42-.24C177.68,473.28,137.58,467.46,130.32,468.58ZM231.42,253.49c1.33,10.26,11.91,25.14,25.93,24.93C249.14,269.58,241.05,261.14,231.42,253.49Zm-76.15-78.93c2.5,1.66,4.79,2.6,7.26,1.94a34.52,34.52,0,0,0,18.19-12.1,1.81,1.81,0,0,0,.55-1.85c-.42-1-1.38-.66-2.14-.66a21.07,21.07,0,0,0-5.88,1.32C166.33,165.19,161.22,170,155.27,174.56Zm81.85,129.62a72.61,72.61,0,0,0,13.41,27.32c.36-2-.85-2.74-1.41-3.76-.79-1.43-1.74-2.77-2.54-4.2a1.12,1.12,0,0,1,.5-1.7c.63-.29,1,.21,1.36.61.51.64.9,1.37,1.36,2a181.68,181.68,0,0,0,12.68,16c.59.68,1,1.62,2.63,1.61C257.77,327.81,247.46,316,237.12,304.18ZM252.2,445.9c-3.94-13.64-7.91-27.24-14.5-40.43-2.26,11.06,4.62,36,11.57,41.88-.66-1.44-1.18-2.54-1.67-3.65a163.44,163.44,0,0,1-6.17-15.17c-.32-1-1.28-2.28.07-2.89s1.6,1,2,1.92c1.2,2.76,2.26,5.57,3.44,8.34C248.4,439.37,249.73,442.92,252.2,445.9Zm23.23-200.21c-5.66,4.87-11.1,22.86-9.31,30.79C273.36,270.27,278.15,254.44,275.43,245.68Zm-51.29-64.44c-8,5.45-13.09,14.81-12.88,23.24C220.67,201.48,226.93,190.4,224.14,181.25Zm36.79,95.52c2.75-9.16-1.81-28.06-7.72-32.88C251.57,252,255.83,270.48,260.94,276.76ZM200.34,177c-1.06,10-1.33,19.87,5.88,28.43C211,194.33,205.66,185.66,200.34,177ZM97.48,241.55C91.94,231.58,83.4,224.83,74,219,78.91,229.64,85.88,238.08,97.48,241.55Zm86.38,190.06c-.92,9.48,7.83,38.61,13,44.26-1.76-5.21-3.45-10.22-5.13-15.24a32.61,32.61,0,0,1-.93-3.14c-.18-.82-.17-1.84.68-2.14,1.06-.38,1.26.72,1.53,1.45.61,1.67,1.13,3.37,1.74,5,.75,2.05,1.55,4.09,2.35,6.12s1.59,4,2.38,6A220.14,220.14,0,0,0,183.86,431.61Zm17.31-225.32c-2.3-8-11.93-16.92-18.56-17.4C185,198,193.06,205.66,201.17,206.29ZM117.37,369c6.24-6.16,9.42-13.3,7.1-23A39.82,39.82,0,0,0,117.37,369Zm95.92,89.43a81.91,81.91,0,0,0,4.66,20.3c.29.75.39,2.22,1.82,1.41,1.82-1,2,.39,2.42,1.53.51,1.41,1,2.84,1.51,4.25.46,1.25,1,2.49,1.43,3.73C223.17,478.46,218.73,468.27,213.29,458.46Zm18.13-177.6c5.07,5.6,17.23,6.48,24.67,2.09C252.1,281.28,243,280.48,231.42,280.86ZM109.33,381.57c-6.92,1.25-11.85,5.16-15,11.35-.31.6-.55,1.32.1,1.85.45.37,1,.16,1.48-.14A43.43,43.43,0,0,0,109.33,381.57Zm120-178.2c-7-1.65-12.72,2-18.65,4.76C217.89,210.82,223.24,205.85,229.28,203.37ZM96.35,246c-5.43-2.66-11.22-2.22-17-2.23C84.76,246.76,90.28,248.6,96.35,246ZM138,174.86c-4.48-2.53-13.77-5-17.25-4.63C125.73,174.79,131.43,175.52,138,174.86Zm-34.11,69.45c-.81.51-3,.22-1.87,2.06.94,1.58,2.61,2.73,4,4,.3.29.72.16,1.1-.06,1.15-.67,2.64-3.52,2.15-4.59-.72-1.55-2.38-1.52-3.76-1.82C105.07,243.85,104.51,244.17,103.94,244.32Zm76.21-35.24c4.75,3.1,10,3.61,14.71,1.43C190.88,208.88,183.49,208.16,180.16,209.07Zm81.2,77.44c.82,2.29,2.34,4,3.35,3.78s1.94-3.94,1.15-5.5-2.29-.88-3.52-.62C260.91,284.49,260.83,285.43,261.36,286.52Zm-81.25-46.45c1.51-3.16,2.69-5.39,1.88-8.09-.27-.92-.76-1.88-1.91-1.74-.93.11-1.16,1-1.23,1.82A15.51,15.51,0,0,0,180.11,240.06Zm-28.5-63.81c-1.54-.49-3.06.55-4.63.06a1,1,0,0,0-1.28,1.07c.14,1.18.3,2.49,1.46,3.17s2.05-.14,2.83-.82C151,178.88,152,177.93,151.61,176.26ZM134,269.41c-.34,3.26-.16,5.8,1.09,8.37C137.17,274.13,137.06,272.92,134,269.41Zm60.05,28c0-1.81.69-3.55-1.09-4.84a.67.67,0,0,0-1,.15c-1.08,1.89,0,3.26,1.16,4.6C193.2,297.41,193.39,297.37,194.1,297.43ZM221,235a7.13,7.13,0,0,0,2.44-5c0-.51,0-1.17-.6-1.38s-.92.34-1.18.77C220.75,230.9,220.64,232.58,221,235Zm-15.73-21.27c.88-1.74,2.06-2.81.86-4.33a1.25,1.25,0,0,0-1.78,0C202.83,210.78,204,211.88,205.29,213.69ZM87.42,276.13c-.27,4.51-.27,4.51,2.14,6.49C89.29,280.47,89.23,278.47,87.42,276.13Zm62.63,14.35c1.32-1.48,3.13-2.74,2.45-5.93C150.51,286.49,149.7,288.21,150.05,290.48ZM81.2,299.37c.26,3.36.34,3.45,3.42,3.83C83.73,301.65,83,300.12,81.2,299.37ZM161,207.87c.46-.54.7-.71.78-.94.38-1.15.88-2.33-.25-3.37a.72.72,0,0,0-1.05,0,3.23,3.23,0,0,0-.19,3.1A6.65,6.65,0,0,0,161,207.87Zm30.42,49.86a4.17,4.17,0,0,0-1.32,4.16C191.62,260.6,192,259.36,191.44,257.72ZM115.91,376.08a1.53,1.53,0,0,0-1.88-.83.81.81,0,0,0-.56,1.25c.46.8,1.13,1.63,2.21,1.19C116.24,377.47,116.14,376.8,115.91,376.08ZM191,317.85c-.27-1.83-.51-3-2.29-3C188.55,316.41,189.49,317,191,317.85Zm64,18.65c-.19-1.46-.92-1.92-2.23-2.8a9.25,9.25,0,0,0,.8,1.62A13.78,13.78,0,0,0,255,336.5Z" fill="#363636"/>

<path class="cls-5" d="M478.94,472c3.7-.67,7.38-1.51,11.11-2,16.88-2.08,33.76-4,50.65-6a4.77,4.77,0,0,1,2,.12,2,2,0,0,1,1.11,1c.23.58-.3,1-.8,1.23s-1.26.51-1.88.76c-9.21,3.65-18.54,6.93-28,10a94,94,0,0,1-25.43,4.68c-6.33.23-12.65-.28-19,.49a14.56,14.56,0,0,0-8.78,3.75,16.36,16.36,0,0,1-3.72,2.38c-4.24,2.27-8.29,4.9-12.56,7.48,1.18,1,2.16.68,3.07.7,15,.3,29.83,2,44.22,6.42,3.86,1.18,7.67,2.51,11.49,3.84.73.25,1.59.7,1.36,1.72-.17.74-.93.92-1.61,1.05-.4.08-.8.17-1.2.21-12.51,1.41-25,1.75-37.48-.18a208.76,208.76,0,0,1-27.57-6.11,9.79,9.79,0,0,0-8.06.91c-8.62,4.68-16.79,10.07-25,15.38a11.32,11.32,0,0,0-4.2,4.9q-3.81,8.2-7.7,16.35c-.37.77-.52,2.2-1.81,1.71-1.46-.55-.68-1.8-.37-2.8a12.25,12.25,0,0,1,.61-1.53c1.6-3.48,3.18-7,4.82-10.44,3-6.24,4.83-12.73,4.67-19.69-.1-4.23-.59-8.49-.29-12.7.47-6.53-2.71-10.8-7.39-14.42l-2.25-1.72a96.82,96.82,0,0,1-19.16-19.66c-5.86-7.89-10.69-16.34-12.27-26.34-.2-1.26-1.07-2.78.57-3.64,1.47-.77,2.52.38,3.54,1.27,2.32,2.05,4.62,4.14,7,6.17a117.07,117.07,0,0,1,26.82,33.83c.24.44.45,1,1.14.88.42-.47.2-1,.17-1.52-1.17-18.82-3.3-37.53-6.06-56.17A6.9,6.9,0,0,0,388,410a103.87,103.87,0,0,1-17.64-19.47c-7.85-11.68-13.34-24.52-17.5-38a28.31,28.31,0,0,1-1.37-7.63c0-1.07-.15-2.29,1.12-2.83s2.28.06,3.09,1.16c2,2.72,4.09,5.39,6.14,8.08,8.86,11.67,17.06,23.75,23.27,37.14.37.79.51,1.83,1.56,2.13.66-.56.43-1.26.37-1.92a210.45,210.45,0,0,1-.8-28.65,6.28,6.28,0,0,0-1.66-4.38c-4.64-6-9.76-11.64-13-18.6a113.8,113.8,0,0,1-10.39-39.71,57.53,57.53,0,0,1,0-10.24c.14-1.35-.08-2.86,1.66-3.36s2.29.92,3,2.09c8.83,15.67,16.2,32,20.5,49.6.21.85.09,2,1.26,2.33.17-.23.43-.43.46-.66,2-13.8,3.62-27.66,6.14-41.39a2.05,2.05,0,0,0-.59-2.23c-3.24-2.31-3.28-5.79-3-9.22.17-1.79-.44-2.41-1.92-2.86a104.55,104.55,0,0,1-11.59-4.71c-6.9-3.08-11.44-8.4-14.16-15.4-1.79-4.6-.56-6,4.36-5.19a17.73,17.73,0,0,1,2,.5c3.83,1.09,7,3.31,10.13,5.72.89.69,1.5,1.94,3,1.78-.38-1.51-.79-2.95-1.11-4.41-1-4.69-1.63-9.42-.6-14.21.31-1.42.5-3,2.38-3.47,1.64-.38,2.5.76,3.42,1.71a31.88,31.88,0,0,1,7.31,13c.39,1.26.31,2.86,1.74,3.83a53.41,53.41,0,0,1,7.35-18c1.11-1.7,2.32-3.75,4.75-3.16s2,3,2.15,4.79c.77,6.92-.67,13.61-2.53,20.23a17,17,0,0,0-1.08,4.89c1.79-.45,2.47-1.72,3.39-2.62a181.41,181.41,0,0,1,18.25-16.38c1.17-.88,2.38-1.49,3.7-.62s.89,2.15.7,3.36a11.1,11.1,0,0,1-.36,1.6c-3.06,9.71-8,18-17.21,23a1.87,1.87,0,0,0-1.2,1.41c1.23,0,2.4.06,3.56,0,3.9-.28,7.8-.6,11.69-.91,1.37-.11,2.82-.21,3.46,1.33.55,1.34-.42,2.35-1.23,3.26-3.19,3.64-7.34,5.08-12,5.16a53.94,53.94,0,0,1-13.58-1.71c-1.16-.28-2.59-1-3.32.33-1.89,3.59-4.69,6.76-5.4,10.9-2.16,12.55-3.52,25.2-5.12,37.83-.27,2.1-.87,4.2-.34,6.89,2-3.49,3.7-6.61,5.61-9.57,7.57-11.77,16.64-22.36,25.58-33,1-1.24,2-3,4-2s.92,2.94.51,4.38a92.21,92.21,0,0,1-15.92,32.18c-5.53,7.06-12.25,12.81-19.27,18.23a4.88,4.88,0,0,0-2.09,4.07,213.94,213.94,0,0,0,1.92,43.32c.11.75,0,1.65.9,2.05a3.15,3.15,0,0,0,.69-1.9c2.51-19.37,9.57-37,20.33-53.21.68-1,1.41-2,2.17-3a2.25,2.25,0,0,1,2.56-.78c1.09.33,1.21,1.32,1.12,2.34-.07.82-.11,1.64-.22,2.45q-1.57,10.76-3.16,21.52a136.61,136.61,0,0,1-14.1,42.72c-1.38,2.67-2.77,5.61-5.15,7.3-1.67,1.19-2.05,2-1.79,3.83,1.59,10.94,2.77,21.93,3.77,33,.08.86-.26,1.94,1.1,2.7,1.23-3.65,2.51-7.19,3.62-10.79,3.62-11.79,7.47-23.51,12.18-34.92,1.67-4,3.63-8,5.46-12,.56-1.21,1.41-2.08,2.83-1.87s1.72,1.52,1.74,2.79c.19,11.7-.8,23.2-5.22,34.25a86.4,86.4,0,0,1-16.11,25.56,16,16,0,0,0-4.23,13.1q1.65,17.51,1.67,35.13c0,.51,0,1.09.74,1.4.69-1.14,1.47-2.27,2.09-3.47,6.21-11.89,12.24-23.86,17.74-36.11a271.24,271.24,0,0,0,14.66-41.38c.35-1.3,1.29-2.75.64-4-1.36-2.55-1.06-5.32-1.36-8a306.85,306.85,0,0,1-.4-63.83c2.52-26.12,5.49-52.2,8.22-78.3.58-5.58.95-11.15-.21-16.73a153.4,153.4,0,0,0-4.5-16.55c-.77-2.37-.84-4.93-3.48-6.5-1.65-1-2.23-3.33-2.62-5.37-.49-2.51.35-4.44,2.18-5.19a4.55,4.55,0,0,1,5.48,2.28,9.07,9.07,0,0,1,.92,6.76c-1.7,7.4,2.58,13.28,3.91,20.08a2.1,2.1,0,0,0,1.22-1.65q2.67-17,5.34-34.06c.47-3-1.24-5.22-2.3-7.68-.34-.79-1.13-.64-1.78-.53-4.35.74-8.25-.76-12.12-2.36-3.23-1.34-6.43-2.75-9.64-4.12-.78-.33-1.5-.82-1.51-1.71s.92-1.28,1.68-1.53a22.25,22.25,0,0,1,7.6-.9c1,0,2.07.88,3-.42-.82-1.21-1.69-2.4-2.47-3.66A20.87,20.87,0,0,1,431.68,182c.57-3.73,2.63-4.62,5.72-2.61a31.08,31.08,0,0,1,9,9.22c.62.94.81,2.36,2.25,2.62a11.17,11.17,0,0,0,1.53-3.81,43.83,43.83,0,0,1,6.11-12c1.15-1.58,2.51-3,4.73-2.38,2,.6,1.85,2.5,2,4.07a62.33,62.33,0,0,1-.22,13.5c-.1.9-.65,1.86.53,2.75,3.93-2.77,7.92-5.61,12.48-7.43a13,13,0,0,1,3.06-1c1.73-.22,2.52.66,2.17,2.43a26.65,26.65,0,0,1-3.12,8,35.15,35.15,0,0,1-10.84,11.29c.51.75,1.07.53,1.59.49,3.76-.27,7.53-.6,11.29-.79a15.2,15.2,0,0,1,4,.33c1.39.3,1.7,1.31.71,2.41a8.87,8.87,0,0,1-2.24,1.74,23.48,23.48,0,0,1-13.24,3.08,24.7,24.7,0,0,1-7.87-1.67c-1.4-.58-2,0-3,1.08-2.41,2.84-3.3,6.23-3.84,9.69-1.75,11.09-3.6,22.17-4.93,33.3-3.14,26.35-6,52.73-8.92,79.11-.26,2.36-.82,4.75-.31,7.62a46.56,46.56,0,0,0,3-5.82c5.33-11.86,10.45-23.84,18.59-34.14a3.77,3.77,0,0,0,.94-3.71,12.26,12.26,0,0,1-.38-4.87,4.69,4.69,0,0,1,3.34-4.24,3.84,3.84,0,0,1,4.43,1.1,4.49,4.49,0,0,1,.27,5.36,16.66,16.66,0,0,1-2.39,3.31,83,83,0,0,0-13.38,20.07c-1,2.14-2.41,4.14-3,6.64,1.47-.13,2-1.2,2.82-1.85,2.24-1.83,4.61-3.48,7.45-4,2.14-.42,3.06-1.39,3.46-3.66.59-3.36,2.84-5,5.55-4.94a3.29,3.29,0,0,1,3,1.75,3,3,0,0,1-.44,3.44,11.78,11.78,0,0,1-7.07,4.52c-9.84,2.11-16.22,9-20.64,17.27-5.22,9.81-8.63,20.44-8.21,31.86.05,1.36-.14,2.73-.16,4.1-.24,14.22-.31,28.44,1.27,42.59.1.86-.18,1.95,1.18,2.54.62-1.36,1.25-2.67,1.82-4,1.55-3.65,3-7.37,4.61-11,7-15.16,14.58-30,21.31-45.31a498.38,498.38,0,0,0,18.94-49,5.09,5.09,0,0,0,.47-3.18c-1.84-5.87-2.35-12-3.54-18a9.48,9.48,0,0,0-2.49-5c-3.55-3.74-6.79-7.8-8.62-12.7a18.85,18.85,0,0,0-5.07-8.09,7.76,7.76,0,0,1-2.68-5.34,3.25,3.25,0,0,1,2-3.65,3.53,3.53,0,0,1,4.38,1.05,7.42,7.42,0,0,1,1.43,3.34c.34,1.74.68,3.49.85,5.25a27.19,27.19,0,0,0,6.21,14.82c.52.65.77,1.83,2.22,1.43-.51-3.25-1-6.46-1.52-9.69-1-6.75-2.21-13.51-1.78-20.36.25-4-.14-7.52-2.27-10.91a11.48,11.48,0,0,1-1.72-6.24,5.48,5.48,0,0,1,5.25-5.66c2.57,0,3.83,1.56,3.93,5.1a42.7,42.7,0,0,1-1.34,10.57,45.33,45.33,0,0,0-.76,13.86c1.22,14.6,4.35,28.87,6.7,43.27.08.5.22,1.09,1,1.09a13.45,13.45,0,0,0,.63-1.43c4.49-14.39,8.07-29,11.19-43.76,1.43-6.77,1.92-13.41.21-20.25a90.29,90.29,0,0,1-3-22.26A4.36,4.36,0,0,0,497,211a8.94,8.94,0,0,1-2.41-5.07,4.21,4.21,0,0,1,4.15-5c2.56-.21,4.08,1.46,4,4.42a9.25,9.25,0,0,1-.32,2c-2.53,9.5-.22,18.71,1.34,28,0,.21.35.37.55.56.56-.25.64-.77.71-1.3,1.1-7.31,2.3-14.6,3.27-21.92,1.11-8.41,2.43-16.79,3.1-25.25.19-2.46-.27-4.25-2.63-5.31a6.1,6.1,0,0,1-3-2.66c-.83-1.63-1.74-1.95-3.52-1.3a12.36,12.36,0,0,1-9.09-.48A43.66,43.66,0,0,1,482,171.27a29.21,29.21,0,0,1-5.94-6.05c-2-2.92-1.08-4.89,2.46-5.3a19.93,19.93,0,0,1,8,1c1.59.47,3.15,1,5.21,1.74-1.33-3.22-2.52-5.65-3.36-8.2-1.28-3.89-2.23-7.89-1.58-12.06.58-3.7,2.43-4.52,5.21-2.28,5.39,4.34,10.22,9.21,13.51,15.46.38.72.49,1.89,2.05,1.74.75-7.07,4-13.25,7.3-19.4a13.78,13.78,0,0,1,3.49-4.52c1.94-1.51,3.61-.9,4.25,1.47a16.87,16.87,0,0,1,.47,3.23,79.3,79.3,0,0,1-.54,16c-.17,1.27-.31,2.54-.49,4,1.85-.5,2.35-1.9,3.19-2.9a50.87,50.87,0,0,1,11.49-10.38c1.79-1.15,3.82-2.93,5.91-1.38s1,4,.53,6.09c-1.66,6.73-5.42,12.19-10.32,16.94-.67.65-2,1-1.57,2.67,3.46-.86,6.85-1.76,10.26-2.53,1.05-.24,2.27-.2,2.81,1,.47,1.06-.39,1.81-1,2.49a20.68,20.68,0,0,1-13,6.91,55.12,55.12,0,0,1-10.49.11c-.78-.05-1.76-.45-2.11.58-1.14,3.33-3.35,6.36-3.68,9.86-2,21.4-5.19,42.63-9.08,63.78-2.46,13.34-5.57,26.52-9.18,39.61-8.6,31.15-20.57,61-34.43,90.1-4.24,8.9-8.55,17.77-12.81,26.66-6,12.53-9.48,26-13.7,39.13-.19.6-.59,1.28.22,1.75a2.24,2.24,0,0,0,.71-.34c7.93-8.47,16-16.84,23.75-25.44,11.46-12.65,22.7-25.5,32.08-39.87,7.94-12.17,14.52-25.09,21-38.1,1.51-3.06,3.88-6.07,4.24-9.27,1.15-10.36,3.18-20.94-2.21-30.83a30.57,30.57,0,0,1-2.16-5.72,9,9,0,0,0-3.23-5,16.4,16.4,0,0,1-4.92-6.37c-.65-1.4-1.11-2.93.25-4.16a3.82,3.82,0,0,1,4.55-.31,7,7,0,0,1,3.5,4.78c.67,2.64,1.2,5.31,1.78,8a36.32,36.32,0,0,0,2.86,8.36,2.61,2.61,0,0,0,1.13-2.41,57.74,57.74,0,0,1,3.23-13.12c1.34-3.65,2.06-7-.23-10.48a7.42,7.42,0,0,1-.84-3.13,7.75,7.75,0,0,1,2.43-6.69,3.8,3.8,0,0,1,4.1-1.07c1.47.53,1.85,1.89,1.86,3.32a25.79,25.79,0,0,1-.27,3.67,62.1,62.1,0,0,1-4,15.07c-5,12.07-4,24.63-4.14,37.25,1.7-.47,1.87-1.81,2.4-2.86,7.6-15.33,15.17-30.69,21.4-46.65,2.54-6.51,5-13.06,7.4-19.61.56-1.52,1.17-3.13-.19-4.62-1.54-1.69-3.33-3.17-4.25-5.38-.29-.7-1-.72-1.73-.77-12-.88-18.19-9.31-23.78-18.56a4.39,4.39,0,0,1-.43-1.14c-.66-2.48,0-3.69,2.46-4.14a15.89,15.89,0,0,1,7.2.48,26.43,26.43,0,0,1,8.15,4.14c-.59-2.81-1-4.76-1.41-6.72a25.15,25.15,0,0,1,.22-12.17c1.27-4.24,4.2-5,7.18-1.9a36.59,36.59,0,0,1,7.4,12.53c.46,1.21.43,2.71,1.68,3.62a26.59,26.59,0,0,0,2.55-4.72,51.55,51.55,0,0,1,5.81-9.88,14,14,0,0,1,3.76-3.72c3-1.85,6.25-.6,5.9,3.37a62.19,62.19,0,0,1-1.73,10.08c-.82,3.19-1.6,6.38-2.4,9.57a33.42,33.42,0,0,0,5.86-4.14,91.55,91.55,0,0,1,12-8.5c1.1-.62,2.33-1,3.43-.21s.83,2.18.45,3.38a15.83,15.83,0,0,1-.85,2.31,51.12,51.12,0,0,1-14.37,18.16L571.49,241a87.3,87.3,0,0,0,12.13-.23,16.17,16.17,0,0,1,3.61,0c1.45.24,1.63,1.25.52,2.31a5.1,5.1,0,0,1-1,.73c-7.49,4.3-15.23,7.21-24,4.82-1-.28-2-.72-3,.2-1.79,1.66-3.66,3.13-4.46,5.7-6.57,21.12-15.45,41.29-25.21,61.09-1.39,2.82-3.24,5.53-3.93,8.85.6-.07.91,0,1.09-.14,6.22-4.4,12.46-8.79,18.64-13.26a75.35,75.35,0,0,0,16.86-16.58c2.62-3.58,4.86-7.17,4.35-12a11.32,11.32,0,0,1,2.19-7.75,3.29,3.29,0,0,1,3.42-1.69,3.24,3.24,0,0,1,2.59,2.79,8.66,8.66,0,0,1-.71,6.36,20.34,20.34,0,0,1-3.56,5,14.54,14.54,0,0,0-2.67,3.59,61.88,61.88,0,0,1-11.92,15c-.91.88-2.08,1.6-2.73,3.19a48.64,48.64,0,0,0,14.26-2.4,4.88,4.88,0,0,0,3.65-3.36,10.71,10.71,0,0,1,4.68-6,4,4,0,0,1,4.89.49c1.21,1.06,1.19,3.06.09,4.9a6,6,0,0,1-2.67,2.46,62.6,62.6,0,0,1-7.49,3.11,91.56,91.56,0,0,1-17.89,3.37,12.07,12.07,0,0,0-6.14,1.87c-5.3,3.82-10.7,7.5-15.95,11.4-4.95,3.67-9.57,7.69-12.23,13.53-1.19,2.62-2.49,5.18-3.77,7.76-5.41,10.92-11,21.76-17.26,32.19-9.83,16.25-22,30.6-34.7,44.58-8.53,9.41-17.26,18.63-25.86,28-3.24,3.52-6.36,7.28-8.26,11.65-7.44,17.08-15.36,33.92-24.3,50.26-.33.6-1.17,1.26-.33,2.06,1,.11,1.56-.56,2.22-1a184.67,184.67,0,0,1,19.27-11.46c3-1.49,5.24-3.19,4.31-7a1.31,1.31,0,0,1,.06-.4c1.89-16.88,9.39-31.61,17.59-46.06.49-.87,1.18-1.55,2.31-1.17,1.39.48,1.2,1.55,1,2.69q-1,5-1.94,10.08c-2.08,11.23-5.25,22.1-10.66,32.23-.41.77-1.12,1.58-.54,2.9a167.61,167.61,0,0,0,15.68-9.26,3,3,0,0,0,1.25-2.84,24.43,24.43,0,0,1,.77-5.68c4.47-16.86,10.19-33.25,18.11-48.82l4.66-9.14a1.54,1.54,0,0,1,2-.86,1.44,1.44,0,0,1,1,1.9c-.11.54-.25,1.07-.36,1.6q-2,10.48-4.07,21a136.75,136.75,0,0,1-9.22,30.19c-.35.78-1.31,1.51-.15,3,.35-.33.72-.73,1.14-1.07,1-.77,1.95-1.49,2.9-2.26,7.4-6,13-13.48,18.53-21.21,2.66-3.74,3.62-7.12,2.52-11.66A53.87,53.87,0,0,1,495,408.69c2-5.41,4.26-10.68,6.62-15.91,2.53-5.6,5-11.26,8.42-16.41.71-1.07,1.43-2.17,2.88-1.68,1.62.55,1.09,2,.9,3.13-1.21,7.17-1.65,14.4-2.24,21.63-.62,7.64-1.38,15.28-3.84,22.62L506,427.16a5.24,5.24,0,0,0,2.32-1.94q14.09-19.93,28.15-39.87c2.14-3,4.55-5.74,4.23-10.12-.15-2,0-3.44-1.45-4.92a29,29,0,0,1-7.2-11.66,24.19,24.19,0,0,1,0-14.14c.77-2.64,2.71-3,4.52-1.09a16.65,16.65,0,0,1,1.9,2.63c1.37,2.24,2.68,4.52,4.07,6.88a9.18,9.18,0,0,0,1.8-4,33.56,33.56,0,0,1,5.36-10.55c1.37-1.76,3-3.22,5.53-2.67s3.7,2.57,4.26,4.92a19.25,19.25,0,0,1-.36,8.53c-.27,1.24-.9,2.49-.36,4l4-2.56a15.62,15.62,0,0,1,5.5-2.55c4.27-.8,6.56,1.18,6.19,5.55-.39,4.57-2.63,8.27-5.7,11.55-.79.84-2,1.34-2.46,2.86,2.57-.19,4.94-.48,7.31-.5,3.09,0,6.23-.1,9.2.92,2.34.8,2.64,2,1.14,4a10.06,10.06,0,0,1-1.68,1.78c-6,5-12.61,8.56-20.67,8.09a1.43,1.43,0,0,0-1.54.61c1.31,1.23,2.68,2.44,4,3.74a19,19,0,0,1,4.34,6.32,3.23,3.23,0,0,1-.2,3.49,2.94,2.94,0,0,1-3.34.76,13.57,13.57,0,0,1-4.72-2.22c-5.41-4-10.59-8.3-14-14.42a11.67,11.67,0,0,0-6.54,4.75c-10,15.34-21,30-31.3,45.2-.62.91-1.69,1.72-1.54,3.08.23,0,.39.08.49,0,.84-.43,1.71-.82,2.51-1.33,16-10.09,33.69-15.51,52.05-18.8,1.89-.34,4.49-1.62,5.46.72s-1.75,3.43-3.23,4.64c-3.38,2.75-7,5.2-10.41,7.91C540.76,437,526,441.53,509.94,442.15c-2.42.09-4.83.46-7.25.62a5.24,5.24,0,0,0-4.28,2.6c-6.12,9-11.86,18.4-19.87,26Zm-96.6-124c.15-1.63-.61-2.76-1.09-3.92-3.6-8.66-7.28-17.28-10.36-26.15-.38-1.1-2.08-2.75-.28-3.49s2.21,1.53,2.67,2.82c3.08,8.59,6.72,16.93,10.25,25.31.32.75.48,1.56,1,3.14,1.83-8.16-11.31-44.1-20.12-56.27C362.29,305.78,372.5,339,382.35,348.09Zm13,62.7a36.53,36.53,0,0,0,2.29-7.22c2.78-10.71,5.7-21.39,8.66-32.05.28-1,0-3,1.77-2.63s1,2.28.68,3.48c-1.66,6.77-3.4,13.52-5.16,20.27-1.17,4.5-2.43,9-3.62,13.47-.2.74-.76,1.5.13,2.6,9.85-18.47,13-38.39,15.34-59.33C403.64,364.53,394.66,393.45,395.33,410.79Zm113.74,26.69c8.51-3.14,17.25-5.53,25.91-8.15a35.89,35.89,0,0,0,7.74-3.57,14.1,14.1,0,0,1,1.76-1,1.23,1.23,0,0,1,1.7.61,1.09,1.09,0,0,1-.39,1.44,26.74,26.74,0,0,1-2.36,1.6A52.8,52.8,0,0,1,531,433.31c-5.05,1.49-10.07,3.12-15.09,4.7a1.75,1.75,0,0,0-1.37,1.15c19-.79,33.54-10.93,47.51-22.52-8.91-1.84-47.31,13-54.16,20.89A4.17,4.17,0,0,0,509.07,437.47ZM387.68,475.6l.79-.56c-3.08-4.05-6.17-8.09-9.22-12.17s-6.28-8.44-9.38-12.62c.92-1.25,1.82-1,2.49-.26,1.27,1.39,2.44,2.89,3.59,4.38,5.85,7.6,11.67,15.22,17.55,22.8a8.26,8.26,0,0,0,3.47,3.25,110.2,110.2,0,0,0-35.63-45.61C364.89,452,375.74,464.16,387.68,475.6Zm-8.26-78.36c.16-1.69-.9-2.56-1.54-3.51a161.41,161.41,0,0,1-13.69-24c-.47-1-2.28-2.47-.61-3.41s2.11,1.21,2.65,2.33c5.17,10.82,11.69,20.78,18.52,30.56.89,1.27,1.65,2.67,3.14,3.43-6.89-20.8-18.85-38.48-32.46-55.22C356,359.08,370.47,388.93,379.41,397.24Zm125.48-4.08c-3.7,7.92-7.45,15.84-9.46,24.43a51.93,51.93,0,0,0-1,18.31,4.59,4.59,0,0,0,.28,1.18c.09.22.35.36.71.71,1.34-5.42,1.93-10.83,2.73-16.2.83-5.54,1.81-11.06,3.15-16.5.22-.88.12-2.16,1.54-1.85,1.16.26,1.19,1.32,1,2.33-.62,3.36-1.32,6.71-1.87,10.08-.89,5.4-1.69,10.8-2.5,16.21a23.9,23.9,0,0,0,0,2.71c8.69-16.36,9.45-33.46,10.51-51.15C507.29,386.75,506.33,390.09,504.9,393.16Zm-56.28,106c9.36,2.21,19,3.06,28.16,6.55-.64,1.55-1.46,1.11-2.19.94a219.9,219.9,0,0,0-23-4.36c-4.09-.5-8.17-1-12.3-.22,18.76,5.34,37.77,8.21,57.37,5.33C481.25,501.23,465.11,499.22,448.62,499.12ZM489.85,142a31.83,31.83,0,0,0,2.6,14.73c3,7.32,7,11.2,16.28,15.7C505.55,160,500.43,149.76,489.85,142Zm61.93,98.73c2.87-7.81-3-27.3-9.87-32.66C537.39,216.35,542,231.62,551.79,240.71Zm-9.58-6.11A24.56,24.56,0,0,0,531.76,226a12.19,12.19,0,0,0-5.48-1.09c-1.92.09-2.53.89-1.59,2.62,3.74,6.87,8.32,13,15.71,16.22,2.57,1.11,5.42,1.82,8-1.18A66.24,66.24,0,0,1,542.21,234.6ZM563.2,366a19.35,19.35,0,0,0,8-10.49,8.28,8.28,0,0,0,.53-4c-.2-1.12-.74-1.77-1.91-1.48a14,14,0,0,0-3,1,29.84,29.84,0,0,0-15.67,20.72A50.77,50.77,0,0,0,563.2,366Zm-50.41-194.3c5.62-5.73,9.42-26.44,6.15-34.88C512.36,147.92,507.66,158.87,512.79,171.67ZM569.12,207c-1.91-.28-2.51,1-3.19,1.89a52.68,52.68,0,0,0-10,21.71A18.24,18.24,0,0,0,557.26,242,83.88,83.88,0,0,0,569.12,207Zm1.46,163c-6.22.75-12,3.1-17.88,5.23-.64.23-1.31.48-1.34,1.32s.58,1.41,1.39,1.74a23.62,23.62,0,0,0,8.66,1.74c7.89.1,14.14-3.65,20.51-9.5A28.11,28.11,0,0,0,570.58,370ZM376,273.42c4.72,2.86,9.92,4.64,15.16,6.38.53-1.42-.59-1.79-1.15-2.42-3-3.43-6.06-6.86-9.15-10.24a35.05,35.05,0,0,0-10.54-8,6.85,6.85,0,0,0-5.13-.78C367.28,264.87,370.47,270.07,376,273.42ZM518,171.8c10.36-1.62,22.46-15.71,22-25.63C533.25,148.6,521.12,162.72,518,171.8Zm37.82,178.1a20.41,20.41,0,0,0,.85-8.47c-.18-1.19-.27-2.71-1.55-3.11s-2.12.95-2.8,1.92a34.33,34.33,0,0,0-6.57,18.22A35.82,35.82,0,0,0,547,369.77C550.43,363.29,553.85,356.91,555.78,349.9ZM476,476.08c.7,1.19,1.66.42,2.42.24,9.24-2.14,18.71-2.46,28-3.81a2.3,2.3,0,0,1,2.72,1.46c-4.87,1.47-9.68,1.45-14.35,2.25s-9.33.7-13.7,2.7c16.75,1.29,32.06-4.45,48.23-10.33C522.07,467.46,482,473.28,476,476.08ZM402.31,278.42c14,.22,24.6-14.67,25.93-24.93C418.6,261.14,410.52,269.58,402.31,278.42Zm84.11-115.21a21.07,21.07,0,0,0-5.88-1.32c-.76,0-1.72-.3-2.14.66a1.81,1.81,0,0,0,.55,1.85,34.52,34.52,0,0,0,18.19,12.1c2.46.65,4.75-.29,7.26-1.94C498.44,170,493.33,165.19,486.42,163.21ZM394.56,342.14c1.6,0,2-.92,2.63-1.61a181.68,181.68,0,0,0,12.68-16c.47-.67.86-1.4,1.36-2,.32-.4.73-.9,1.36-.61a1.12,1.12,0,0,1,.5,1.7c-.8,1.43-1.75,2.77-2.54,4.2-.56,1-1.77,1.77-1.41,3.76a72.61,72.61,0,0,0,13.41-27.32C412.2,316,401.88,327.81,394.56,342.14Zm18.18,93.76c1.18-2.76,2.24-5.58,3.44-8.34.38-.88.51-2.59,2-1.92s.38,1.93.07,2.89a163.44,163.44,0,0,1-6.17,15.17c-.49,1.11-1,2.2-1.67,3.65,6.95-5.88,13.83-30.82,11.57-41.88-6.59,13.19-10.57,26.79-14.5,40.43C409.93,442.92,411.25,439.37,412.74,435.9Zm-19.2-159.43c1.79-7.92-3.66-25.92-9.31-30.79C381.5,254.44,386.29,270.27,393.54,276.47Zm54.86-72c.21-8.43-4.91-17.79-12.88-23.24C432.72,190.4,439,201.48,448.39,204.49Zm-42,39.4c-5.91,4.82-10.47,23.71-7.72,32.88C403.83,270.48,408.08,252,406.44,243.89Zm47-38.47c7.21-8.57,6.94-18.42,5.88-28.43C454,185.66,448.62,194.33,453.44,205.42ZM585.62,219c-9.36,5.88-17.91,12.63-23.45,22.6C573.77,238.08,580.75,229.64,585.62,219Zm-125.45,255c.8-2,1.6-4,2.38-6s1.6-4.07,2.35-6.12c.61-1.67,1.13-3.37,1.74-5,.26-.72.47-1.82,1.53-1.45.85.3.87,1.32.68,2.14a32.61,32.61,0,0,1-.93,3.14c-1.68,5-3.38,10-5.13,15.24,5.18-5.65,13.92-34.77,13-44.26A220.14,220.14,0,0,0,460.17,473.91Zm16.88-285c-6.63.48-16.27,9.4-18.56,17.4C466.59,205.66,474.65,198,477,188.88ZM535.19,346c-2.32,9.68.85,16.82,7.1,23A39.82,39.82,0,0,0,535.19,346ZM434.53,489.68c.48-1.24,1-2.48,1.43-3.73.52-1.41,1-2.84,1.51-4.25.41-1.14.6-2.56,2.42-1.53,1.43.81,1.53-.67,1.82-1.41a81.91,81.91,0,0,0,4.66-20.3C440.93,468.27,436.49,478.46,434.53,489.68ZM403.57,283c7.44,4.39,19.6,3.5,24.67-2.09C416.66,280.48,407.55,281.28,403.57,283ZM563.8,394.62c.47.31,1,.51,1.48.14.65-.52.41-1.24.1-1.85-3.19-6.19-8.12-10.1-15-11.35A43.43,43.43,0,0,0,563.8,394.62ZM449,208.13c-5.93-2.77-11.63-6.41-18.65-4.76C436.42,205.85,441.77,210.82,449,208.13Zm131.25,35.62c-5.75,0-11.55-.43-17,2.23C569.37,248.6,574.9,246.76,580.28,243.75Zm-41.42-73.51c-3.48-.35-12.76,2.09-17.25,4.63C528.22,175.52,533.93,174.79,538.85,170.24ZM554.11,244c-1.38.29-3,.27-3.76,1.82-.49,1.06,1,3.92,2.15,4.59.38.22.79.34,1.1.06,1.38-1.3,3.06-2.45,4-4,1.09-1.84-1.06-1.55-1.87-2.06C555.14,244.17,554.58,243.85,554.11,244ZM464.79,210.5c4.66,2.18,10,1.66,14.71-1.43C476.16,208.16,468.77,208.88,464.79,210.5Zm-67.48,73.67c-1.23-.27-2.67-1.06-3.52.62s.08,5.3,1.15,5.5,2.53-1.5,3.35-3.78C398.83,285.43,398.74,284.49,397.31,284.18Zm83.49-52.12c-.07-.83-.3-1.72-1.23-1.82-1.14-.13-1.63.82-1.91,1.74-.8,2.71.38,4.93,1.88,8.09A15.51,15.51,0,0,0,480.8,232.05Zm28.86-52.31c.77.68,1.69,1.49,2.83.82s1.32-2,1.46-3.17a1,1,0,0,0-1.28-1.07c-1.56.48-3.09-.55-4.63-.06C507.7,177.93,508.69,178.88,509.66,179.74Zm14.85,98c1.26-2.57,1.43-5.11,1.09-8.37C522.59,272.92,522.48,274.13,524.52,277.78Zm-58,19.56c1.17-1.34,2.24-2.71,1.16-4.6a.67.67,0,0,0-1-.15c-1.78,1.28-1.11,3-1.09,4.84C466.27,297.37,466.45,297.41,466.52,297.34Zm-28.55-68c-.26-.43-.56-1-1.18-.77s-.64.87-.6,1.38a7.13,7.13,0,0,0,2.44,5C439,232.58,438.91,230.9,438,229.34Zm17.32-20a1.25,1.25,0,0,0-1.78,0c-1.2,1.52,0,2.59.86,4.33C455.63,211.88,456.83,210.78,455.28,209.36Zm114.81,73.26c2.42-2,2.42-2,2.14-6.49C570.43,278.47,570.36,280.47,570.09,282.62Zm-62.94,1.93c-.68,3.2,1.13,4.45,2.45,5.93C510,288.21,509.15,286.49,507.16,284.55ZM575,303.2c3.08-.37,3.16-.47,3.42-3.83C576.63,300.12,575.93,301.65,575,303.2Zm-75.69-96.55a3.23,3.23,0,0,0-.19-3.1.72.72,0,0,0-1.05,0c-1.13,1-.63,2.22-.25,3.37.08.23.33.4.78.94A6.65,6.65,0,0,0,499.35,206.65Zm-29.81,55.24a4.17,4.17,0,0,0-1.32-4.16C467.66,259.36,468,260.6,469.54,261.89ZM544,377.69c1.08.44,1.75-.39,2.21-1.19a.81.81,0,0,0-.56-1.25,1.53,1.53,0,0,0-1.88.83C543.52,376.8,543.42,377.47,544,377.69Zm-73-62.84c-1.78,0-2,1.16-2.29,3C470.16,317,471.11,316.41,471,314.86Zm-64.87,20.46a9.25,9.25,0,0,0,.8-1.62c-1.32.88-2,1.34-2.23,2.8A13.78,13.78,0,0,0,406.09,335.32Z" fill="#363636"/>

<path id="_Clipping_Path_3" data-name="&lt;Clipping Path&gt;" class="cls-2" d="M347.12,200s58.76-25.33,69.9-75S385.62,20.7,385.62,20.7,209.35,171.64,247.85,203c19.86,16.2,99.28,9.12,99.28,9.12" fill="#1d3542"/>

<path class="cls-2" d="M288.87,406.16s-18.23-11.14-30.39,3c0,0-11.14-9.12-30.39,5.07l-7.09,3s19.25,15.2,40.52,4.05c0,0,33.43,5.07,34.44-4.05A9.9,9.9,0,0,0,288.87,406.16Z" fill="#1d3542"/>

<path class="cls-6" d="M428.25,509l-1.92-4c-1.79.07,2.85,2.85,4.68,2-1,0-2.28.12-3.72.24-3.89-7.5-20-38.06-35.34-58.7l.77-.37.64-4.33a46.14,46.14,0,0,0,10.1-5.83c12.31-9.42,8.18-21.42-4.49-32.4L411.54,320c5.34,28.74,19.09,77.93,22,88.15-.37,5.58-3.48-16.77-2.57-9.07,0,0,3.34,20.35,6.48,21.57a5,5,0,0,1,2.54,1.79c29.29,45,109.9,89.59,116.18,93.64,6.86,4.43,26.19,3.45,31.36,1.7s16.29-1.15,16.29-1.15c-.68-6.12-11.92-4.7-11.92-4.7,2.19-2.92,5.28-3.77,9.38-4.57S614.8,501,614.8,501c-2.71-6.23-13.1-1.72-13.1-1.72,1.18-3,13.92-13.45,13.92-13.45-6.75-6.45-19.66,7.05-19.66,7.05,1.23-4-1.41-20.87-1.41-20.87a7.39,7.39,0,0,0-5.39,5.06c-.09-3.06-2.71-5.5-2.71-5.5-2.24,3.94-14.6,7.33-27.69,5.6a72.65,72.65,0,0,0-25.45,1.67c-5.8-5.39-29.14-23.9-39.91-49.84-10.3-24.82-23.42-31.22-24.26-37,.52-.17,1.87,0,1.57-.45-5.84-8.44-6.11-22.33-10.11-28.74C455,344.91,447,325.35,443.81,295.41c-3-28.16-2.54-26.44-3.42-30.79-.09-.71-1.08-6.41-1.25-7.12.47,1.8.33,1.33-1.86-7.85l-.08.15c-4.39-16.89-30.17-32.6-61.44-40.69-8.44-7.84-14.23-18.67-18.19-29.85a21.84,21.84,0,0,0,4.4-9.65c14.77-10.94,29.33-27.85,34.54-47.53a6.58,6.58,0,0,0,1.35.51c5.23,1.28,11-4.06,13-11.93s-.74-15.29-6-16.58a8.14,8.14,0,0,0-7,1.94c-4.68-39.54-33.51-83.42-67.15-83.42-35.5,0-63.35,48.86-65.25,89.92-3.39,2.76-4.85,8.84-3.29,15.23,1.24,5.06,4.08,9.06,7.34,10.94C275.7,145,288,159,300.7,168.7A22.3,22.3,0,0,0,307,181.26a117.63,117.63,0,0,1-14.14,28,85.57,85.57,0,0,0-9.57,3.88c-32.37,15.56-43.67,26.94-47.54,33.6l-.4-1a13.69,13.69,0,0,1-.37,2.4c-1.67,3.52-1.1,5.36-1.12,5.37h0c-1.64,8-4.4,22.49-7.14,46.38-4.32,37.72-26.24,89.46-26,95.53s-13.65,11.79-24.61,37.66-34.44,44.2-40.28,49.55a72.65,72.65,0,0,0-25.44-1.85C97.35,482.48,85,479,82.81,475c0,0-2.63,2.43-2.75,5.48a7.39,7.39,0,0,0-5.35-5.1S72,492.29,73.15,496.29c0,0-12.81-13.6-19.6-7.2,0,0,12.66,10.56,13.82,13.55,0,0-10.36-4.59-13.11,1.63,0,0,9.39,5.65,13.49,6.47s7.18,1.69,9.34,4.63c0,0-11.23-1.5-12,4.62,0,0,11.13-.52,16.29,1.27s24.48,2.91,31.37-1.47S214.6,463.3,235.65,414.66c0,0,3.34-11.37,7.6-26.83,6.52,7.69,13.91,14.87,21.82,19.85,0,.38,2.61,2.5,7.27,5.58l4.77,34.16c-8,12.25-35.76,55.4-38.26,64.18a40.64,40.64,0,0,0-5.19-.54l2.47,1.1c-18.48,1.08-130.61,8-158.47,20.11C47.27,545.45,36.13,585,62.46,605.21c22.09,17,148.92,24.72,218,16.61,4.54,2.12,16.12-11.72,20.91-10.82,32.42,6.08,28.15,6.37,28.15,6.37s-1.4-.12-3.91-.45c51.82,6,244.14,25.22,280.88-16.77C649,551.54,529.53,503.94,428.25,509Zm138.07-21.29c3.36-5.91,15.28-1.2,20.61-6a7.11,7.11,0,0,0,1.69-2.18c-.51,4.17.55,8.73-.1,10.39a17,17,0,0,1-10.72,10.58C570.55,503.13,563,493.59,566.31,487.69Zm-475,16.37A17,17,0,0,1,80.62,493.4c-.64-1.66.45-6.21,0-10.39a7.1,7.1,0,0,0,1.67,2.2c5.3,4.82,17.25.21,20.57,6.14S98.49,506.76,91.26,504.06ZM252.19,354c3-12,5.68-23.66,7.3-32.72l8,57.34A98.31,98.31,0,0,0,252.19,354Z" fill="#f2ded7"/>

<path id="_Path_" data-name="&lt;Path&gt;" class="cls-7" d="M279.33,444s-38,58.8-40,68c0,0-130,6.16-160.73,19.45s-41.93,53.18-15.34,73.63,203.5,27.61,252.59,10.23c0,0,253.61,33.75,296.56-15.34s-77.72-97.15-180-92c0,0-35.79-70.56-55.22-79.76S279.33,444,279.33,444Z"/>

<path class="cls-2" d="M187.18,414.81,195.33,402c-5-11.35-4.89-6.57-11.59-6.7l-11.41,5.93C175.63,417.79,187.18,414.81,187.18,414.81Z" fill="#1d3542"/>

<path id="_Clipping_Path_4" data-name="&lt;Clipping Path&gt;" class="cls-1" d="M234.29,241.66c1.25.07,173.43,66.76,206,32.22,0,0,9.72,53.79,17.08,75.11,8.29,24,18,51.91,18,53,2.06,4.78-15.47,0-51.25,35.78-48.82,48.82-150.84,4.62-213.75-83.28C210.33,354.51,217.54,240.7,234.29,241.66Z" fill="#020202"/>

<g class="cls-8">
<path class="cls-1" d="M201.45,294.53c19.89-10.2,46.17,5.78,66.23-4.09,2.23-1.1,4.36-2.51,6.82-3a19.39,19.39,0,0,1,6.72.23L346,297.48a119.94,119.94,0,0,0,17.46,1.78c7.69,0,15.59-1.39,22.92.85,3.48,1.06,6.65,2.91,10.07,4.14,9,3.22,18.89,2,28.37.76l38.69-5.13c3.68-.49,8.83.09,9.11,3.68.3,3.85-5.29,4.89-9.28,4.88-11.91,0-23.5,3.48-35.34,4.73-8.52.9-17.12.61-25.68.31q-61.73-2.22-123.39-6.07a225.58,225.58,0,0,1-23.71-2.34c-2.78-.47-5.65-1-8.39-.39-2.28.55-4.27,1.91-6.51,2.6-8.66,2.69-17.39-5-26.46-4.46-4,.25-7.84,2.12-11.84,1.78s-7.93-4.84-5.47-7.9" fill="#020202"/>

<path class="cls-1" d="M193.91,328.93c.9-4.67,7.3-6.31,12-4.88s8.48,4.78,13,6.54c14,5.42,29.22-5.36,44.27-4.65,10.18.48,19.85,6.24,30,5,3-.36,5.86-1.32,8.85-1.69,6.3-.79,12.59,1,18.77,2.46,20.38,4.7,41.52,5.07,62.47,5.43l38.45.65c11.56.19,23.31.37,34.46-2.63,4.31-1.16,8.56-2.79,13-2.84s9.36,2,11,6l-38.64,5.34a181.91,181.91,0,0,1-18.88,1.94c-9.64.32-19.27-.9-28.91-1.33-29.91-1.33-60.11,4.92-89.68.39-7.78-1.19-15.55-3.13-23.4-2.61-6.77.45-13.37,2.72-20.15,2.5-5.06-.16-9.94-1.7-14.82-3a148,148,0,0,0-52.67-4l-6.42-9.88,7.79-.34" fill="#020202"/>
<path class="cls-1" d="M194,364.28c9.11-5.79,21.17-4.38,31.57-1.27s20.62,7.76,31.51,7.83c10.2.06,20-3.93,30.21-4.43,16.2-.8,32.12,7.22,48.18,5,6.78-1,13.22-3.72,20.05-4.22,5.06-.37,10.11.52,15.1,1.4l30,5.32a39.34,39.34,0,0,0,9.33.89c4.06-.26,7.91-1.76,11.72-3.14a208.39,208.39,0,0,1,29.47-8.24c5.41-1.09,11.32-1.91,16.22.55,1.89.95,3.55,2.35,5.58,2.94,4,1.15,8-1.08,12.09-2s9.68.83,9.47,4.84c-11.42,4-24,2-36.1,2.52-12.86.6-25.37,4.11-38.06,6.22a174.33,174.33,0,0,1-60-.57c-6.77-1.25-13.5-2.91-20.39-3.18-8.16-.32-16.25,1.34-24.36,2.35-20.22,2.53-40.72,1.08-61.06-.37l-33.45-2.39c-8.63-.62-17.31-1.24-25.71-3.26-1.79-.43-3.73-1-4.72-2.55s-.16-4.1,1.69-4.08" fill="#020202" />
<path class="cls-1" d="M231.6,403.12c7.78-3.45,16.91-2.2,25.09.22s16.09,6,24.58,7c24.13,2.92,49.22-14.69,71.66-5.61,3.93,1.59,7.76,4,12,3.82,3.2-.13,6.11-1.73,9.19-2.61,8.77-2.52,18.07.88,26.54,4.23,3.14,1.24,6.6,2.5,9.83,1.53,2.41-.73,4.27-2.58,6.56-3.61,5.16-2.31,11.1,0,16.72.79,8.33,1.2,16.72-1,25-2.17s17.51-1.24,24.34,3.53c-5.06,3.76-11.72,4.75-18.09,5.17-21.18,1.41-42.91-2-63.44,3.28-3.27.84-6.55,1.9-9.93,1.8-3.7-.12-7.17-1.63-10.67-2.82-13.23-4.52-27.57-4.64-41.6-4.7a159.63,159.63,0,0,0-17.35.55c-13.35,1.39-26.35,6.15-39.76,5.65-16.2-.6-31.39-8.83-47.59-9-2.35,0-4.79.11-6.94-.8s-3.89-3.27-3.12-5.41,4.72-2.44,5.22-.22" fill="#020202"/>
<path class="cls-1" d="M200.41,268.93c4.2-7.54,14.2-10.34,23-9.58s17.09,4.26,25.71,6.21a73.92,73.92,0,0,0,27.27,1c4.82-.73,9.7-1.95,14.53-1.25,4.63.67,8.8,3,13.3,4.32,15.95,4.51,32.15-5.26,48.6-7.46,11-1.47,22.2.51,33.12,2.56,26.71,5,54,10.44,80.92,6.62-.15,6.37-8.75,8.56-15.33,8.78a583.78,583.78,0,0,1-77.91-2.66c-13-1.31-26-3.07-39-2.32-9.13.52-18.2,2.27-27.34,1.92-15.39-.59-30.08-7.08-45.48-7.33-7.92-.13-15.76,1.41-23.63,2.23a131.75,131.75,0,0,1-32.28-.61c-2.21-.32-4.61-.79-6-2.47s-.87-4.87,1.34-5.18" fill="#020202"/>
<path class="cls-1" d="M287.41,436.91c24.33.62,48.79,1.23,72.91-2,5.38-.71,10.76-1.61,16.19-1.5a93.42,93.42,0,0,1,14.22,1.82q26.14,4.61,52.62,7c-15.21,7.11-33,6.32-49.74,4.05s-33.58-5.87-50.34-3.88c-9.67,1.15-19.18,4.15-28.91,3.81a42.18,42.18,0,0,1-21.05-6.52" fill="#020202"/>
</g>
<path id="_Clipping_Path_5" data-name="&lt;Clipping Path&gt;" class="cls-2" d="M330.91,36.91s-34.44,22.29-50.65,72.94c0,0-9.12,22.29-3,34.44s29.38,28.36,24.31,43.56a58,58,0,0,1-22.29,44.57s22.29-9.12,41.53,26.34c0,0,40.52-21.27,69.9,16.21,0,0,21.27-24.31,42.55,7.09,0,0,19.25-13.17,29.38,12.16,0,0,15.2-12.16,10.13,21.27,0,0,17.22,14.18-4.05,27.35,0,0,3,7.09-9.12,14.18l-6.08-17.22s3-3,10.13-3c0,0-6.08-14.18,4.05-21.27,0,0-16.21-4.05-16.21-21.27,0,0-18.23,12.16-30.39-9.12,0,0-29.38,24.31-52.68-8.1,0,0-46.6,31.4-67.87-10.13,0,0-57.74,26.34-60.78-25.33,0,0-30.39-41.53,8.1-65.85,0,0-35.35-46.76-14.18-88.13C256,44,277.22-20.83,325.85,6.52c0,0,85.09-37.48,72.94,102.32C398.79,108.83,356.24,76.42,330.91,36.91Z" fill="#1d3542" />
<g class="cls-9">
<path class="cls-10" d="M277.22,144.29s19.25,48.63,54.7,46.6,60.41-47.27,62.62-70.23S273.17,119,277.22,144.29" fill="#1d3542"/>
</g>
<path class="cls-2" d="M221.51,338.79C200.23,331.7,191.12,357,191.12,357c-15.2-6.08-19.25,13.17-19.25,13.17-13.17,11.14,0,26.34,0,26.34a23.91,23.91,0,0,0,.46,4.71l11.41-5.93a33.36,33.36,0,0,0-4.78.22c5.07-10.13-3-21.27-3-21.27,15.2,1,20.26-12.16,20.26-12.16,54.7,20.26,68.89-42.55,68.89-42.55S242.78,345.88,221.51,338.79Z" fill="#1d3542"/>
<path class="cls-11" d="M292.71,111.34a40.82,40.82,0,0,0,26-1.8,22.49,22.49,0,0,1-26,1.8Z" fill="#2e2430"/>
<path class="cls-12" d="M322.82,157.85a21.09,21.09,0,0,0,18.67-1.33.88.88,0,0,0-.89-1.51,19.39,19.39,0,0,1-17.31,1.15c-1-.42-1.5,1.27-.47,1.69Z" fill="#a34f31"/>
<path class="cls-12" d="M323.05,140.8c1.68,0,3.19.14,4.67.15s2.93,0,4.37-.12,2.87-.26,4.34-.49,3-.51,4.61-.79a10.15,10.15,0,0,1-3.9,3.07,13.84,13.84,0,0,1-9.81.67A10.21,10.21,0,0,1,323.05,140.8Z" fill="#a34f31"/>
<path class="cls-11" d="M347.46,111.51a40.82,40.82,0,0,0,26-1.8,22.49,22.49,0,0,1-26,1.8Z" fill="#2e2430"/>
<path class="cls-2" d="M292.39,101.4a24.69,24.69,0,0,1,23.68-8.24c1.53.3,2.19-2.05.65-2.35a27.19,27.19,0,0,0-26.06,8.87c-1,1.18.69,2.91,1.73,1.73Z" fill="#1d3542"/>
<path class="cls-2" d="M374.2,98.65a27.18,27.18,0,0,0-26.06-8.87c-1.54.3-.89,2.65.65,2.35a24.69,24.69,0,0,1,23.68,8.24c1,1.19,2.75-.54,1.73-1.73Z" fill="#1d3542"/>
<path class="cls-2" d="M332.9,33.47a76.61,76.61,0,0,0,6.95,18.77,86.78,86.78,0,0,0,11.27,16.87,87.14,87.14,0,0,0,14.86,14,89.11,89.11,0,0,0,8.52,5.72c2.92,1.8,6.06,3.2,9.09,4.83-3.1-1.47-6.32-2.73-9.34-4.39a89.89,89.89,0,0,1-8.86-5.34,88.65,88.65,0,0,1-15.79-13.45A89.29,89.29,0,0,1,337.18,53.7a79.59,79.59,0,0,1-8.25-19.43Z" fill="#1d3542"/>
<path class="cls-2" d="M334.3,29.08a47.8,47.8,0,0,0-3.08,10.58,46.91,46.91,0,0,0-.59,11.18,37.34,37.34,0,0,0,2.36,11,39.88,39.88,0,0,0,5.51,10,40.43,40.43,0,0,1-6.44-9.6,38.85,38.85,0,0,1-3.44-11.18,49.43,49.43,0,0,1-.42-11.8,50.89,50.89,0,0,1,2.35-11.76Z" fill="#1d3542"/>
<path class="cls-2" d="M337.68,33a42.36,42.36,0,0,0-5.24,4.1,50.59,50.59,0,0,0-4.75,4.9,46.88,46.88,0,0,0-4.1,5.53,47.76,47.76,0,0,0-3.31,6.12A49.67,49.67,0,0,1,326,40.78a53.14,53.14,0,0,1,4.19-5.8,45.43,45.43,0,0,1,5.06-5.28Z" fill="#1d3542"/>
<path class="cls-13" d="M332.82,617.35s-50.71-4.09-96.73-36.81c0,0,28.63,39.88,61.36,46S332.82,617.35,332.82,617.35Z" fill="#d25a5c"/>
<path class="cls-13" d="M140,534.52c-1.95,2.14-12.27,7.16-2,11.25s66.47,34.77,80.79,30.68S150.19,523.27,140,534.52Z" fill="#d25a5c"/>
<path class="cls-13" d="M442.51,571.19c2.2.15,46.17-11.1,65.6-19.28s23.52-14.32,28.63-14.32,4.09-10.23-10.23-9.2S452.88,555,452.88,555l-10.38,17.7" fill="#d25a5c"/>
<path class="cls-13" d="M428.34,545.77s-47,10.23-54.2,9.2,14.32-45,64.42-49.09c0,0-49.09-1-81.81,35.79s-60.33-9.2-80.79-19.43c0,0,32.87,41.45,34.33,46.8,0,0,50.89-6.54,65.55-4.17,0,0,37.16.32,55.05-19.62Z" fill="#d25a5c"/>
<path d="M253.11,565.54c14.49,6.38,30.19,6.66,45.73,5.39,18-1.47,35.89-3.8,53.95-4.69a434.65,434.65,0,0,1,56.94.68,155.87,155.87,0,0,1,31.76,6.24c10.08,2.95,20.3,5.86,30.11,9.64.92.35,1.32-1.13.41-1.48-8.16-3.14-16.62-5.6-25-8.12s-16.76-5.43-25.34-6.63c-36.12-5.07-73.56-2.4-109.64,1.51-19.42,2.11-39.76,4.23-58.16-3.87-.9-.39-1.68.93-.77,1.32Z"/>
<path d="M238.93,585a282.11,282.11,0,0,0,86.38,32.83c1,.19,1.38-1.28.41-1.48a280.83,280.83,0,0,1-86-32.67.77.77,0,0,0-.77,1.32Z"/>
<path d="M186.28,553c-15.79-3.92-32.23-7.45-48.08-1.86-.92.33-.53,1.81.41,1.48,15.59-5.51,31.73-2,47.26,1.86a.77.77,0,0,0,.41-1.48Z"/>
<g class="cls-14"><path class="cls-15" d="M308.5,567.89l-17.1-24.74" fill="#d25a5c"/>
</g>
<path d="M441.12,504.61c-13.8.75-28.09,5.43-40.24,11.92-.87.47-.1,1.79.77,1.32,11.87-6.35,26-11,39.46-11.71,1-.05,1-1.59,0-1.53Z"/>
<path d="M236.09,510.8a43,43,0,0,1,28.73,12.89c.69.7,1.78-.38,1.08-1.08a44.64,44.64,0,0,0-29.82-13.34c-1-.05-1,1.48,0,1.53Z"/>
<path d="M422.93,551.93c-13.06,6.66-26.29,11.7-41.12,12a.77.77,0,0,0,0,1.53c15.07-.29,28.62-5.42,41.89-12.2.88-.45.1-1.77-.77-1.32Z"/>
<path class="cls-6" d="M257.07,566.54s-4-11-8-23.06-21.06-13-34.09-6-40.11-9-50.13-10-24.06,0-21.06,8c3.52,9.39,16,1,21.06,7S228,586.59,245,586.59C245,586.59,257.07,583.58,257.07,566.54Z"/>
<path class="cls-6" d="M426.85,552s5.05-10.59,10.21-22.18,22.21-10.95,34.51-2.7S512.36,522,522.44,522s24,2.32,20.19,10c-4.41,9-16.06-.55-21.63,5s-67.12,37.83-84.09,36.19C436.9,573.11,425.21,569,426.85,552Z"/>
</g>
</g>
</g>
</svg>